<svg id="be3b49e4-82b6-467e-b4fb-2a6c02526e89" data-name="iTunes_Layer_-_512_px" xmlns="http://www.w3.org/2000/svg" xmlns:xlink="http://www.w3.org/1999/xlink" viewBox="0 0 512 512"><defs><style>.a951ed54-0f2c-45ed-9292-5f9b7da8682f,.b17749b5-7c0d-4002-a04d-28843b5c75d7,.ee7b6f86-37e3-485f-805c-0a842b8a7921,.f85fe316-b618-489b-b3c8-707eead77e66{fill:none;}.f85fe316-b618-489b-b3c8-707eead77e66{stroke:#72469b;}.a951ed54-0f2c-45ed-9292-5f9b7da8682f,.ee7b6f86-37e3-485f-805c-0a842b8a7921,.f85fe316-b618-489b-b3c8-707eead77e66{stroke-linecap:square;stroke-width:0.3px;}.ee7b6f86-37e3-485f-805c-0a842b8a7921{stroke:#231f20;}.a951ed54-0f2c-45ed-9292-5f9b7da8682f{stroke:#250f24;}.ba0fd617-f630-4da9-be39-2e3ad31dffb2{fill:#372059;}.eec81ee2-5cff-460c-af23-71aa15ca76da{fill:#1e1e26;}.b3aee9dc-f2e7-46af-b00c-abb52516f323{fill:#f6b690;}.fa55e121-0f1d-4ffb-9bc9-c9e7d6d54598{fill:#eca67c;}.a0c520a3-d9a4-4884-8fc8-e92f7431395a,.b8b4d880-8247-4563-b1ce-381060c80cfe{fill:#e19b72;}.a0c520a3-d9a4-4884-8fc8-e92f7431395a{opacity:0.85;}.fac59d11-1476-4633-aa0e-16e1761561c3{fill:#5c3f23;}.bb147b7a-f104-4795-b2f0-45f73bd0cac0,.bfc8bdb0-4a57-49ef-a7d4-927e7188f2e0{fill:#f2f2f3;}.a5bfa11a-2e0b-48df-a395-0bb2b28674c3,.f4a9fd12-0f8f-4e33-aa3b-6edff2920130{fill:#0c0c0e;}.f23032d8-3288-4da2-9b6d-c72004caf2db{fill:#d3d3d3;}.e1a8a86c-b82c-4b58-a821-15f4407c5d4a{fill:#e3dedc;}.ab30dda3-e0a9-43f3-a6d5-589d2a93e81b{fill:#c47168;}.e4997dca-b7f5-4764-93ea-798d16e4a8cd{fill:#782331;}.bfc8bdb0-4a57-49ef-a7d4-927e7188f2e0,.f4a9fd12-0f8f-4e33-aa3b-6edff2920130{stroke:#000;stroke-miterlimit:10;}.f4a9fd12-0f8f-4e33-aa3b-6edff2920130{stroke-width:0.25px;}.e67d0f59-5f61-4c9e-bd2e-53ae55b99036{fill:#473274;}.e12412f5-8d9a-4693-b134-4b975dd8ff07{fill:url(#b561707b-9ed3-41ba-87ee-be26852c2fdf);}.bfc8bdb0-4a57-49ef-a7d4-927e7188f2e0{stroke-width:0.1px;}.a15a2f20-d5c6-4300-89f9-d5a443713402{fill:#050404;}.ee8a9347-eba1-4e17-b541-026ed9e95234{fill:#d26c62;}.f64ae5c9-a7e1-4892-9e43-9c44873feafb{fill:#ecddd8;}.b69c6bde-1751-472a-8b00-a9606133e3b2{fill:#261c1e;}.a80843c5-5cbf-48e1-babf-f1a0bc1093c9{fill:#2c1f21;}</style><pattern id="b561707b-9ed3-41ba-87ee-be26852c2fdf" data-name="Plaid 2 Color 2" width="72" height="72" patternUnits="userSpaceOnUse" viewBox="0 0 72 72"><rect class="b17749b5-7c0d-4002-a04d-28843b5c75d7" width="72" height="72"/><line class="f85fe316-b618-489b-b3c8-707eead77e66" x1="20" y1="72" x2="20" y2="144"/><line class="f85fe316-b618-489b-b3c8-707eead77e66" x1="56" y1="72" x2="56" y2="144"/><line class="ee7b6f86-37e3-485f-805c-0a842b8a7921" x1="25" y1="72" x2="25" y2="144"/><line class="ee7b6f86-37e3-485f-805c-0a842b8a7921" x1="61" y1="72" x2="61" y2="144"/><line class="f85fe316-b618-489b-b3c8-707eead77e66" x1="30" y1="72" x2="30" y2="144"/><line class="f85fe316-b618-489b-b3c8-707eead77e66" x1="66" y1="72" x2="66" y2="144"/><line class="f85fe316-b618-489b-b3c8-707eead77e66" x1="18" y1="72" x2="18" y2="144"/><line class="f85fe316-b618-489b-b3c8-707eead77e66" x1="54" y1="72" x2="54" y2="144"/><line class="ee7b6f86-37e3-485f-805c-0a842b8a7921" x1="23" y1="72" x2="23" y2="144"/><line class="ee7b6f86-37e3-485f-805c-0a842b8a7921" x1="59" y1="72" x2="59" y2="144"/><line class="f85fe316-b618-489b-b3c8-707eead77e66" x1="28" y1="72" x2="28" y2="144"/><line class="f85fe316-b618-489b-b3c8-707eead77e66" x1="64" y1="72" x2="64" y2="144"/><line class="ee7b6f86-37e3-485f-805c-0a842b8a7921" x1="42" y1="72" x2="42" y2="144"/><line class="ee7b6f86-37e3-485f-805c-0a842b8a7921" x1="6" y1="72" x2="6" y2="144"/><line class="ee7b6f86-37e3-485f-805c-0a842b8a7921" x1="144" y1="6" x2="72" y2="6"/><line class="ee7b6f86-37e3-485f-805c-0a842b8a7921" x1="144" y1="42" x2="72" y2="42"/><line class="a951ed54-0f2c-45ed-9292-5f9b7da8682f" x1="144" y1="20" x2="72" y2="20"/><line class="a951ed54-0f2c-45ed-9292-5f9b7da8682f" x1="144" y1="56" x2="72" y2="56"/><line class="ee7b6f86-37e3-485f-805c-0a842b8a7921" x1="144" y1="25" x2="72" y2="25"/><line class="ee7b6f86-37e3-485f-805c-0a842b8a7921" x1="144" y1="61" x2="72" y2="61"/><line class="a951ed54-0f2c-45ed-9292-5f9b7da8682f" x1="144" y1="30" x2="72" y2="30"/><line class="a951ed54-0f2c-45ed-9292-5f9b7da8682f" x1="144" y1="66" x2="72" y2="66"/><line class="a951ed54-0f2c-45ed-9292-5f9b7da8682f" x1="144" y1="18" x2="72" y2="18"/><line class="a951ed54-0f2c-45ed-9292-5f9b7da8682f" x1="144" y1="54" x2="72" y2="54"/><line class="ee7b6f86-37e3-485f-805c-0a842b8a7921" x1="144" y1="23" x2="72" y2="23"/><line class="ee7b6f86-37e3-485f-805c-0a842b8a7921" x1="144" y1="59" x2="72" y2="59"/><line class="a951ed54-0f2c-45ed-9292-5f9b7da8682f" x1="144" y1="28" x2="72" y2="28"/><line class="a951ed54-0f2c-45ed-9292-5f9b7da8682f" x1="144" y1="64" x2="72" y2="64"/><rect class="ba0fd617-f630-4da9-be39-2e3ad31dffb2" width="72" height="72"/><line class="ee7b6f86-37e3-485f-805c-0a842b8a7921" x1="72" y1="6" y2="6"/><line class="ee7b6f86-37e3-485f-805c-0a842b8a7921" x1="72" y1="42" y2="42"/><line class="a951ed54-0f2c-45ed-9292-5f9b7da8682f" x1="72" y1="20" y2="20"/><line class="a951ed54-0f2c-45ed-9292-5f9b7da8682f" x1="72" y1="56" y2="56"/><line class="ee7b6f86-37e3-485f-805c-0a842b8a7921" x1="72" y1="25" y2="25"/><line class="ee7b6f86-37e3-485f-805c-0a842b8a7921" x1="72" y1="61" y2="61"/><line class="a951ed54-0f2c-45ed-9292-5f9b7da8682f" x1="72" y1="30" y2="30"/><line class="a951ed54-0f2c-45ed-9292-5f9b7da8682f" x1="72" y1="66" y2="66"/><line class="a951ed54-0f2c-45ed-9292-5f9b7da8682f" x1="72" y1="18" y2="18"/><line class="a951ed54-0f2c-45ed-9292-5f9b7da8682f" x1="72" y1="54" y2="54"/><line class="ee7b6f86-37e3-485f-805c-0a842b8a7921" x1="72" y1="23" y2="23"/><line class="ee7b6f86-37e3-485f-805c-0a842b8a7921" x1="72" y1="59" y2="59"/><line class="a951ed54-0f2c-45ed-9292-5f9b7da8682f" x1="72" y1="28" y2="28"/><line class="a951ed54-0f2c-45ed-9292-5f9b7da8682f" x1="72" y1="64" y2="64"/><line class="f85fe316-b618-489b-b3c8-707eead77e66" x1="20" x2="20" y2="72"/><line class="f85fe316-b618-489b-b3c8-707eead77e66" x1="56" x2="56" y2="72"/><line class="ee7b6f86-37e3-485f-805c-0a842b8a7921" x1="25" x2="25" y2="72"/><line class="ee7b6f86-37e3-485f-805c-0a842b8a7921" x1="61" x2="61" y2="72"/><line class="f85fe316-b618-489b-b3c8-707eead77e66" x1="30" x2="30" y2="72"/><line class="f85fe316-b618-489b-b3c8-707eead77e66" x1="66" x2="66" y2="72"/><line class="f85fe316-b618-489b-b3c8-707eead77e66" x1="18" x2="18" y2="72"/><line class="f85fe316-b618-489b-b3c8-707eead77e66" x1="54" x2="54" y2="72"/><line class="ee7b6f86-37e3-485f-805c-0a842b8a7921" x1="23" x2="23" y2="72"/><line class="ee7b6f86-37e3-485f-805c-0a842b8a7921" x1="59" x2="59" y2="72"/><line class="f85fe316-b618-489b-b3c8-707eead77e66" x1="28" x2="28" y2="72"/><line class="f85fe316-b618-489b-b3c8-707eead77e66" x1="64" x2="64" y2="72"/><line class="ee7b6f86-37e3-485f-805c-0a842b8a7921" x1="42" x2="42" y2="72"/><line class="ee7b6f86-37e3-485f-805c-0a842b8a7921" x1="6" x2="6" y2="72"/><line class="ee7b6f86-37e3-485f-805c-0a842b8a7921" y1="6" x2="-72" y2="6"/><line class="ee7b6f86-37e3-485f-805c-0a842b8a7921" y1="42" x2="-72" y2="42"/><line class="a951ed54-0f2c-45ed-9292-5f9b7da8682f" y1="20" x2="-72" y2="20"/><line class="a951ed54-0f2c-45ed-9292-5f9b7da8682f" y1="56" x2="-72" y2="56"/><line class="ee7b6f86-37e3-485f-805c-0a842b8a7921" y1="25" x2="-72" y2="25"/><line class="ee7b6f86-37e3-485f-805c-0a842b8a7921" y1="61" x2="-72" y2="61"/><line class="a951ed54-0f2c-45ed-9292-5f9b7da8682f" y1="30" x2="-72" y2="30"/><line class="a951ed54-0f2c-45ed-9292-5f9b7da8682f" y1="66" x2="-72" y2="66"/><line class="a951ed54-0f2c-45ed-9292-5f9b7da8682f" y1="18" x2="-72" y2="18"/><line class="a951ed54-0f2c-45ed-9292-5f9b7da8682f" y1="54" x2="-72" y2="54"/><line class="ee7b6f86-37e3-485f-805c-0a842b8a7921" y1="23" x2="-72" y2="23"/><line class="ee7b6f86-37e3-485f-805c-0a842b8a7921" y1="59" x2="-72" y2="59"/><line class="a951ed54-0f2c-45ed-9292-5f9b7da8682f" y1="28" x2="-72" y2="28"/><line class="a951ed54-0f2c-45ed-9292-5f9b7da8682f" y1="64" x2="-72" y2="64"/><line class="f85fe316-b618-489b-b3c8-707eead77e66" x1="20" y1="-72" x2="20"/><line class="f85fe316-b618-489b-b3c8-707eead77e66" x1="56" y1="-72" x2="56"/><line class="ee7b6f86-37e3-485f-805c-0a842b8a7921" x1="25" y1="-72" x2="25"/><line class="ee7b6f86-37e3-485f-805c-0a842b8a7921" x1="61" y1="-72" x2="61"/><line class="f85fe316-b618-489b-b3c8-707eead77e66" x1="30" y1="-72" x2="30"/><line class="f85fe316-b618-489b-b3c8-707eead77e66" x1="66" y1="-72" x2="66"/><line class="f85fe316-b618-489b-b3c8-707eead77e66" x1="18" y1="-72" x2="18"/><line class="f85fe316-b618-489b-b3c8-707eead77e66" x1="54" y1="-72" x2="54"/><line class="ee7b6f86-37e3-485f-805c-0a842b8a7921" x1="23" y1="-72" x2="23"/><line class="ee7b6f86-37e3-485f-805c-0a842b8a7921" x1="59" y1="-72" x2="59"/><line class="f85fe316-b618-489b-b3c8-707eead77e66" x1="28" y1="-72" x2="28"/><line class="f85fe316-b618-489b-b3c8-707eead77e66" x1="64" y1="-72" x2="64"/><line class="ee7b6f86-37e3-485f-805c-0a842b8a7921" x1="42" y1="-72" x2="42"/><line class="ee7b6f86-37e3-485f-805c-0a842b8a7921" x1="6" y1="-72" x2="6"/></pattern></defs><g id="b9c576ad-3c95-4b24-8a68-b1b42dde4393" data-name="Background"><rect x="0.13" y="0.13" width="511.75" height="511.75" rx="89.88"/><path d="M422,.25A90,90,0,0,1,511.75,90V422A90,90,0,0,1,422,511.75H90A90,90,0,0,1,.25,422V90A90,90,0,0,1,90,.25H422M422,0H90C40.5,0,0,40.5,0,90V422c0,49.5,40.5,90,90,90H422c49.5,0,90-40.5,90-90V90c0-49.5-40.5-90-90-90Z"/></g><g id="bd52a2cb-8b22-4095-9cef-06364da8a0d2" data-name="Circle_Object"><path class="eec81ee2-5cff-460c-af23-71aa15ca76da" d="M256,508.5c-62.89,0-121.85-23.89-166-67.26-44.33-43.56-68.75-102-68.75-164.49A234.75,234.75,0,0,1,422,110.76a233.21,233.21,0,0,1,68.76,166c0,62.52-24.42,120.93-68.75,164.49C377.85,484.61,318.89,508.5,256,508.5Z"/><path d="M256,42.5A234.06,234.06,0,0,1,490.25,276.75c0,62.38-24.36,120.67-68.6,164.13a232.23,232.23,0,0,1-74.46,49.18,240.73,240.73,0,0,1-182.38,0,232.23,232.23,0,0,1-74.46-49.18c-44.24-43.46-68.6-101.75-68.6-164.13A234.06,234.06,0,0,1,256,42.5m0-1C126.08,41.5,20.75,146.83,20.75,276.75S126.08,509,256,509,491.25,406.67,491.25,276.75,385.92,41.5,256,41.5Z"/></g><path id="be7b910a-3839-44ad-ae89-4e09644a6cb7" data-name="Right_White_Reflection" class="b3aee9dc-f2e7-46af-b00c-abb52516f323" d="M215,167c0-1.14,4-1.3,5-1.74a18.57,18.57,0,0,1,3-1.26,2.56,2.56,0,0,1,1.58.29c.27.08.59,1,.59,1s-3.47,1.49-4.63,2a8.46,8.46,0,0,1-2.65.77C217.36,168,215,167.53,215,167Z"/><path id="aa107c0e-6d5d-4b23-89a9-f01b757a0035" data-name="Left_Cheek_Outside_Reflection" class="fa55e121-0f1d-4ffb-9bc9-c9e7d6d54598" d="M116.87,175.15s-.09,5.89,0,7.85c.14,3,1.67,6.71,2.13,5,.33-1.21,1.48-3.65,2.54-4.31a4.8,4.8,0,0,1,2.81,0,26.86,26.86,0,0,1,4.65,2.6,11.63,11.63,0,0,0-.1-3.47c-.42-.92-2.24-2-2.9-2.82-.23-.27-.65-.92-1-1-.61-.14-1.77.65-2.37.85-.9.3-3.63,1.15-3.63,1.15a11.31,11.31,0,0,1,1-1c.7-.53,2.48-1.29,3-2s1-4,1-4a33.45,33.45,0,0,1-4,1.26,24.82,24.82,0,0,1-3.13-.11"/><path id="b863c68e-b5ad-4b47-8c84-6c5a551f46b9" data-name="Left_Eye_Inner_Accent_2" class="a0c520a3-d9a4-4884-8fc8-e92f7431395a" d="M156.7,170.88s-1.94-2.9-2.48-3.93c-.28-.53-.95-2.2-.95-2.2A1.4,1.4,0,0,0,153,163a12.61,12.61,0,0,0-3-2,25.14,25.14,0,0,0-4-2,5.13,5.13,0,0,0-2,0,22.09,22.09,0,0,0-4-1c-1.1-.1-8.94,1.67-10,2-.24.08-8.35,4.5-8,5,.14.19-.8,3.1,0,3,2.81-.36,10-5,10-5s5.93-1.59,6.87-1.5a28.78,28.78,0,0,1,5.54,1.11,36.38,36.38,0,0,1,5.33,2.85c.91.59,2.68,1.87,3.53,2.54s3.43,2.88,3.43,2.88"/><path id="a3243c92-0c32-4bda-9e8b-51ce2c9ffdee" data-name="Left_Eye_Ring_Bottom_Hazel" class="fac59d11-1476-4633-aa0e-16e1761561c3" d="M133,171a5.72,5.72,0,0,0,1,1,3.11,3.11,0,0,0,2,0,2.75,2.75,0,0,0,.79-1.12,13.37,13.37,0,0,0,.42-1.88l1.79-2,.76.23s.05,1.57,0,2.09a20.11,20.11,0,0,1-.76,3.44,3.73,3.73,0,0,1-1.11,1.67A4.74,4.74,0,0,1,136,175a18.26,18.26,0,0,1-3,0,9.29,9.29,0,0,1-2.19-1,2.89,2.89,0,0,1-.81-2c.09-.34,1-1,1-1"/><path id="b4940472-13a3-4ba6-8e93-38c95dd4ed40" data-name="Left_Eyeball_Yellow_Reflection" class="bb147b7a-f104-4795-b2f0-45f73bd0cac0" d="M131,171a1,1,0,0,1-1,1c-.24,0-.83-.64-1-1s0-.69,0-1c0-.55.45,0,1,0A1,1,0,0,1,131,171Z"/><path id="a6a5ca19-e400-4d4c-8425-1594ed749403" data-name="Left_Nostril_Yellow_Reflection" class="b8b4d880-8247-4563-b1ce-381060c80cfe" d="M163,220.32c.37-.18,2.08-.92,2-1.32-.17-.85-5-3.21-5-2,0,.78.39,3.52,1,4C161.39,221.31,162.55,220.53,163,220.32Z"/><path id="e308518b-f171-4cc6-b9f0-096e7f7782bb" data-name="Main_Forehead_Skintone" class="fa55e121-0f1d-4ffb-9bc9-c9e7d6d54598" d="M216,125s-3.74.83-5,1a10.14,10.14,0,0,0-1.46.5s.4-3.38,0-4.4a7.49,7.49,0,0,0-2.67-2.89c-1.11-.57-3.75-1.78-4.87-1.21-.5.25-1,2-1,2l-3-5a78,78,0,0,0,6.43-4.55,25,25,0,0,0,4.34-5.24c.93-1.91,2.49-6.1,2.23-8.21s-2.15-6.72-3.91-8.14S200.38,86,198,85.65c-2.59-.41-7.87-.47-10.46-.89-1.67-.27-4.85-1.66-6.54-1.76-1.22-.07-3.88.08-4.8.87S174,89,174,89a18.6,18.6,0,0,1-4,2c-1,.28-1.54-.45-2.07-.24A14.33,14.33,0,0,0,163,94.47c-.83,1.24-1.38,4.27-2,5.63-.74,1.62-3.34,4.24-4,5.9s-.44,5.59-.79,7.42c-.4,2-1.16,6.71-2.94,7.79-.7.42-2.46-.3-3.27-.21-1.11.12-3.59,1-4,2a5.16,5.16,0,0,0,1,4c1.16,1.11,4.39,2,5.94,2.43,1,.26,2.92,1.09,3.93,1A9.17,9.17,0,0,0,158,130a3.35,3.35,0,0,1,1,0c1,.16,3,.72,4,1s3,1.3,4,1a3.87,3.87,0,0,0,2-2c.52-2.1-.86-6.44-1.27-8.57A57.76,57.76,0,0,1,167,115a17.69,17.69,0,0,1,0-4.24c.4-1.37,1.71-4.24,3-4.89,1.59-.8,5.41-.5,7.11,0A71.54,71.54,0,0,1,184,109a40,40,0,0,0-5.77.21c-.77.17-2.6.52-2.91,1.24a3.83,3.83,0,0,0,.88,3,17,17,0,0,0,3.59,1.82s-3,.17-3.79.76-1.51,3-2,4c-.4.81-1.82,2.12-2,3a6.7,6.7,0,0,0,.85,3.76,19,19,0,0,0,4.15,3.69c1.42.92,5.92,3.27,5.92,3.27s-2.53,1.44-2.92,2.28a5.68,5.68,0,0,0,.13,3c.3.9,1.62,3.4,1.62,3.4s-4,3-5.55,3.4-4.83.07-6.44,0-5.07-.06-6.76,0c-1.31,0-4-.11-5.22.28a28.41,28.41,0,0,0-4.51,2.71A20.34,20.34,0,0,0,153,146c-.31-1.07-1.15-3.27-2-4a14.58,14.58,0,0,0-5-2,64.65,64.65,0,0,0-7.05-1c-2.81-.17-8.45,0-11.26,0-2.42,0-7.46-.95-9.69,0-1.34.57-4,4.24-4,4.24s.81-4.67,1-6.24c.33-2.49,1.14-7.49,1-10a44.42,44.42,0,0,0-1-4.9s7.2-8,9.36-10.89c1.77-2.34,5.23-7.12,6.45-9.78C131.94,99,133.93,93.73,134,91c.07-2.5-1.19-7.42-2-9.79-.44-1.33-2-5.21-2-5.21s2.65-4.14,4-5a9.1,9.1,0,0,1,4-1,29.61,29.61,0,0,1,4,1,48.76,48.76,0,0,0,6,1,52.22,52.22,0,0,0,6,0,38.1,38.1,0,0,0,7-1c2.43-.84,6.7-3.85,9-5a59.65,59.65,0,0,1,8-3c2.22-.62,6.75-1.51,9-2,1.63-.35,4.85-1.26,6.5-1.5A60.42,60.42,0,0,1,202,59c1.13,0,3.37.55,4.5.5A43.09,43.09,0,0,0,213,58c1.61-.42,4.86-1.2,6.5-1.5a50.43,50.43,0,0,1,7-1,32.38,32.38,0,0,1,7,1c1.82.56,7,3,7,3s-5,2.92-6.49,4.15A54.66,54.66,0,0,0,228,70c-1.33,1.69-4.51,4.91-5,7-.81,3.44.31,10.89,2,14,1.6,3,7.32,7.08,9,10,1.92,3.32,3.36,11.07,3.65,14.89.19,2.56,0,10.25,0,10.25s-2.72-1.64-3.66-2.12c-2.19-1.12-4.54-.08-7,0-1.12,0-3,0-6,0a29,29,0,0,0-5,1"/><path id="e91c2959-e740-4ac8-a2b1-28451e18f2a8" data-name="Left_Forhead_Yellow_Reflection" class="b8b4d880-8247-4563-b1ce-381060c80cfe" d="M115,122.1s.18-7.1,0-6.1c-.26,1.51-1,14.54-1,16.05-.06,3.25-1,12.95-1,12.95a14.74,14.74,0,0,0,1-1.76,36.26,36.26,0,0,0,1-6.24c.26-2.5,1.13-7.49,1-10a42.15,42.15,0,0,0-1-4.9"/><path id="bd4919c4-a7cd-42ce-8a47-a25a2e0a682f" data-name="Nose_Bridge_Reflection" class="b3aee9dc-f2e7-46af-b00c-abb52516f323" d="M175,158c.75.24,2,2.21,2,3a13.5,13.5,0,0,1-1,4.26,9.65,9.65,0,0,1-2,2,36.59,36.59,0,0,1-1-4.61,7.72,7.72,0,0,1,0-2.67C173.25,159.28,174.33,157.79,175,158Z"/><path id="bee70bb1-4227-4e26-9aff-70e4ae2230e4" data-name="Nose_Reflection" class="b3aee9dc-f2e7-46af-b00c-abb52516f323" d="M174,180c.48-.61,3.36-.44,4,0,.84.58,1.14,4,1,5-.19,1.41-2.36,3.73-3,5-.74,1.46-1.44,4.47-2,6a16.87,16.87,0,0,0-1,4c-.16,1.76,0,4.23,0,6,0,.93,0,3.63,0,5,0,.89-.91,2.4-1,3a1.37,1.37,0,0,1-1,1c-.83.29-3.56-1.24-4-2-.53-.91-.08-3.95,0-5,.1-1.27,1.57-3.8,2-5,.28-.78.74-2.22,1-3,.57-1.7.51-4.27,1-6s1.72-5.25,2-7a19.8,19.8,0,0,0,0-4A8.25,8.25,0,0,1,174,180Z"/><path id="a78967e0-f95b-41d3-99d9-3cfb647359ea" data-name="Beard_Stubble" class="fa55e121-0f1d-4ffb-9bc9-c9e7d6d54598" d="M146,230c-4-1-3.33,6.7-6,6-1.74-.46-4.7-2.75-6-4-.9-.87-2.69-3-4-3-3,0-6.5-3.94-6.5-3.94s7.36,17.28,10,22.93c2.27,4.8,7.26,14.2,10,18.75,2.27,3.77,7.41,10.95,9.73,14.69,2.52,4,7.22,12.38,10.23,16.07,1.79,2.19,6.08,5.92,8,8A13.45,13.45,0,0,0,174,308a37.5,37.5,0,0,0,8,3c3.71.59,15,1,15,1a81.4,81.4,0,0,0,17,0c11-1.22,15.15-3.77,20-7,6-4,16.92-12,22-17a145.47,145.47,0,0,0,10-12c2.95-3.86,8.36-11.93,11-16,2.92-4.5,8.48-14.85,10-20,.92-3.13.87-9.74,1-13,.11-2.75,1-3.25,1-6,0-2,5.91-9,6-11,.15-3.26-7-15-7-15l4-18-3-13s-3.68,2.88-4.5,2.5a20.94,20.94,0,0,0-3.85-1c-1.27-.23-9.65-1.5-9.65-1.5l1,15,2,2s-5,8.17-7,11c-5,7-8,21.5-14,26-4.81,3.61-14.29,6.85-23,8-5.77.76-11,1.59-15,0-2.8-1.12-11-5-11-5s5.35,2.19,7.09,3a57.43,57.43,0,0,1,8.91,5.14c1.92,1.55,4,4.86,6,7.84a4.25,4.25,0,0,1,0,3c-.49,1.06-2.66,2.27-3.57,3s-3.21,2.36-4.49,2.52a13,13,0,0,1-3.59-1A3.43,3.43,0,0,1,215,246c0,2-2.76,4.43-4,6-1.09,1.37-4.23,3.07-6,5-1.49,1.62-2.94,5-4,6-1.51,1.46-5.58,3.46-7,5-1.08,1.18-2.73,4-4,5s-2.46.67-4,1a19.8,19.8,0,0,1-4,0c-1.45-.09-4.7-.34-6-1-1-.53-1.27-2.09-2-3-.9-1.13-3.17-4.81-4-6s-2.43-1.73-3-3-1.1-3.3-1.91-4.27-3.26-2-4.17-2.86A37.4,37.4,0,0,1,158,250a12.78,12.78,0,0,1-3,1c-1.7.1-2.84-1.68-3.91-3-.91-1.14-2.62-3.75-2.66-5.21S151,237,151,237"/><path id="bf9cd975-8416-4ead-8cf1-66158b6098d5" data-name="Lower_Lip_Shadow" class="b8b4d880-8247-4563-b1ce-381060c80cfe" d="M211.09,253s-6.38,7.26-8.66,9.54c-1.49,1.48-4.74,4.14-6.22,5.63-1.14,1.13-2.92,3.88-4.21,4.83a17.91,17.91,0,0,1-5.83,2.43,18.91,18.91,0,0,1-4,0c-1.44-.19-4.42-.49-5.69-1.19a14.79,14.79,0,0,1-3.34-3.27c-.86-1.16-3.11-4.89-3.11-4.89a15.52,15.52,0,0,0,2.89,1.92c1.35.41,4.22.07,5.63,0,1.62-.08,4.91.32,6.5,0a25.53,25.53,0,0,0,4.32-1.92c2-.95,6.12-2.42,8-3.54,1.07-.64,2.89-2.39,3.91-3.11s3.42-1.9,4.52-2.58c1.4-.87,5.34-3.85,5.34-3.85"/><path id="f61cd5e0-9123-400d-b831-9ac6676e45f7" data-name="Top_Lip_Outline" class="b8b4d880-8247-4563-b1ce-381060c80cfe" d="M158,250s1.11-2.41,2-3c1.12-.74,4.8-1.4,6-2,.85-.43,2.2-1.9,3.09-2.22a5.89,5.89,0,0,1,2.89,0c.57.2,1.45,1.13,2,1.31a6.62,6.62,0,0,0,3-.09c1-.32,2.75-1.51,3.71-1.91a12.56,12.56,0,0,1,4.16-1.09c1.25.1,3.45,1.5,4.67,1.78a27.12,27.12,0,0,0,5.33,0c1.41-.05,4.22,0,5.63,0s3.95,0,5.25.2c1.08.15,3.18.81,4.25,1s3.4,0,4.35.54a7.69,7.69,0,0,1,1.41,2s-6.56-1.17-8.76-1.5c-2-.3-6-.88-8-1-2.5-.15-7.51.18-10,0-1.52-.11-4.49-1.16-6-1-1.89.2-5.1,2.83-7,3-1.57.14-4.43-2.15-6-2-1.24.12-3,2.31-4,3-1.78,1.18-8,3-8,3"/><path id="bc2d763f-52a2-4f6d-9a8b-a5b86c5497c8" data-name="Left_Top_Vest" class="a5bfa11a-2e0b-48df-a395-0bb2b28674c3" d="M70.5,358.5s35.09-19.21,45-28c2.25-2,5.68-7.08,8-9,9-7.44,40-24,40-24l-4,42s-5.29,8.29-8,10c-5.65,3.55-19.5,4.51-26,6-7.17,1.64-21.84,5-28,9-2.52,1.64-8,9-8,9s-8.79-11.74-13-14C75.16,358.78,70.5,358.5,70.5,358.5Z"/><polyline id="e7951c4e-2cce-4a2a-a451-0908252c6637" data-name="Left_White_Shirt_Chest" class="bb147b7a-f104-4795-b2f0-45f73bd0cac0" points="243 475 236 455 233 446 229 438 229 433 233 426 236 421 234 418 235 412 239 408 245 406 248.5 403.5 254 408 256 408 261 414 265 419 268 422 265 429 258 434 253 445 249 459 244 472"/><path id="b9fccc01-526a-421c-905e-aae4a84e6401" data-name="Left_Top_Vest_Flap" class="eec81ee2-5cff-460c-af23-71aa15ca76da" d="M160.92,324.62,159.5,339.5s2.24,30.27,4,40.22c1.93,10.88,7.87,32.19,11,42.78,1.93,6.52,8,26,8,26l20,8,25-26S219.18,410.77,212,394c-2.8-6.54-5.77-13.76-7.5-17.5-.94-2-4-8-4-8Z"/><path id="a029f9f3-f5d4-4939-af60-ba7bdb9c18c3" data-name="Left_Shirt_Collar_Darkest_Shadow" class="f23032d8-3288-4da2-9b6d-c72004caf2db" d="M178.5,311.5,187,315l5,7,7,10,8,7,14,7,12,7s-6.84,2.94-10,4c-2.55.86-10.4,2.32-13,3-1.35.35-4.73,1.57-6,1-1.68-.75-3.33-4.22-5-5-1-.45-4.23-1.56-4.23-1.56Z"/><path id="e7669e36-8318-4092-9209-c7285c150f51" data-name="Left_Shirt_Collar_Lightest" class="bb147b7a-f104-4795-b2f0-45f73bd0cac0" d="M227.5,430.5l-12.76-29.95L204.5,376.5a34.09,34.09,0,0,0,5.5.5c1.45-.17,3.87-3.08,5-4,2.48-2,5.54-6,8-8,2.09-1.71,6.49-5,9-6,3.32-1.34,15-2,15-2l8,1s-4.57,7.23-6,10-2.32,6.88-4,11-5,12-5,12l-2,11-5,17Z"/><path id="f186f005-75d3-4eb2-b05c-38f6ca67a653" data-name="Left_Shirt_Collar_Medium_Shadow" class="e1a8a86c-b82c-4b58-a821-15f4407c5d4a" d="M247,357l-14-4s-9.84,1.93-13,3c-2.55.86-7.39,3.34-10,4a12.33,12.33,0,0,1-5.57,0c-1.72-.67-3.81-4.12-5.43-5-.94-.51-4.23-.56-4.23-.56s4.16,10.6,5.73,14.06c.92,2,4,8,4,8s4.09,1.69,5.5,1.5,3.91-2,5-3c2.38-2.11,6.56-7,9-9,2.07-1.73,6.49-5,9-6C236.32,358.67,247,357,247,357Z"/><path id="a9761994-cf18-4408-9f30-33280f89562e" data-name="Right_White_Shirt_Chest" class="bb147b7a-f104-4795-b2f0-45f73bd0cac0" d="M290,419s-.39-6,0-8c.33-1.74,1.7-5.26,2-7,.22-1.26.52-4.82,1-6,.58-1.44,2.42-3.56,3-5,.45-1.11.69-3.84,1-5a24.53,24.53,0,0,1,2-3s2.95,4.28,4,5a24.74,24.74,0,0,0,5,2,16.23,16.23,0,0,1,2.43,1.75s1.62,4.68,1.57,6.25c-.2,6.57-.64,23.77-1,35-.31,9.71-.57,14.06-.57,14.06s-6.3-9.81-8.43-13.06c-1.48-2.26-4.44-6.79-6-9-1.45-2-6-8-6-8"/><path id="ab3be2c2-484b-4278-a96d-36752ab04e5e" data-name="Medium_Chin_Shadow" class="b8b4d880-8247-4563-b1ce-381060c80cfe" d="M299,222s-.24,11.63,0,15.5c.14,2.14.81,6.38,1.13,8.5.27,1.75,1.19,7,1.19,7A107.82,107.82,0,0,1,297,263c-1.69,2.88-4.53,9-6,12-1,2.1-3.2,4.81-4,7-.63,1.71-2.48,5.26-3,7-.84,2.8-2.63,9.41-4,12-1,1.9-3.76,6.24-5,8a133.57,133.57,0,0,1-9,11c-2.61,2.81-8.64,9.15-12,11-2.53,1.4-8.14,2.58-11,3-2.56.38-11.61-1-11.61-1a12,12,0,0,1,1.61,2c.63,1.44,2.51,2.51,4,3a72.92,72.92,0,0,0,8.32,1.5s-.56,3.77-1.39,4.67-4.54,1.78-4.54,1.78,4.22,3,5.61,4.05c1,.73,2.91,2.24,3.87,3,1.55,1.23,6.13,5,6.13,5s-6-.6-8-1c-.78-.16-3.07-.88-3.07-.88L243,353,237,349l-7.25-3.94-4.58-5.56L224,331l-9.65-3.13-11.85-4.44-9-3.56L187,315l-8-3-5-4s6,1.68,8,2c3.71.58,14,1,15,1a84.57,84.57,0,0,0,17,0c11.65-1.16,16-4,19-6,3.36-2.24,19.6-15.41,22-18,2.65-2.87,7.63-8.9,10-12,2.95-3.86,8.36-11.93,11-16,2.92-4.5,8.48-13.85,10-19,.92-3.13.87-9.74,1-13,.11-2.75,0-8.25,0-11,0-2,1.9-6.5,2-5,.14,2.06.85,6.29,2,8,.82,1.21,3.6,2.61,5,3A14.55,14.55,0,0,0,299,222Z"/><path id="f2674d48-b298-4c83-86eb-a4836cad761d" data-name="Top_Lip" class="ab30dda3-e0a9-43f3-a6d5-589d2a93e81b" d="M158,250s6.22-1.82,8-3c1-.69,2.76-2.88,4-3,1.57-.15,4.43,2.14,6,2,1.9-.17,5.11-2.8,7-3,1.51-.16,4.48.87,6,1,2.49.21,7.5-.11,10,0,2,.09,6,.7,8,1,2.2.33,8.76,1.5,8.76,1.5S210,248.6,208,249c-2.79.56-8.51.75-11.35,1a63.27,63.27,0,0,0-7.65,1c-1.76.45-5.18,2-7,2-2.3,0-6.7-2-9-2-1.52,0-4.48,1-6,1-1.09,0-5.11,0-7,0h-1Z"/><path id="ba3092e2-3d29-4a62-8292-9ac75053c1f1" data-name="Bottom_Lip" class="ab30dda3-e0a9-43f3-a6d5-589d2a93e81b" d="M160.92,253.87l.62,0a17.62,17.62,0,0,1,2,0c1,.14,3,.84,4,.63.81-.17,2.12-1.34,2.93-1.5,2.53-.5,7.7.66,10.28.75a25.35,25.35,0,0,0,4.61,0c1.6-.35,4.55-2,6.18-2.25,1.38-.21,4.21.19,5.59,0,1.12-.15,3.28-.92,4.41-1,1.73-.12,5.26.46,6.93,0s5.92-3.54,5.92-3.54-4.53,4.84-6.37,6-6.22,2.63-8,4c-1.11.87-2.8,3.26-4,4-1.48.92-5,1.67-6.5,2.5-1.28.7-3.59,2.63-5,3s-4.5-.09-6,0c-1.29.08-4,.49-5.18,0s-2.95-2.93-3.82-4c-1.14-1.41-3.09-4.52-4.41-5.77A40.65,40.65,0,0,0,160.92,253.87Z"/><path id="a2b88b87-6618-464b-9b9b-e58c0126f8b2" data-name="Left_Chest_Shirt_Shadow" class="e1a8a86c-b82c-4b58-a821-15f4407c5d4a" d="M227.5,430.5l2.25,2s3.72-4.42,4.75-6c.84-1.34,2-6,2-6a18.81,18.81,0,0,1-2-4c-.15-1,1-4,1-4a28.31,28.31,0,0,1,3-3c1.58-1.07,5.39-2,7-3a24.89,24.89,0,0,0,3-3s3.51,4.05,5,5c.56.36,1.94.57,2.5.93,1.13.73,2.69,3,3.5,4.07,1,1.28,3,3.74,4,5,.77,1,2.5,3.5,2.5,3.5s.88-2.93.5-4c-.93-2.6-5-6.58-7-8.52s-5.93-6.08-8-8c-1.69-1.57-5.29-4.46-7-6-1.32-1.19-5.11-4.94-5.11-4.94S237.88,400.7,237,404C235.19,410.8,227.5,430.5,227.5,430.5Z"/><path id="a139bc60-d22d-4df7-8aba-c5cafd44cf8c" data-name="Right_Chest_Shirt_Shadow" class="e1a8a86c-b82c-4b58-a821-15f4407c5d4a" d="M290,419s1.6-6,2-8c.34-1.73.76-5.25,1-7a24,24,0,0,1,1-5c.63-1.42,2.82-3.78,3.32-5.25.38-1.14.32-3.61.68-4.75a19,19,0,0,1,1-2,41.16,41.16,0,0,0,3.65,3.56A31.93,31.93,0,0,0,308,393c.59.23,2.43.75,2.43.75v-7.88s-3.12-3.61-4.43-4.87-4.51-3.61-5.79-4.68c-.75-.64-3.21-2.32-3.21-2.32a82,82,0,0,1-2,9c-.76,2-3.12,5.58-3.91,7.56A89.8,89.8,0,0,0,288,402a76.67,76.67,0,0,0-1,8c-.11,1.74,0,7,0,7Z"/><polygon id="bace3491-1f87-4841-b58c-02fc25a39028" data-name="Top_Shirt_Button_Shadow" class="bb147b7a-f104-4795-b2f0-45f73bd0cac0" points="245 372 254 371 256.09 366.54 261 364 264.87 360 252.82 361.41 245 372"/><polygon id="eb1ffcad-3195-481c-a53b-2ac76dc83f81" data-name="Top_Shirt_Button_Clip" class="bb147b7a-f104-4795-b2f0-45f73bd0cac0" points="252.82 361.41 264.87 360 267.54 357 261.54 357 256.2 359.2 255 358 252.82 361.41"/><path id="a361eebb-62c2-4497-b921-ade89bb2f2fc" data-name="Right_Shirt_Collar_Darkest_Shadow" class="f23032d8-3288-4da2-9b6d-c72004caf2db" d="M301.32,253l7.68,3,5,6,2,5s-3.64-3.61-5-3c-.9.41-.57,2.5-.57,2.5v2L311,270v5l-.57,5.09L305.5,264.5Z"/><path id="e5ada02c-f5d6-4730-9675-e40df2205bea" data-name="Right_Collar" class="eec81ee2-5cff-460c-af23-71aa15ca76da" d="M341,292c2.29,8.17,6.13,24.72,8,33,3.77,16.69,14,67,14,67l-21,14.12L310,400V386s.91-15.43,2-32c1.18-18,2.6-37.53,4-48,.32-2.38,1.74-8.61,2-11,.23-2.12,0-9,0-9s1.28-4.41,1-6a12.7,12.7,0,0,1,0-2s7.43-.71,10-1c1.76-.2,7-1,7-1S339.87,288,341,292Z"/><polygon id="f2820059-b13a-4980-bc46-9f87c493b9d3" data-name="Left_Lower_Vest_Flap" class="eec81ee2-5cff-460c-af23-71aa15ca76da" points="182 480 202.5 456.5 227.5 430.5 229.75 432.54 231 438 234 446 237 454 244 472 250 490 258 512 199 512 182 480"/><polygon id="a2653fed-dda5-4665-985a-e4ec4de73560" data-name="Right_Lower_Vest_Flap" class="eec81ee2-5cff-460c-af23-71aa15ca76da" points="310 400 378 413 352 512 313 512 310 445 310 400"/><path id="bfdcd59a-602e-45b2-a9ef-459c6ab334ab" data-name="Right_Top_Shoulder_Vest_Reflection" class="eec81ee2-5cff-460c-af23-71aa15ca76da" d="M403.54,280.09s-13.69-1.07-18.08,0A28.28,28.28,0,0,0,376,285c-2.22,2.1-4.21,8.77-7,10-1.17.51-4.37.11-5-1-2.25-4,2.36-14.37,0-18.28-1.31-2.17-6.48-5.06-9-4.72-1.79.24-4.25,3.58-6,4-1.26.3-3.71-1.27-5-1.35-2.08-.13-6,1.79-8,2.35a52.91,52.91,0,0,1-7,1c-2.57.23-10.31.84-10.31.84L315,268s24.5,3.76,32,2c2.51-.59,8.51-2.47,9-5,.35-1.77-3.89-4.2-4-6-.1-1.6,2.49-4.46,4-5,3.58-1.29,11.44-.21,15.24,0,4.29.24,13.28-1.79,17.19,0,2.52,1.16,5.55,6.24,7.11,8.54,1.29,1.92,4.46,5.37,5.46,7.46C402.12,272.35,403.54,280.09,403.54,280.09Z"/><path id="bf7f677a-396f-4b0b-b291-6f02c9d62fd2" data-name="Right_Top_Shoulder_Vest_Shadow" class="a5bfa11a-2e0b-48df-a395-0bb2b28674c3" d="M441,246s-24.73-2.55-33-3c-5.49-.3-16.51-.28-22,0-4.77.25-14.25,1.48-19,2s-14.24,1.63-19,2c-4.24.33-12.76.67-17,1s-12.79,1.26-17,2c-3.21.57-12.68,3-12.68,3s5.12,2.6,6.66,3.73a24.93,24.93,0,0,1,4.52,4.77c.77,1.15,1.7,3.79,2.37,5,.3.53-.87,3.5-.87,3.5s25.5,1.76,33,0c2.51-.59,8.51-2.47,9-5,.35-1.77-3.76-4.21-4-6-.21-1.59,2.55-4.32,4-5,3.45-1.61,11.44.26,15.24,0,4.29-.29,13.3-1.82,17.19,0,2.51,1.18,5.33,6.41,7.11,8.54C397,264.31,400,267.91,401,270c1.11,2.36,2.54,10.09,2.54,10.09S407,272.55,408,270c.55-1.35,1.68-4.39,3-5,.68-.31,2.37.41,3,0,2.89-1.86,4.34-9.53,6.72-12,1.83-1.9,6.79-4.13,9.28-5S441,246,441,246Z"/><path id="bd593a36-64d4-4ef0-ab28-15b22bdf44e8" data-name="Gap_Between_Lips" class="e4997dca-b7f5-4764-93ea-798d16e4a8cd" d="M158,250l1,2s6.7,0,8,0c1.52,0,4.48-1,6-1,2.3,0,6.7,2,9,2,1.82,0,5.24-1.55,7-2a63.27,63.27,0,0,1,7.65-1c2.84-.25,8.56-.44,11.35-1,1.63-.33,6.35-2,6.35-2s-4.25,3.11-5.92,3.54-5.21-.19-6.93,0c-1.12.13-3.29.85-4.41,1a30.71,30.71,0,0,1-3.59,0,13.35,13.35,0,0,0-2,0c-1.62.29-4.57,1.92-6.18,2.25a22.91,22.91,0,0,1-4.61,0l-2.21-.16c-2-.15-6.09-1-8.07-.59-.81.16-2.12,1.33-2.93,1.5-1,.2-3-.49-4-.63-.64-.08-2,.28-2.58,0C159.82,253.36,158,250,158,250Z"/><path id="e797a759-fdad-441f-afa2-5ec618ca84c2" data-name="Right_Vest_Shimmer" class="eec81ee2-5cff-460c-af23-71aa15ca76da" d="M376.36,412.69s3.21-19.24,4.07-25.69c.79-6,1.73-18,2.57-24,.78-5.54,2.38-16.65,4-22a71.66,71.66,0,0,1,5-12,50.48,50.48,0,0,1,6-8c.9-.87,2.77-2.78,4-3,1-.18,3.38.17,4,1,1.65,2.21,1,8.24,1,11,0,3.26.83,9.74,1,13,.34,6.74,0,20.25,0,27,0,13.5.3,40.52,1,54,.49,9.52,3,38,3,38s10.5-23,13-31c1.45-4.63,2.35-14.44,4-19a64.77,64.77,0,0,1,8-14c.67-.82,3-3,3-3l4,8s-1.44,4.52-2,6c-1.82,4.82-6.74,14-8,19-.74,2.92-.68,9-1,12-1.31,12.14-6.47,36.05-9,48-1.27,6-4,24-4,24H393s3.29-30,4-40c.54-7.73.79-23.25,1-31,.19-7,.87-21,1-28,.11-5.5-.05-16.5,0-22,.09-10.5,1.59-31.51,1-42-.1-1.76-1-7-1-7s-3.34,5.1-4,7c-1.08,3.11-1.48,9.75-2,13-.77,4.75-2.41,14.23-3,19-.9,7.23-2,21.78-3,29-1,7-3.73,21-5,28-1,5.68-3.26,17.6-7,22-.67.79-3.17,1.61-4,1s-.15-3,0-4c.63-4.14,3.82-12,5-16,.65-2.21,1.59-6.73,2-9,.55-3,2.13-9,2-12a20,20,0,0,0-1-4l-1-3Z"/><path id="a4278484-45db-4d0a-9294-6add64e93bbd" data-name="Right_Vest_Bottom_Dark" class="a5bfa11a-2e0b-48df-a395-0bb2b28674c3" d="M451,470c1.29,4.63,6.28,13,9,17,2.12,3.09,9,12,9,12s-10.65,5.74-14,7a140.08,140.08,0,0,1-19,5c-3.25.5-16,1-16,1s2.81-18,4-24c2.37-12,7.39-35.9,9-48,.4-3,.31-9.07,1-12,1.19-5,6.05-14.23,8-19,.6-1.46,2-6,2-6s3.51,9.06,4.87,12c.71,1.54,3.13,6,3.13,6s-1.84,15.73-2,21C449.79,449,449.12,463.25,451,470Z"/><path id="fa2fdd30-a11a-4fd7-96c5-37aca3188471" data-name="Right_Vest_Middle_Dark" class="f4a9fd12-0f8f-4e33-aa3b-6edff2920130" d="M371,461c.81.63,3.33-.21,4-1,3.73-4.41,6-16.32,7-22,1.27-7,4-21,5-28,1-7.22,2.1-21.77,3-29,.59-4.77,2.23-14.25,3-19,.52-3.25.92-9.89,2-13,.66-1.9,4-7,4-7s.9,5.24,1,7c.62,10.48-.73,31.5-1,42-.14,5.5.07,16.5,0,22-.1,7-.74,21-1,28-.29,7.75-.46,23.26-1,31-.7,10-4,40-4,40H352l26-99,1,3a20,20,0,0,1,1,4c.13,3-1.44,9-2,12-.42,2.27-1.39,6.78-2,9-1.11,4-3.9,12-5,16C370.74,458,370.21,460.38,371,461Z"/><path id="be2fa191-dd02-4d14-9aea-a0dd42a1cb18" data-name="Right_Vest_Top_Dark" class="a5bfa11a-2e0b-48df-a395-0bb2b28674c3" d="M440,395s-2.33,2.17-3,3a68.61,68.61,0,0,0-8,14c-1.73,4.54-2.67,14.33-4,19-2.29,8.08-13,31-13,31s-2.54-28.48-3-38c-.66-13.49-.94-40.5-1-54,0-6.75.25-20.25,0-27-.12-3.26-.71-9.75-1-13-.25-2.75.8-8.9-1-11a5.29,5.29,0,0,0-4-1,12.42,12.42,0,0,0-4,3,59,59,0,0,0-6,8,73.6,73.6,0,0,0-5,12,212.62,212.62,0,0,0-4,22c-.77,6-1.8,18-2.57,24-.83,6.45-4.07,25.69-4.07,25.69L342,406.12,363,392s-10.23-50.31-14-67c-1.87-8.28-5.71-24.83-8-33-1.13-4-5-16-5-16s5.92-2.48,8-2.35c1.29.08,3.74,1.65,5,1.35,1.75-.42,4.21-3.76,6-4,2.52-.34,7.69,2.55,9,4.72,2.36,3.91-2.6,14.52,0,18.28.73,1.05,3.89,1.63,5,1,2.65-1.51,4.78-7.9,7-10a28.28,28.28,0,0,1,9.46-4.91c4.39-1.07,18.08,0,18.08,0S409.3,294.21,411,299c3,8.35,8.05,25.36,10,34,1.24,5.45,2.69,16.56,4,22,1.44,6.08,5.28,18,7,24a65.06,65.06,0,0,0,3,9A74.83,74.83,0,0,0,440,395Z"/><path id="b1f0a432-183b-41a7-bc1f-94fb251a14c7" data-name="Left_Vest_Bottom_Dark" class="a5bfa11a-2e0b-48df-a395-0bb2b28674c3" d="M89.5,373.5s5.5-7.32,8-9c6.1-4.11,20.82-7.43,28-9,6.52-1.43,20.35-2.45,26-6,2.71-1.7,8-10,8-10s2.24,30.27,4,40.22c1.93,10.88,7.87,32.19,11,42.78,1.93,6.52,8,26,8,26l20,8L182,480l17,32H117s-2-24.78-3-33-4.12-24.83-6-33c-1.28-5.56-4.61-16.47-6-22-1.51-6-4.2-18.08-6-24-.92-3-3.23-8.93-4-12C91.1,384.43,89.5,373.5,89.5,373.5Z"/><path id="bec7129a-44a1-408a-9700-e2260512b051" data-name="Tie" class="e67d0f59-5f61-4c9e-bd2e-53ae55b99036" d="M254,368.5c1-.34,3-1.14,4-1.5,4-1.45,16.21-5.59,16.21-5.59s5.91,1.76,7.79,2.59a80.34,80.34,0,0,1,13,8c.55.44,2,2,2,2a82,82,0,0,1-2,9c-.76,2-3.12,5.58-3.91,7.56A89.8,89.8,0,0,0,288,402a76.67,76.67,0,0,0-1,8c-.11,1.74,0,7,0,7a28.93,28.93,0,0,1,3,2c1.82,1.71,4.55,6,6,8,1.56,2.21,4.52,6.74,6,9,2.13,3.25,8.43,13.06,8.43,13.06L313,509H257s-5.11-13.48-7-19c-1.54-4.49-6-18-6-18s3-10.49,4-14,2.74-10.58,4-14c1.08-2.94,6-11,6-11l6-5a52.25,52.25,0,0,0,2-6c.17-1,.78-3,.5-4-.77-2.65-5.16-6.46-7-8.52s-5.92-6.09-8-8c-1.7-1.56-5.3-4.45-7-6-1.31-1.2-5.11-4.94-5.11-4.94l8.14-20.2S252.39,369,254,368.5Z"/><path id="b00b0123-f553-44c7-92fe-306a1e4d096f" data-name="Tie" class="e12412f5-8d9a-4693-b134-4b975dd8ff07" d="M254,368.5c1-.34,3-1.14,4-1.5,4-1.45,15-6,15-6s8.12,1.17,10,2c3.49,1.54,9,6.63,12,9,.55.44,2,2,2,2a82,82,0,0,1-2,9c-.76,2-3.12,5.58-3.91,7.56A89.8,89.8,0,0,0,288,402a76.67,76.67,0,0,0-1,8c-.11,1.74,0,7,0,7a28.93,28.93,0,0,1,3,2c1.82,1.71,4.55,6,6,8,1.56,2.21,4.52,6.74,6,9,2.13,3.25,8.43,13.06,8.43,13.06L313,512H258s-6.11-16.48-8-22c-1.54-4.49-6-18-6-18s3-10.49,4-14,2.74-10.58,4-14c1.08-2.94,6-11,6-11l6-5a52.25,52.25,0,0,0,2-6c.17-1,.78-3,.5-4-.77-2.65-5.16-6.46-7-8.52s-5.92-6.09-8-8c-1.7-1.56-5.3-4.45-7-6-1.31-1.2-5.11-4.94-5.11-4.94l8.14-20.2S252.39,369,254,368.5Z"/><path id="e78b42f4-420d-45c6-a774-6ba82d4d6c74" data-name="Left_Sleave" class="bfc8bdb0-4a57-49ef-a7d4-927e7188f2e0" d="M70.5,358.5c1.52,0,4.66.28,6,1,4.21,2.26,13,14,13,14S91.08,384.44,92,388c.79,3.06,3.12,9,4,12,1.71,5.94,4.4,18,6,24,1.47,5.51,4.7,16.45,6,22,1.92,8.16,4.87,24.69,6,33s3,33,3,33H92a115.19,115.19,0,0,1-30-4c-10.85-2.93-29.55-15.59-37-24-4.92-5.56-17.66-22.51-17-25,.89-3.39,2.08-13.61,3-17s4.44-9,6-12c1.88-3.58,6-10.95,6.09-15,0-1.83-1.93-5.18-2.09-7a29.35,29.35,0,0,1,1-7c.44-1.85,1.83-5.4,2.28-7.25.35-1.46.78-4.58,1.72-5.75,1.26-1.57,5.28-3,7-4a122.7,122.7,0,0,0,13-9c3.46-3,9.35-10.21,13-13a22.77,22.77,0,0,1,5.58-2.79A27.31,27.31,0,0,1,70.5,358.5Z"/><path id="a8bd9617-a678-41b7-8c51-f9e55cf74dfc" data-name="Right_Sleave" class="bfc8bdb0-4a57-49ef-a7d4-927e7188f2e0" d="M451,470c-1.81-6.77-1.47-21-1-28,.35-5.26,2-21,2-21s-2.42-4.46-3.13-6c-1.36-2.94-3.56-9-4.87-12-.91-2-2.83-6.09-4-8s-4-5.1-5-7c-1.1-2.1-2.35-6.72-3-9-1.7-6-5.56-17.92-7-24-1.29-5.44-2.74-16.55-4-22-2-8.64-7-25.65-10-34-1.7-4.79-7.46-18.91-7.46-18.91s3.19-7.64,4.46-10.09c.67-1.29,1.72-4.29,3-5,.66-.36,2.33.33,3,0,3.09-1.51,4.5-9.38,6.72-12,1.71-2,6.75-4.28,9.28-5,2.69-.77,8.21-2.16,11-2,1.51.09,4.33,1.37,5.82,1.58,2.77.39,8.39-.42,11.18-.58,3.24-.19,9.81-.65,13,0a40.61,40.61,0,0,1,10,4,83.47,83.47,0,0,1,10,8c3.87,3.69,11.23,11.48,14.76,15.5,1.6,1.82,5.24,6.5,5.24,6.5l1,152s-2,13-5,20c-2.11,4.93-4.94,12.59-8,17-3.64,5.23-11.49,15.49-16,20-5,5-14,9-14,9l-9-12S452.24,474.65,451,470Z"/><path id="fa80c743-f6c7-4b2b-9877-17e330d93898" data-name="Left_Eyebrow_Shadow" class="fa55e121-0f1d-4ffb-9bc9-c9e7d6d54598" d="M153,153c0,1,3.9,1.82,5,2.72a12.18,12.18,0,0,1,2.92,4.28c.18.61,1.08,8,1.08,8s-2.73-2.49-4-4c-.54-.64.57-.75,0-1-1.63-.73-4.13-2.6-5-3a33.51,33.51,0,0,1-4-2,28.46,28.46,0,0,0-5-2c-2.34-.87-7.54-.57-10-1a41.72,41.72,0,0,0-7-1c-1.82.08-4.35-.77-6,0-1.25.59-3,3.08-4,4a27,27,0,0,1-4,2s.69-3,1-4a13.77,13.77,0,0,1,2-4c1.14-1.23,4.37-2.62,6-3,2.19-.51,6.75.06,9,0a53.41,53.41,0,0,1,8,0c2.34.4,6.71,2.39,9,3,1.23.33,5,1,5,1"/><path id="bdef63ac-1653-4b53-98ca-d5af2a7e0af9" data-name="Nose_Shadow" class="b8b4d880-8247-4563-b1ce-381060c80cfe" d="M163,224s2.91,7.54,4,10a20.07,20.07,0,0,0,3,5,10.08,10.08,0,0,0,5,2,12.6,12.6,0,0,0,6-2c1.63-1.28,3.93-4.83,5.17-6.5A51.43,51.43,0,0,1,192,226c1.38-1.17,4.58-2.88,6-4,.83-.66,3-3,3-3v-5.79a20.36,20.36,0,0,1-4,2.79c-1.42.49-4.57-.46-6,0a29.71,29.71,0,0,0-8,5c-1.25,1.25-2.55,4-4,5a13.53,13.53,0,0,1-6,2c-1.35,0-3.83-1.34-5-2A47.16,47.16,0,0,0,163,224Z"/><path id="b37d8633-a0fa-4d0c-9030-af84b01718e3" data-name="Right_Eyebrow_Shadow" class="b8b4d880-8247-4563-b1ce-381060c80cfe" d="M209,142c1.69-.76,5.08-2.23,6.76-3,1.07-.49,4.24-2,4.24-2s-10.54.41-14,1a73.18,73.18,0,0,0-10,3c-1.27.48-4,2-4,2s4.53,1.54,6,2c.75.24,3.29,1.35,4,1,2-1,2.16-1.81,3.54-2.42Z"/><polygon id="b4221299-f106-42a7-ba22-783231201aad" data-name="Darkest_Chin_Shadow" class="b8b4d880-8247-4563-b1ce-381060c80cfe" points="187 315 193.5 319.87 202.5 323.43 214.35 327.87 224 331 225.17 339.5 229.75 345.06 237 349 242.95 353 243.93 356.12 233 353 219 348 206 341 197.91 333 191 323 187 315"/><path id="f103bc96-1acb-45c4-a409-d62e29e2e6f7" data-name="Light_Chin_Shadow" class="fa55e121-0f1d-4ffb-9bc9-c9e7d6d54598" d="M298,273c.49-1.1,1.22-3.42,1.83-4.46a63.52,63.52,0,0,1,5-6L301.32,253s-5.06,7.05-6.52,9.54c-1.69,2.88-4.53,8.93-5.93,12-1,2.12-3.06,6.31-3.87,8.5-.63,1.71-1.46,5.26-2,7-.87,2.79-2.62,8.42-4,11a71.27,71.27,0,0,1-5,7c-2.31,3-6.47,9.44-9.13,12.17s-8.61,7.78-12.05,9.48A46,46,0,0,1,241.76,333c-2.57.31-10.37,0-10.37,0a8,8,0,0,0,0,2.75c.71,1.4,3.52,3.36,5,3.75,2.15.55,8.89,0,8.89,0s-.56,3.77-1.39,4.67-4.54,1.78-4.54,1.78,4.22,3,5.61,4.05c1,.73,2.92,2.24,3.87,3s3.95,3.22,3.95,3.22,7.78-12.49,10.27-16.72C274,321,290,291,298,273Z"/><path id="acf19ff0-ca31-4df9-8dd7-bd3393a8b617" data-name="Neck_Skintone" class="b3aee9dc-f2e7-46af-b00c-abb52516f323" d="M307,277c-.18-4-1-10.92-1-10.92s-.37-1.19-.5-1.58-.71-2-.71-2a68.34,68.34,0,0,0-5,6c-.62,1-1.35,3.36-1.83,4.46-7.52,17.2-25.43,50.29-34.91,66.5-2.47,4.24-10.27,16.72-10.27,16.72s1.66,1.31,2.18,1.78c.32.29,1.2,1.21,1.2,1.21l5.34-2.21h6a49.62,49.62,0,0,0,4.46-3,77.2,77.2,0,0,0,6-6c1.51-1.81,9.83-13.17,11.32-15A189.42,189.42,0,0,0,304,310a25.82,25.82,0,0,0,2.83-10.31C307.2,295.28,307.2,281.42,307,277Z"/><polygon id="a77cafde-4723-433a-a7f3-897c7be86163" data-name="Right_Collar_Neck_Shadow" class="b8b4d880-8247-4563-b1ce-381060c80cfe" points="310.43 280.1 306 266.08 306 282 306.83 299.69 310 291 311 284 310.43 280.1"/><path id="a9fb0cc1-0f7d-4ccb-be2b-a7f7c180afed" data-name="Right_Ear_Inner_Shadow" class="fa55e121-0f1d-4ffb-9bc9-c9e7d6d54598" d="M300,198c-.51,1.14-4,3-4,3s-3.69-1-4-2a19.15,19.15,0,0,1,0-7c.51-1.47,2-5,2-5s.8-5.26,1-7c.18-1.57,1.51-4.5,2-6,.32-1,1.72-3,2-4a48.52,48.52,0,0,1,2-6c.78-1.64,1.88-4.57,3-6,.64-.82.89-2.9,2-4s3.67-1.24,4.43-1.83c1-.8,3.27-3.18,4.57-3.17s4.25,1.9,5,3,1.8,5,1,6c-.63.78-3.07.63-4,1a18.84,18.84,0,0,0-2,1s-5.56.89-7,2-1.94,5.42-3,7c-.69,1-3.22,2-4,3-.5.62-1.23,2.24-1,3,.3,1,2.68,2,3,3,.48,1.51-.78,5-2,6-.61.51-2.72.26-3,1-.44,1.17,2.65,2.8,3,4,.22.76-.81,2.23-1,3C299.63,193.45,300.62,196.63,300,198Z"/><path id="a637fe76-ee68-45c9-a1fc-46a01bb7e13c" data-name="Left_Cheek_Yellow_Reflection" class="b8b4d880-8247-4563-b1ce-381060c80cfe" d="M130,229c-3,0-6.5-3.94-6.5-3.94S118.73,207.88,118,202a58.39,58.39,0,0,1,0-7c.06-1.77-1-13-1-12a29.26,29.26,0,0,0,1,4c.66,2.54,2.77,7.19,3,8,.3,1.08,1.64,2.94,2,4,.77,2.27.41,6.68,1,9,.65,2.55,4.12,7.52,5,10,.57,1.61,1.07,4.79,1.61,7.36C131,227,131.09,229,130,229Z"/><path id="f26917af-c63f-4497-ab7b-075644f67690" data-name="Right_Ear_Outer_Shadow" class="b3aee9dc-f2e7-46af-b00c-abb52516f323" d="M305,210c1.4,0,2.83-4.15,3.49-5.39.49-.9,1-3.15,1.94-3.61.61-.31,2,1.31,2.57,1,1.24-.64,2.6-4.43,3.21-5.68.71-1.48,2.56-4.69,2.79-6.32a46.33,46.33,0,0,0,0-5c0-2.74-.07-8.26,0-11a52.11,52.11,0,0,0,0-8,14.55,14.55,0,0,0-2-4c-.3-.44-2-3-2-3s-2.63-.39-3,0-.92,4.69-1,6c-.11,1.71-.05,4.78,0,6,0,.75.91,2.25,1,3,.12,1-.25,3,0,4,.61,2.47,2.05,7.45,2,10,0,1.82-1.2,4.37-2,6l-2,4s-2.23.83-3,1-2.39-.44-3,0-.73,3.26-1,4a10.35,10.35,0,0,0,0,4C303.11,207.7,304.29,210,305,210Z"/><path id="ae881ea0-ef56-46e5-ac65-b8196ebbb8bd" data-name="Middle_Ear_Skintone" class="b8b4d880-8247-4563-b1ce-381060c80cfe" d="M312,159c-.94-.61-3.08,1.1-4,2-1.37,1.33-2.77,5.54-4,7-.81,1-2.18,2.06-3,3-.52.6-2.24,3.25-2,4,.32,1,2.67,2,3,3,.49,1.5-.76,4-2,5-.62.49-2.82.23-3,1-.28,1.22,2.85,3.76,3,5,.1.78-.94,2.21-1,3-.11,1.5,0,3.5,0,5,0,1-3,4-3,4s7,8.3,7,6c0-2,.81-3,1-4,.15-.78.33-2.57,1-3s2.3.26,3,0c1.66-.61,4.1-3.48,5-5a18.9,18.9,0,0,0,2-7c0-2.55-1.4-7.52-2-10-.24-1-.85-3-1-4a18.78,18.78,0,0,1,0-3c.09-1.29-.21-3.71,0-6C312.24,162.4,313.26,159.82,312,159Z"/><path id="a57ab11f-65f5-4421-bdee-b80900609a7f" data-name="Left_Ear_Skintone" class="fa55e121-0f1d-4ffb-9bc9-c9e7d6d54598" d="M299,222a14.55,14.55,0,0,1-3,0c-1.4-.39-4.18-1.79-5-3-1.15-1.71-1.86-5.94-2-8-.1-1.5-.08-4.5,0-6a33,33,0,0,0-1-10,94,94,0,0,1,1-12c.68-4.76.28-12.72-1.5-14.5-1.09-1.09-.25-4.66,0-6.18s1-4.69,2-5.82c.76-.82,3-1.56,4-2s3-1.43,4-2c.78-.46,3-2,3-2s1,10.16.5,13.5c-.23,1.56-1.56,4.48-2,6-.29,1-.72,3-1,4-.43,1.52-2,4.42-2,6,0,1.35.47,6.48,0,7a16.21,16.21,0,0,0-3,5.47c-.29,1.35-.57,4.27,0,5.53.44,1,3,3,3,3Z"/><polygon id="b1e31e73-35bd-4bcb-bf7f-ea0e5ed7ca74" data-name="Left_Top_Vest_Shadow" class="a5bfa11a-2e0b-48df-a395-0bb2b28674c3" points="200.5 368.5 160.92 324.62 163.5 297.5 171.5 305.5 178.5 311.5 191 342 200.5 368.5"/><path id="ac9f97b2-1b80-4226-9be4-381bb4e42be0" data-name="Right_Ear_Skintone" class="fa55e121-0f1d-4ffb-9bc9-c9e7d6d54598" d="M300.5,150.5s3.25-1.21,4.29-1.71c1.41-.69,4.12-2.38,5.64-2.79a13.23,13.23,0,0,1,4.57,0,15.62,15.62,0,0,1,6.22,3.5c1.13,1.24,2.06,4.58,2.61,6.16.71,2,1.72,6.23,2.17,8.34a50.13,50.13,0,0,1,1,8,59.27,59.27,0,0,1-1,7,89.21,89.21,0,0,1-2,9,128,128,0,0,1-10.25,22.24,49.37,49.37,0,0,1-5.66,6.52,29.88,29.88,0,0,1-5.11,3.85,34.62,34.62,0,0,1-4,1.39l-3-21s1.53,1.42,3,3,2.9,3.34,4,3,0,2,2,2c.37,0,2-2,3-4s1.65-3.78,2-4c.63-.4,2.3.26,3,0,1.66-.62,2-3,3-5a18.08,18.08,0,0,0,2-6c.12-2.55,0-5,0-5s.12-10,0-11c-.09-.75,0-7.25,0-8-.13-2.61-3-6-3-6h0c.31-.27-2.28-1.42-2-2s3.54-.82,4-1c.93-.37,3.37.78,4,0,.8-1-.79-3.78-1.5-4.83a7.87,7.87,0,0,0-4.63-2.67c-1.29,0-3.41,1.89-4.44,2.67a40,40,0,0,0-5.64,5.63c-1.13,1.43-3.79,6.2-3.79,6.2Z"/><path id="bbcac6c0-5ec5-40ec-a55b-60b338791d1b" data-name="Lower_Lip_Outline" class="b8b4d880-8247-4563-b1ce-381060c80cfe" d="M215.76,246.5A3.59,3.59,0,0,1,215,249a31.94,31.94,0,0,1-3.91,4,37.16,37.16,0,0,1-5.34,3.85c-1.11.67-2.67,2.43-3.75,3.15s-2.94,2.34-4,3a74.6,74.6,0,0,1-8,4c-1.09.45-2.85,1.75-4,2-1.59.34-5.88-.94-7.5-1-1.41-.05-3.15,1.4-4.5,1a18.11,18.11,0,0,1-4-2.92,25.94,25.94,0,0,1-3.11-4.64c-.55-1.13-1.78-4.71-1.78-4.71a49.12,49.12,0,0,1,4.41,5.77c.71,1.19,2.54,3.47,3.82,4s3.89.08,5.18,0c1.5-.09,4.55.39,6,0s3.72-2.3,5-3c1.53-.83,5-1.58,6.5-2.5,1.2-.74,2.89-3.13,4-4,1.76-1.37,6.08-2.84,8-4,1.22-.74,4.23-4.43,6-6C215.4,245.77,215.76,246.5,215.76,246.5Z"/><path id="bcabb786-7c30-426a-88a7-3dd185a604fe" data-name="Mustache_Stubble" class="fa55e121-0f1d-4ffb-9bc9-c9e7d6d54598" d="M163,224s-3.61,5-5,6.54c-1.6,1.76-5.93,4.33-7,6.46-.5,1-1.16,2-1.69,3a5.59,5.59,0,0,0-.88,2.74c.09,1.46,1.75,4.07,2.66,5.21,1.07,1.33,2.21,3.11,3.91,3,.94-.06,2.47-.22,3-1s1.09-2.44,2-3c1.14-.71,4.8-1.4,6-2,.85-.43,2.2-1.9,3.09-2.22a5.89,5.89,0,0,1,2.89,0c.57.2,1.45,1.13,2,1.31a6.62,6.62,0,0,0,3-.09c1-.32,2.75-1.51,3.71-1.91a12.56,12.56,0,0,1,4.16-1.09c1.25.1,3.45,1.5,4.67,1.78a27.12,27.12,0,0,0,5.33,0c1.41-.05,4.22,0,5.63,0s3.95,0,5.25.2c1.08.15,3.18.81,4.25,1s3.27.34,4.35.54c.91.17,2.67,1.06,3.59,1,1.28-.15,3.48-1.72,4.49-2.52s3.08-1.92,3.57-3a5.1,5.1,0,0,0,0-3,27,27,0,0,0-6-7.84,57.43,57.43,0,0,0-8.91-5.14c-1.74-.81-5.39-2.1-7.09-3-.8-.42-3-2-3-2s-2.18,2.33-3,3c-1.39,1.14-4.62,2.84-6,4a50.75,50.75,0,0,0-5.83,6.5c-1.24,1.66-3.55,5.2-5.17,6.5a11.71,11.71,0,0,1-6,2,11,11,0,0,1-5-2,19.89,19.89,0,0,1-3-5C165.91,231.54,163,224,163,224Z"/><path id="f89192b6-5a31-464b-9450-452c309e2963" data-name="Right_Cheek_Reflection" class="b3aee9dc-f2e7-46af-b00c-abb52516f323" d="M233.32,175.26s-5.59,4.15-7.32,5.74a17.81,17.81,0,0,1-6,3,29.15,29.15,0,0,1-7.52.46A36.37,36.37,0,0,1,208,183s2.19,4.44,3,5a22.79,22.79,0,0,0,6,3c2.26.48,7.83.79,10,0,1.48-.54,4.09-3.72,5-5a16.33,16.33,0,0,0,2-5C234.24,179.48,233.32,175.26,233.32,175.26Z"/><path id="e6296bae-2552-42b9-860f-52b3e32dde20" data-name="Forehead_Reflection_1" class="b3aee9dc-f2e7-46af-b00c-abb52516f323" d="M169,130c.52-2.1-.86-6.44-1.27-8.57A57.76,57.76,0,0,1,167,115a17.69,17.69,0,0,1,0-4.24c.4-1.37,1.71-4.24,3-4.89,1.59-.8,5.25,0,7,.13,1.25.09,5.74,3,7,3,3.22,0,8,0,11-3,1.08-1.08,1.49-4.56,1-6a18.84,18.84,0,0,0-4-5.53,19.67,19.67,0,0,0-4.37-3.26A16.56,16.56,0,0,0,183,90c-1.08-.09-2.49.25-3.21.1C178.35,89.79,174,89,174,89s-4.33,3.46-5,5c-.87,2-1.64,6.27-3,8a5.08,5.08,0,0,1-2,2c-1.47.64-3.65,2-4,3-.42,1.15,2.37,2.94,3,4,.22.37-.34.47,0,1,.56.89,2,2.31,2,3,0,1.06-2.25,3.24-3,4s-1.39,1.29-2,2a11.93,11.93,0,0,0-2,4.21c-.14.76-.42,4.14,0,4.79.19.3.6-.27,1,0,1.2.82,3,.68,4,1s3,1.3,4,1A3.87,3.87,0,0,0,169,130Z"/><path id="af6e1207-a8ca-4981-a123-6c5160ce3bc2" data-name="Forehead_Reflection_2" class="b3aee9dc-f2e7-46af-b00c-abb52516f323" d="M176,116c-.18.3-1.57,1.23-2,2a2.63,2.63,0,0,0,0,2,5.27,5.27,0,0,0,1,2,13.44,13.44,0,0,0,2,2c1.89,1.3,6.71,1.07,9,1a4.33,4.33,0,0,1,2,0,15.44,15.44,0,0,0,4,1c1,0,2.71.09,4,0,1.74-.12,2.59-.51,3-1s.66-.29,1-1c.52-1.09,2.12-3.22,2-4-.21-1.44-2.81-4.16-4-5a12.37,12.37,0,0,0-6-2,32.5,32.5,0,0,0-6,0,37.53,37.53,0,0,0-4,1c-.78.24-.45,1-1,1C179,115,176.67,114.93,176,116Z"/><path id="f4502da6-e3f8-4768-a35f-780045d99b7a" data-name="Left_Forehead_Shadow" class="fa55e121-0f1d-4ffb-9bc9-c9e7d6d54598" d="M130,76s-2.28,3.73-3,5c-.93,1.64-2.68,5-3.54,6.65s-2.75,5-3.48,6.82c-.64,1.58-1.63,4.86-2.06,6.51-.53,2-1.54,6-1.92,8-.32,1.74-.89,5.24-1,7-.1,1.52,0,6.1,0,6.1s7.2-8,9.36-10.89c1.77-2.34,5.23-7.12,6.45-9.78C131.94,99,133.93,93.73,134,91c.07-2.5-1.19-7.42-2-9.79C131.58,79.88,130,76,130,76Z"/><path id="a45d66c6-efff-41af-85e1-a8c46301e2b1" data-name="Right_Forehead_Shadow" class="fa55e121-0f1d-4ffb-9bc9-c9e7d6d54598" d="M278,164s-7.79,4.19-9,5c-1.45,1-5,6-5,6s-5.2-8.59-6-11a36.54,36.54,0,0,1-1-4c-.32-1.88-2.8-6.43-3-10-.09-1.67,2.2-3.13,2-4a33.06,33.06,0,0,0-2-5.39c-.64-1.62-2.13-4.88-3.33-6.16C249.27,133,245.72,131,244,130s-6.34-3.88-6.34-3.88S236.31,118.54,236,116c-.46-3.8-2.14-10.65-4-14-1.63-2.94-6.46-8-8-11-1.62-3.14-3-10.61-2-14,.62-2.06,2.58-6.38,4-8s6.32-4,8-5.35c1.48-1.23,7-4.65,7-4.65s8.43,2.47,10,4c1.17,1.14,2.12,5.63,3,7a25.64,25.64,0,0,1,2,3,27.89,27.89,0,0,1,2,8c0,2-1.67,8-2,10-.25,1.5.1,5.48,0,7-.22,3.37,1.11,9.74,2,13,.44,1.62,2.31,4.47,3,6,.81,1.8,1.33,3.14,2,5a82.56,82.56,0,0,0,3,8c.87,1.58,2.29,5.34,3,7a59.76,59.76,0,0,1,3,9c.54,2.55,2.36,7.47,3,10A75,75,0,0,0,278,164Z"/><path id="f6295daf-6fef-4691-b162-30ac35ff625e" data-name="Nose_Bridge_Shadow" class="fa55e121-0f1d-4ffb-9bc9-c9e7d6d54598" d="M153,153s-.24-3.29.27-4.21A12.67,12.67,0,0,1,158,145c1.25-.38,5,0,5,0s5.31-.08,7,0,4.65,1.24,6.2.8,5.55-3.4,5.55-3.4l1.17,1.88s-2.72,3.75-3.13,5.22a17.22,17.22,0,0,0,0,3.5s-8.09-1.27-10.79-1a38.18,38.18,0,0,0-6,1.87c-1.26.43-5,1.85-5,1.85a32.14,32.14,0,0,1-5-1.72C152.71,153.8,153,153,153,153Z"/><path id="f89c6758-730f-4701-b5b4-99909a03338f" data-name="Medium_Forehead_Tone_1" class="fa55e121-0f1d-4ffb-9bc9-c9e7d6d54598" d="M182.92,133.72s-4.54-2.29-5.92-3.27c-1.13-.8-3.71-2.37-4.15-3.69-.11-.35-1.64-.18-1.85-.76s.82-2.21,1-3a7,7,0,0,1,2-3s1.93,3.15,3,3.65c2.07,1,6.88-.1,9.17,0,1.5.07,4.34,1.24,5.83,1.35,1.76.13,5.6.08,7-1,.88-.69,2-4,2-4s.49-1.77,1-2,1.09-1.3,2-1,2.27,2,2.87,2.21a3.76,3.76,0,0,1,2.67,2.89c.37,1,1.46,3.9,1.46,3.9s-4.07.74-5,1c-1.7.47-5.26,1.7-7,2-2,.35-6,1.4-8,2S182.92,133.72,182.92,133.72Z"/><path id="a951da6f-847f-4ac2-8d39-651fd898c2e0" data-name="Medium_Forehead_Tone_2" class="fa55e121-0f1d-4ffb-9bc9-c9e7d6d54598" d="M198,115s5.52-1.7,7-3a51.93,51.93,0,0,0,6-7c1.07-1.84,1.07-5.87,1-8s-3.36-8.45-5-10-6.63-2.54-9-3c-2.57-.5-7.43-.48-10-1-1.66-.33-5.32-1.8-7-2-1.21-.14-6.05,2.24-7,3s0,5,0,5,4.33.93,5.79,1.12c2,.25,6,.38,7.84,1.11A20,20,0,0,1,192,94.47a17.91,17.91,0,0,1,4,5.53c.47,1.45,0,4.85-1,6-1.87,2.16-8.15,3-11,3-3,0-4.57-.18-6,0-.79.1-3.62.31-4,1s.5,2.41,1,3c.64.77,4,2,4,2h2s3.85-1.15,5.17-1.35a30.69,30.69,0,0,1,5.83,0C193.53,113.82,198,115,198,115Z"/><path id="bdb76506-660c-4dac-9092-6c842464e7a5" data-name="Medium_Forehead_Tone_3" class="fa55e121-0f1d-4ffb-9bc9-c9e7d6d54598" d="M168,90c1.53-.39,6-1,6-1a42.57,42.57,0,0,0-4,5.49c-.9,2-1.44,6.72-3,8.29-1.24,1.27-5.46,2.09-6,3.78-.37,1.16,1.41,3.38,2,4.44s2,2.9,2,4-1.28,3-2,3.76-2.38,1.54-3,2.24a12,12,0,0,0-2,4.21,7.94,7.94,0,0,0,0,3.11c.35,1,2.28,3.19,2,3.68-.17.3-2.79-1.09-3-1-.93.41-4-.74-5-1-1.55-.41-3.84-.89-5-2-.74-.72-2.38-4-2-5a7.43,7.43,0,0,1,4-3c.81-.09,2.3.43,3,0,1.78-1.08,2.61-5,3-7,.35-1.83.31-5.27,1-7s2.26-5.38,3-7a56.9,56.9,0,0,1,3-6C162.88,91.73,167.07,90.24,168,90Z"/><path id="ae50eaf9-c17f-4896-92c6-c019f8c98d1e" data-name="Left_Eye_Lid_Yellow_Reflection" class="b8b4d880-8247-4563-b1ce-381060c80cfe" d="M113,160s.7,2.31,1,3a68.83,68.83,0,0,1,2,8.43c.11.95.86,3.72.86,3.72s.85-2.6,1-3.5c.38-1.89.66-5.77,1.1-7.65.18-.77,1.41-2.32,1-3C119.09,159.48,113,160,113,160Z"/><path id="ed1fff5e-2aab-4a3b-98de-3cb49b4e9217" data-name="Right_Nostril_Shadow" class="b8b4d880-8247-4563-b1ce-381060c80cfe" d="M186,207.07s2.66-4.47,3.34-6.06a53.54,53.54,0,0,0,2.68-7c.25-1,2-1,2-4a18.63,18.63,0,0,0-3-8c-1.69-2.5-4-3.95-4-3s-.19,5,0,9a66.81,66.81,0,0,1-1,12A60.64,60.64,0,0,0,186,207.07Z"/><path id="b4c2d750-3f6d-4b62-aacb-7123bef3c48b" data-name="Left_Nostril_Shadow" class="b8b4d880-8247-4563-b1ce-381060c80cfe" d="M162,180s1.65,5,2,7a57.26,57.26,0,0,1,1,7c0,1.23-.81,3.78-1,5-.32,2.06-.56,6-1,8a58.2,58.2,0,0,0-1,6,39.55,39.55,0,0,1-1,4.21,45.88,45.88,0,0,1-3-4.21c-.32-.67-.65-1.34-1-2a13.35,13.35,0,0,1-1-5,20.83,20.83,0,0,1,1-5,36.73,36.73,0,0,0,2-7c.13-1.49-.18-4.51,0-6C159.25,186,162,180,162,180Z"/><path id="ee3475d5-dee1-4a44-9549-8de9ff2fccfe" data-name="Right_Eye_Inner_Shadow" class="b8b4d880-8247-4563-b1ce-381060c80cfe" d="M192,143s-5.12,3.27-7,3c-.67-.1-2.08-1.72-2.08-1.72s-2.72,3.75-3.13,5.22a17.22,17.22,0,0,0,0,3.5l5.64-2.5,3.55,1.15a55.77,55.77,0,0,0-3.55,6.33,15.89,15.89,0,0,0-1.43,3,1.59,1.59,0,0,0,.65,1.54A50.69,50.69,0,0,0,191,161a27.27,27.27,0,0,0,5-3l5-4-3-3.5s1.73-1.11,2-1.71a30.6,30.6,0,0,1,2-2.79Z"/><path id="a7c10fdc-e882-47e0-905d-3aae04d68004" data-name="Left_Eyeball_White_Reflection" class="bb147b7a-f104-4795-b2f0-45f73bd0cac0" d="M138,165a1.16,1.16,0,0,0,0,1,3.36,3.36,0,0,0,1,1c.17.1.61.36.76.23s0-.84,0-1.11-.58-.9-.76-1.12A.63.63,0,0,0,138,165Z"/><path id="a1c6a239-6f53-44fc-9639-142db86778f3" data-name="Right_Eyeball_White_Reflection" class="bb147b7a-f104-4795-b2f0-45f73bd0cac0" d="M215,152a1.42,1.42,0,0,1,1.21,0,2.88,2.88,0,0,1,.79,1,1.33,1.33,0,0,1,0,1c-.32.39-1.61.31-2,0A1.94,1.94,0,0,1,215,152Z"/><path id="b57e430f-0ebe-4a5c-ad16-2e431c1255d1" data-name="Medium_Nostril_Shadow" class="fa55e121-0f1d-4ffb-9bc9-c9e7d6d54598" d="M163,224l-.3-1.4-.44-2.08.74-.2s2.94,1.12,4,1.68a46.94,46.94,0,0,0,5,2,14.48,14.48,0,0,0,3,1c.58,0,1.51-.7,2-1a25.23,25.23,0,0,0,3-2c.76-.71,2.05-.92,2.92-1.48,1.05-.68,3-1.93,4.08-2.52.66-.36,2.3-1.72,3-2s1.88.27,2.53.09a18.35,18.35,0,0,0,2.56-1.05,14.77,14.77,0,0,0,3.45-1.83,6.39,6.39,0,0,0,1.26-2.67,10,10,0,0,0-.48-3.47A21.31,21.31,0,0,0,198,205c-.29-.48-2-3-2-3s3.37-.42,4,0a14.54,14.54,0,0,1,2,2,10.81,10.81,0,0,1,1,3,16.4,16.4,0,0,1-1,4,10.48,10.48,0,0,1-1,2.21c-.82,1.1-2.71,3.32-4,3.79s-4.55-.38-6,0c-2.08.54-5.44,3.52-7,5-1.28,1.22-3.5,4.06-5,5-1.34.84-4.42,2.09-6,2-1.34-.07-3.79-1.4-5-2S163,224,163,224Z"/><path id="f8e6059f-9eef-4e69-81d1-ab143d473a3d" data-name="Left Cheek_Shadow" class="fa55e121-0f1d-4ffb-9bc9-c9e7d6d54598" d="M155,217c.62,1.71-.68,5.44-1,7s-.36,5.42-1,7c-.34.83-2.44,2-3,3-.38.65-1.58,2.59-1.58,2.59s-6.42.08-8.42-.59a18.93,18.93,0,0,1-6-4l-4-3a13.56,13.56,0,0,0,.61-3.64c-.17-.83-1-3.27-1-3.27A14.68,14.68,0,0,1,133,223c1.39.9,4.2,2.87,6,3s3.62-1.05,5-2a38.43,38.43,0,0,0,6-5,30.32,30.32,0,0,1,3.27-3S154.84,216.54,155,217Z"/><path id="b36c6374-c601-47c2-adca-394c0944bba2" data-name="Right_Iris" class="a15a2f20-d5c6-4300-89f9-d5a443713402" d="M210,158a5.72,5.72,0,0,0,2,2,2.92,2.92,0,0,0,2,0,2.84,2.84,0,0,0,.72-1.29c.11-.42.22-.28.28-.71s.22-1.95.21-2.28c0-.18-.18-.53-.21-.72a6.68,6.68,0,0,1,0-1c0-.5,0-2,0-2a17.88,17.88,0,0,0-2.52-.14,21.4,21.4,0,0,0-2.78.91,10.41,10.41,0,0,0-.33,2.32A21.08,21.08,0,0,0,210,158Z"/><path id="b5383995-2ed6-4424-9465-5309f3928e55" data-name="Right_Eye_Red" class="ee8a9347-eba1-4e17-b541-026ed9e95234" d="M206,163a26.12,26.12,0,0,0-.23-2.82A6.29,6.29,0,0,0,205,159l-1,2-.92,1.38L202,164Z"/><path id="ac8158c8-f59f-4bdb-9ceb-9be7ed590be4" data-name="Right_Eyeball_Leftside_White" class="f64ae5c9-a7e1-4892-9e43-9c44873feafb" d="M211,162l-5.23.2a9.43,9.43,0,0,0,0-2A6.29,6.29,0,0,0,205,159l.77-3.28s.93,1.71,1.23,2.28a12.45,12.45,0,0,0,1,2A17.62,17.62,0,0,0,211,162Z"/><path id="fdd381f1-b806-4f1d-ba76-81c7a53ffbd4" data-name="Right_Eye_Shadow" class="a0c520a3-d9a4-4884-8fc8-e92f7431395a" d="M197,166s2.34-4.59,2.8-5.7c.62-1.52-2.56-8.84-1.8-10.3.57-1.11,1-1,1-1s5.56-1.79,6-2c.9-.43,5-2,6-2,1.23.05,3.78.79,5,1a10.49,10.49,0,0,1,4,0,43.31,43.31,0,0,1,8,3c3.39,1.6,12,7,10,9-1.71,1.77-6.16-3.77-11-5a136.69,136.69,0,0,0-14.52-2.5c-1.12.06-4.48.5-4.48.5l-1,7-1.23-2.28s-.56,2.47-.77,3.28a13.88,13.88,0,0,1-1,2l-2,3a6.66,6.66,0,0,1-2,2A4.65,4.65,0,0,1,197,166Z"/><path id="e5ddd2fd-d87b-4b15-80b0-7c411eaa0532" data-name="Right_Eyelid_Bottom" class="a0c520a3-d9a4-4884-8fc8-e92f7431395a" d="M205.77,162.2a.78.78,0,0,0,.23.8,5.71,5.71,0,0,0,1.54.36,13.82,13.82,0,0,0,3.46.4c.93,0,2.8.09,3.72,0A32.25,32.25,0,0,0,219,163c1.19-.32,3.51-1.15,4.67-1.55l3.4-1.13a19.3,19.3,0,0,0,3.6-1.3c.45-.3,1.38-1.07,1.44-1.6A3.91,3.91,0,0,0,231,155a22.58,22.58,0,0,0-4-2,21.68,21.68,0,0,1,0,2.72,4.35,4.35,0,0,1-.57,1.68,12.9,12.9,0,0,1-3.78,2.14A24.37,24.37,0,0,1,219,161a16.09,16.09,0,0,0-3,0c-.24.05-.82,1-1,1-1,.13-3,0-4,0C209.69,162,205.77,162.2,205.77,162.2Z"/><path id="aa2fab4e-9906-4faa-9c3e-fb0a704e756a" data-name="Right_Eyeball_Rightside_White" class="f64ae5c9-a7e1-4892-9e43-9c44873feafb" d="M226.43,157.4a12.9,12.9,0,0,1-3.78,2.14A24.37,24.37,0,0,1,219,161c-.49.09-3,1-3,1a28.25,28.25,0,0,0,2-4,14.83,14.83,0,0,0,0-2c0-.5,0-1.5,0-2s.23-1.56,0-2-2.09-1.5-2.09-1.5a31.71,31.71,0,0,1,4.09,0,27.07,27.07,0,0,1,4,1.36c.75.3,3,1.14,3,1.14a21.68,21.68,0,0,1,0,2.72A4.35,4.35,0,0,1,226.43,157.4Z"/><path id="a2d54539-9b09-4bcf-8e4e-e50228199fc5" data-name="Right_Dark_Highlight" class="b8b4d880-8247-4563-b1ce-381060c80cfe" d="M226.23,172s-9.84.28-13.11,0a26.44,26.44,0,0,1-5.12-1.12,59.75,59.75,0,0,1-5.5-2.88s10,1.18,13.26,1.75C218.4,170.21,226.23,172,226.23,172Z"/><path id="bbf95f34-5ee4-4d12-a081-9a996a8fc1ac" data-name="Left_Dark_Highlight" class="b8b4d880-8247-4563-b1ce-381060c80cfe" d="M129,186.29s4,1.71,11-.29c4.9-1.4,10-6,10-6s-4-1-7,1c-1.25.84-6.6,1.44-8,2C134.18,183.33,129,186.29,129,186.29Z"/><path id="b5b4927b-8be6-4aba-b6cb-34f8585318f7" data-name="Right_Medium_Highlight_1" class="fa55e121-0f1d-4ffb-9bc9-c9e7d6d54598" d="M197,166s4.08,1.65,5.5,2c3.25.8,13.26,1.75,13.26,1.75a6.57,6.57,0,0,1,.15-2.52c.63-.95,3.05-1.51,4.09-2s3.5-1.43,4.58-1c.26.11.59,1,.59,1A31,31,0,0,0,231,166c1.72-.2,6-1.6,7-3,.68-.94,0-5,0-5l-7-3s1.17,1.74,1.09,2.4-1,1.3-1.44,1.6a19.3,19.3,0,0,1-3.6,1.3l-3.4,1.13c-1.16.4-3.48,1.23-4.67,1.55a32.25,32.25,0,0,1-4.26.78,35.51,35.51,0,0,1-3.72,0,25.11,25.11,0,0,1-3.46-.4A10.41,10.41,0,0,0,206,163a15.38,15.38,0,0,0-3.79,1C200.9,164.48,197,166,197,166Z"/><path id="e254c61b-5968-4278-b523-60abeb35e6da" data-name="Right_Medium_Highlight_2" class="fa55e121-0f1d-4ffb-9bc9-c9e7d6d54598" d="M197,166c-.94,1.05,1.8,3.88,2.8,4.88,1.63,1.63,6,3.47,8.2,4.27a30.45,30.45,0,0,0,7.21,1.32,33.11,33.11,0,0,0,7.44-1.21c2.7-.79,7.75-3.19,10.35-4.26,1.58-.65,4.37-.52,6-1s6-1.65,7-3a7.68,7.68,0,0,0,1-4c-.21-.74-3-3-3-3l-6-2s.3,3.65-.34,4.61c-1,1.44-4.7,2.37-6.41,2.65-1.5.24-4.59-.31-6.08,0a35.35,35.35,0,0,0-4.63,2,8.46,8.46,0,0,1-2.65.77,8.44,8.44,0,0,1-2-.77L215,169l.76.75L226.23,172s-9.84.27-13.11,0a25.72,25.72,0,0,1-5.12-1.12c-1.45-.55-4.08-2.25-5.5-2.88S198,164.91,197,166Z"/><path id="bd30d7ab-454b-43cb-af01-9da262223ccb" data-name="Right_Medium_Highlight_3" class="fa55e121-0f1d-4ffb-9bc9-c9e7d6d54598" d="M197,166s-4.1-.1-5-1-1-5-1-5l5.22-2.79A38.44,38.44,0,0,0,201,154c.64-.64,0-2,2-3l2-1s-3.92,7.72-5.2,10.3C199.09,161.72,197,166,197,166Z"/><path id="aa5155d4-789a-4563-bfb9-763d79a8acb7" data-name="Right_Upper_Eyelid_Dark" class="b69c6bde-1751-472a-8b00-a9606133e3b2" d="M202,157l4-4c2-2,4.88-3.11,6-3,.87.09,7,.7,8,1s3,.68,4,1,1.95.75,3,1a21.28,21.28,0,0,1,4,2c1.12.61-1.25-2.62-3-3s-5.24-2.61-7-3c-1.42-.31-3.56-.79-5-1a25.62,25.62,0,0,0-6,0c-1.48.29-5,3-6,4C203.7,152.3,202,157,202,157Z"/><path id="b263aa50-8fa9-40f2-8697-34c13a288b87" data-name="Left_Nose" class="fa55e121-0f1d-4ffb-9bc9-c9e7d6d54598" d="M162,168c.42,1.31,2,3.76,2,5.14,0,1.78-1.83,5.08-2,6.86-.17,2,.65,6,1,7.95a38.78,38.78,0,0,1,1,6c0,1.23-.84,3.6-1,4.82-.26,2.07-.3,6.27-.74,8.31-.34,1.56-1.6,4.55-1.72,6.14a27,27,0,0,0,.46,4s0,.58,1,.79c.1,0,.77-.36,1,0s1,.74,1,1-1,.91-1,1.32c.2,1.18,4,2.68,4,2.68l4-8s-2.57-1-3-1.79c-.53-.91-.08-3.16,0-4.21a25.79,25.79,0,0,1,1-5c.28-.78,1.16-2.2,1.43-3,.57-1.7,1.08-5.28,1.57-7s1.75-5,2-6.79a39.41,39.41,0,0,0,0-4.21c0-.56,0-1.68,0-2.24.07-3.39.45-10.2,0-13.55-.16-1.17-.94-3.43-1-4.61a23.78,23.78,0,0,0,0-2.67c-.51-2.16-4-7.93-4-7.93a6.43,6.43,0,0,0-3,0c-1.3.4-2.27,1.62-3,1.87-1.26.43-5,1.85-5,1.85a26.11,26.11,0,0,1,2.92,4.28c.21.61-1,.08-.92,1A43.82,43.82,0,0,0,162,168Z"/><path id="bb289e36-7a55-4069-adf8-8754037a621e" data-name="Middle_Nose" class="fa55e121-0f1d-4ffb-9bc9-c9e7d6d54598" d="M184.65,162.54c-.28-1.12.4-3.47.78-4.56a55.77,55.77,0,0,1,3.55-6.33l-3.55-1.15-5.64,2.5L174,150l-5,2,4,7.93s1.34-2.09,2-1.93.82,2.23,1,3a9.43,9.43,0,0,1,0,4.26,9.41,9.41,0,0,1-2,2v13.55s2.31-1.1,3-.76c.92.45,1.23,2.88,1.21,3.9,0,1.43-1.49,4-2.11,5.31-.7,1.47-2.42,4.26-3,5.79a28.4,28.4,0,0,0-1.09,5,61.76,61.76,0,0,0,0,7.07c.06,1.53.39,4.65,0,6.14a12.15,12.15,0,0,1-1,1.79c-1,2-4,8-4,8s3.76,1.49,5,2a13.56,13.56,0,0,0,3,1,5.5,5.5,0,0,0,2.24-.57,19.39,19.39,0,0,0,2.45-2.27,35.41,35.41,0,0,1,3.23-2.64c1-.69,4.41-2.31,4.41-2.31s-2-8.42-1.35-11.14a56,56,0,0,0,1.35-7.2A90.46,90.46,0,0,0,188,188c-.05-2.26-.67-6.76-1-9C186.39,174.89,186,168,184.65,162.54Z"/><path id="f7637665-a55d-4994-aab3-7fbd17b6cbe7" data-name="Right_Nose" class="fa55e121-0f1d-4ffb-9bc9-c9e7d6d54598" d="M199,202c3-4-2.32-4-2.35-5.71a77,77,0,0,0-.43-8c-.3-1.82.54-3.74-.22-6.25-.5-1.65-2.59-3.74-3-5.53-.88-4.05-1.26-16.58-2.2-16.47l-6.17,2.54L187,179s4,2,6,10c.31,1.24-.57,3.8-1,5-.63,1.77-1.89,5.31-2.68,7s-3,4.37-3.34,6.06c-.23,1.12-1.27,2.89-1,4.93a20.4,20.4,0,0,0,2.33,6.21,23.51,23.51,0,0,1,2.57-1.56c.63-.25,2-.37,2.63-.56a18.35,18.35,0,0,0,2.56-1.05,14.77,14.77,0,0,0,3.45-1.83,6.39,6.39,0,0,0,1.26-2.67,10,10,0,0,0-.48-3.47A21.31,21.31,0,0,0,198,205C197.71,204.52,198.66,202.45,199,202Z"/><path id="bf22e725-459a-4a68-9b8c-6240a589624c" data-name="Right_Middle_Cheek" class="fa55e121-0f1d-4ffb-9bc9-c9e7d6d54598" d="M263.41,173.14l-30.09,2.12a51.09,51.09,0,0,1,0,6.17,15.56,15.56,0,0,1-2,4.86,14.19,14.19,0,0,1-5.09,3.71c-2.17.78-7,.45-9.23,0a18.19,18.19,0,0,1-6-3,10,10,0,0,1-2.13-3.31c-.71-2,.35-6.77-.87-8.54s-6.54-2.67-8.2-4.27c-1-1-2.8-4.88-2.8-4.88l-6-2s1.46,9.64,2,12.47c.59,3,2.72,8.77,3.2,11.78.32,2,.32,6,.43,8L197,203a11.67,11.67,0,0,1,3,0,5.19,5.19,0,0,1,2,2,9.53,9.53,0,0,1,.39,3,12.26,12.26,0,0,1-.39,3c-.19.58-.87,1.61-1,2.21a34.91,34.91,0,0,0,0,5.79l3,2s2.69,1.42,4,2c2.68,1.19,5.19,2.09,7,3,8,4,30.39-.66,38-7,6-5,11.14-19.56,15-26,1.79-3,7-12,7-12l-1-4a21.66,21.66,0,0,0-1-7,12.28,12.28,0,0,1,0-3v-2l-9.59,8.14"/><path id="fa651177-69fd-48bf-a831-f7218bfb4a45" data-name="Right_Upper_Cheek" class="fa55e121-0f1d-4ffb-9bc9-c9e7d6d54598" d="M263.41,173.14c1.22-2.22-3.61-6.73-4.41-9.14a40.35,40.35,0,0,1-.79-4.07s-7.41.41-9.88.37c-1.09,0-4.33-.3-4.33-.3a20.46,20.46,0,0,1,1.61,2.61c.31.79.48,2.69,0,3.39-.93,1.39-4.65,1.9-6.22,2.5s-4.82,1.72-6.39,2.38c-2.59,1.07-7.32,2.27-10,3.12-1.8.57-5.91,2.48-7.79,2.47a55.89,55.89,0,0,1-7.21-1.32s-.54,6.92.87,8.54c.61.69,2.7.64,3.61.77a29.12,29.12,0,0,0,7.52,0,24.77,24.77,0,0,0,6.23-3,93,93,0,0,0,7.09-6.17S259.76,179.74,263.41,173.14Z"/><path id="f4599a5d-a841-40ca-83c9-bf283cfdc582" data-name="Right_Upper_Brow_Skintone" class="fa55e121-0f1d-4ffb-9bc9-c9e7d6d54598" d="M238,158l6,2s3.24.28,4.33.3c2.47,0,9.88-.37,9.88-.37s-1.81-8.23-2.12-11C256,148.19,256,146,256,146s-8.38-2.71-11-4c-2.31-1.14-6.56-4.18-9-5-2.14-.72-6.74-1-9-1a31.2,31.2,0,0,0-7,1,46.69,46.69,0,0,0-4.24,2c-1.68.77-5.06,2.27-6.76,3-.87.38-2.63,1.11-3.46,1.58A21.5,21.5,0,0,0,202,146a38.17,38.17,0,0,0-2.66,3.5s4.19-2,5.66-2.5a32.54,32.54,0,0,1,5-1,38.77,38.77,0,0,1,6,0,47.55,47.55,0,0,1,5,1c1.77.43,5.25,1.5,7,2,.92.27,8,8,8,8Z"/><path id="b940c388-98d6-410a-b9f8-b4cd1e59e3a9" data-name="Left_Iris" class="a15a2f20-d5c6-4300-89f9-d5a443713402" d="M136.79,170.88A2.82,2.82,0,0,1,136,172a8.36,8.36,0,0,1-2,0c-.55-.1-.63-.58-1-1a5.06,5.06,0,0,1-.68-2.5A3.08,3.08,0,0,1,134,166a3.48,3.48,0,0,1,2,0,2.16,2.16,0,0,1,.79.71,6.16,6.16,0,0,1,.42,2.29A9.3,9.3,0,0,1,136.79,170.88Z"/><path id="a757aa43-95b4-46c7-9e16-afedbb744748" data-name="Left_Eyeball_White" class="f64ae5c9-a7e1-4892-9e43-9c44873feafb" d="M151.59,170.06A4.74,4.74,0,0,0,151,169c-.88-1.09-3.66-3.61-5-4-.55-.16-1.73-1.58-3-2-1-.34-2.12.35-3,0h-2v2s.69-.31,1,0,.76.84.76,1.12v1.11s.06,1.57,0,2.09a14.89,14.89,0,0,1-.76,3.44,14.72,14.72,0,0,1-1.11,1.67s5.82-1.1,7.11-1.43a29.7,29.7,0,0,0,3.42-1.24A32.41,32.41,0,0,0,151.59,170.06Z"/><path id="a060859b-ff56-4e0a-99c0-4a33ea94139d" data-name="Left_Eye_Medium" class="fa55e121-0f1d-4ffb-9bc9-c9e7d6d54598" d="M148.42,179.85c.36-.34-1-1.19-.42-1.85a26.63,26.63,0,0,1,4-3c1.42-.9,6-.57,6-.57s1.42,1.35,1,2.57-2.69,3.39-3,4c-.9,1.8-1.4,3.78-3,5a37.87,37.87,0,0,1-8,4c-1.18.37-3.76,0-5,0-5.78-.1-11-3.71-11-3.71s8.38.54,11-.29S146.54,181.65,148.42,179.85Z"/><path id="bca94b8e-adb0-4d4b-a50d-5e2b9e6e2528" data-name="Left_Eye_Lid_Bottom_Pink" class="a0c520a3-d9a4-4884-8fc8-e92f7431395a" d="M126,174l1-1h3l.81,1a11,11,0,0,0,2.19,1c1.22.19,3.43-.43,4.89-.57.78-.08,3.06-.59,3.06-.59a11.71,11.71,0,0,1-1.95,1.92c-1,.49-1.93,1.29-3,1.24s-6-1-6-1l-2-1Z"/><path id="a78b8219-6bde-4518-817f-a560eba1b33d" data-name="Left_Cheek_Medium_Skintone_1" class="fa55e121-0f1d-4ffb-9bc9-c9e7d6d54598" d="M160,188a49.76,49.76,0,0,1-4.91,5.05c-.92.66-3.21,1.24-4.09,1.95-.58.46-1.83,1.72-1.68,2.44.24,1.25,3.06,2.43,3.62,3.57a10.82,10.82,0,0,1,.33,4.18,26,26,0,0,1-1.68,6.46c-.6,1.4-2.41,3.88-3.17,5.2s-2.32,4.34-3.68,5.15-5.23.64-6.85.09c-1.81-.62-4.55-3.63-5.57-5.24a15.69,15.69,0,0,1-1.51-6.31,18.52,18.52,0,0,1,1.51-5.35c.47-1.11,2.74-3,2.44-4.18s-3.53-1.93-4.78-2.41-4.34-1.16-5.5-2.06A9.61,9.61,0,0,1,122,192c-.12-.71.41-2.3,0-2.9s-5-6.1-5-6.1,2.42,10.33,3,12c.36,1.06,1.68,2.93,2,4,.68,2.3.78,7.18,1.5,9.47.79,2.51,3.45,7.11,4.5,9.53.44,1,1.61,4.09,1.61,4.09A19.31,19.31,0,0,1,133,223c1.58.87,2,4,6,4,1.68,0,4.57-2.12,6-3a37.63,37.63,0,0,0,5-4c.92-.91,3.27-4,3.27-4a11.68,11.68,0,0,1,.73,2c.19,1.58-.54,4.74-.73,6.32A33.27,33.27,0,0,1,152,231a27.93,27.93,0,0,1-2,3c-.41.64-1.58,2.59-1.58,2.59L151,237s5.4-4.7,7-6.46c1.39-1.52,5-6.54,5-6.54l-.3-1.4-.44-2.08s-1,0-1.26-.2c-.5-.59,0-3.11,0-3.11s-1.42-3-1.91-4c-.32-.67-1-2-1.31-2.67C157.29,209.42,156,206,156,206s1.95-3.69,2.43-5a39.73,39.73,0,0,0,1.57-7C160.17,192.51,160,188,160,188Z"/><path id="aa79faab-ca07-4965-8a51-d18d30d3c80a" data-name="Left_Inner_Eyeball_Pink" class="ee8a9347-eba1-4e17-b541-026ed9e95234" d="M156.7,170.88l-8.28.88,3.17-1.7A9.61,9.61,0,0,0,151,169a34.73,34.73,0,0,0-3.12-2.89Z"/><path id="bf1341cf-5ac2-4792-ab37-fc9d70735716" data-name="Left_Eyelid_Accent_Top" class="b8b4d880-8247-4563-b1ce-381060c80cfe" d="M138.71,156.6A16.64,16.64,0,0,0,134,154a31.61,31.61,0,0,0-7-1,22.33,22.33,0,0,0-7,1,19.47,19.47,0,0,0-4.46,3.27c-.67.65-2.54,2.73-2.54,2.73s5.1-.52,6,1a5.37,5.37,0,0,1,0,3c-.2.88-1.84,2.66-2,4-.18,1.54,1.12,2.64.9,3.65s-1,3.5-1,3.5L120,174l2-1a8.4,8.4,0,0,1-.85-2.12,6.56,6.56,0,0,1,.59-2.38c.26-.5.48-2.37.89-3a15.21,15.21,0,0,1,3.41-3.08,24.08,24.08,0,0,1,4-2.08,38.61,38.61,0,0,1,5.07-1.34c1.19-.22,4.79-.56,4.79-.56A12.73,12.73,0,0,0,138.71,156.6Z"/><path id="b8d0095c-9eb6-4993-aadc-41e0182b19a4" data-name="Left_Eye_Inner Accent_Right" class="b8b4d880-8247-4563-b1ce-381060c80cfe" d="M159.94,172.32c-.75.46-2.56-.87-3.24-1.44a16.24,16.24,0,0,1-2.48-3.93c-.28-.53-.95-2.2-.95-2.2l6.67,4.21S160.66,171.88,159.94,172.32Z"/><path id="bed23de3-d5fa-4f79-a3f9-b5c898e9c744" data-name="Left_Inner_Accent_Top_Right" class="b8b4d880-8247-4563-b1ce-381060c80cfe" d="M159.94,169l2.06-1a10.68,10.68,0,0,0-3.05-4.28c-.29-.25-.61-1.49-.95-1.72-1.33-.89-3.64-2.16-5-3-.95-.59-3.21-1.21-4-2-1-1-3.72-1.57-5-2-3-1-10-1-10-1a28.18,28.18,0,0,1,4.71,2.6,11.38,11.38,0,0,1,1.15,1.8s3.12.36,4.14.6a27,27,0,0,1,4,1.3,17.8,17.8,0,0,1,3.85,2.31c.47.45,1,1.68,1.46,2.14C154.64,166.17,159.94,169,159.94,169Z"/><path id="a55226b6-ae79-4be6-852e-c60491bb548e" data-name="Left_Eye_Bottom_Eyelid_Accent" class="fa55e121-0f1d-4ffb-9bc9-c9e7d6d54598" d="M158,174.43c.46-.83-1.3-3.55-1.3-3.55a76,76,0,0,0-8.28.88c-.88.22-2.53,1-3.42,1.24s-3.15.32-4.05.84c-.59.34-1.38,1.55-1.95,1.92a20.43,20.43,0,0,1-7,2.24c-1,.09-3.08-.38-4,0a9.68,9.68,0,0,0-2,2s-.74.34,0,1,2.71,1.39,2.9,1.82a12,12,0,0,1,.1,3.47s4.46-1.82,6-2.29c2-.6,6-1.37,8-2,1.39-.45,5.42-2.15,5.42-2.15A8.25,8.25,0,0,1,149,178a9.23,9.23,0,0,1,3-2C153.41,175.36,157.24,175.78,158,174.43Z"/><path id="bc2314bf-7316-4b24-827e-3a153586d6d8" data-name="Left_Inner_Eyelid_Accent_Right" class="fa55e121-0f1d-4ffb-9bc9-c9e7d6d54598" d="M151.59,184.71,156,180h6s3.08-6.22,3-8c-.06-1.38-3-4-3-4l-2.06,1s.71,2.9,0,3.36-3.24-1.44-3.24-1.44a15.51,15.51,0,0,1,1.3,3.55c.05,1.48-1.23,4.31-2,5.57A40.7,40.7,0,0,1,151.59,184.71Z"/><path id="ec64b0cb-017e-498e-a9f0-e1d97460ad93" data-name="Left_Cheek_Middle" class="fa55e121-0f1d-4ffb-9bc9-c9e7d6d54598" d="M156,180h6l-2,8a49.76,49.76,0,0,1-4.91,5.05c-.92.66-3.21,1.24-4.09,1.95a2.4,2.4,0,0,0-1,2c.18,1.26,3.36,2.9,4,4,.53.9.16,3,0,4a40.53,40.53,0,0,1-2,7,39.62,39.62,0,0,1-3,5c-.9,1.3-2.6,5.27-4,6s-6.45.73-8,0c-1.73-.82-4.12-4.3-5-6-.74-1.44-2.1-4.38-2-6a25.5,25.5,0,0,1,2-6c.51-1.1,2.33-2.83,2-4s-3.72-1.6-5-2-3.9-1-5-2a13.84,13.84,0,0,1-3-5c-.14-.71,1.4-2.29,1-2.9s-3-1.1-3-1.1.91-4.38,2-5a9.3,9.3,0,0,1,4,0c1.26.44,2.79,2.73,4,3.29a48.74,48.74,0,0,0,10.78,2.81,15.29,15.29,0,0,0,5,0,25.32,25.32,0,0,0,6.85-4.39C152.79,183.62,156,180,156,180Z"/><path id="afa3eb1e-9fbc-48f3-b51d-74d8418bbd08" data-name="Left_Eye_Shadow" class="b8b4d880-8247-4563-b1ce-381060c80cfe" d="M122,173l-2,1-3,1a4,4,0,0,0,2,1c.9,0,1.59-.95,2-1a14.92,14.92,0,0,0,3-1s-.4,3.16-1,4-2.27,1.47-3,2a11.38,11.38,0,0,0-1,1s3.26-.72,4-1,1.9-1.23,2-1,.68,1.14,1,1c0,0,1.34-1.76,2-2,.94-.34,3,.94,4,1s4-2,4-2-3-.71-4-1a20,20,0,0,1-4-1l-2-1,1-1a18.59,18.59,0,0,0,3,0c.06,0,.27.3.27.3s-1-1.82-1-2-.26-.07-.27-.3c0-.94.27-1.89.27-2.7A10.51,10.51,0,0,1,130,166a15.89,15.89,0,0,1,2-2s-8.59,3.46-10,4c-.61.23-1,3-1,3Z"/><path id="ac2a400f-8df0-4614-9108-a85dc0bfb712" data-name="Skintone" class="b8b4d880-8247-4563-b1ce-381060c80cfe" d="M156.7,170.88l-8.82-4.77L146,165l-3-2-3-1-2,1-6,1-10,4s2.93-2.35,4-3a33,33,0,0,1,7-3,47.12,47.12,0,0,1,5.87-.5l5.54,1.11,5.33,2.85,3.53,2.54Z"/><path id="fb6226fe-7b20-46f5-93b0-e11fc07ce5e8" data-name="Left_Eye_Shadow" class="b69c6bde-1751-472a-8b00-a9606133e3b2" d="M136,163s4.9-.13,6,0,11,5,11,5-3.48-3.61-4-4c-.81-.61-4.26-3-5-3s-6.12-.22-9,0c-2.5.19-4.43,1.78-5,2-1,.41-4,4-4,4Z"/><path id="bf2f8963-10f9-4816-98c2-0cae94a41d8c" data-name="Right_Vest_Middle_Flap" class="bb147b7a-f104-4795-b2f0-45f73bd0cac0" d="M297,374c-.53-.47-1.45-1.55-2-2a81.32,81.32,0,0,0-13-8c-1.86-.87-7.79-2.59-7.79-2.59S262,365.55,258,367c-1,.36-4,1.5-4,1.5a23.18,23.18,0,0,1,2.11-2c1.15-.77,4.91-2.54,4.91-2.54s2.05-3,3-4c.68-.74,2.82-2.3,3.54-3,1.13-1.1,3.66-3,4.89-4a49.05,49.05,0,0,0,5.57-5c1.49-1.83,3.56-6.13,5-8s4.87-5.14,6.32-7c2.4-3.08,6.52-9.74,8.68-13a89.1,89.1,0,0,0,6-10,57.73,57.73,0,0,0,2-7c.73-3,2.4-9,3-12,.34-1.73.79-5.24,1-7,.11-1,.38-2.92.43-3.91a45.85,45.85,0,0,0,0-5.11c-.13-1.38-.93-5.48-.93-5.48S308,265,311,263c.59-.39,2.49,1.26,3,2,1.66,2.43,4.87,11.73,5,13a86.07,86.07,0,0,1,1,14c-.29,7.39,0,16,0,16l-1,34-5,36-4,16S297.15,374.13,297,374Z"/><path id="fa62e2c7-4ad3-4c43-a612-9ea67c0c2b58" data-name="Right_Eye_Ring_Hazel" class="fac59d11-1476-4633-aa0e-16e1761561c3" d="M218,154v2c0,2,.12,1.4,0,2s-1,3-1,3a8.12,8.12,0,0,1-2,1,9.8,9.8,0,0,1-4,0,12.09,12.09,0,0,1-3-2c-.37-.5-.67-1.47-1-2s-1-2-1-2l1-3,1-2,1.7,1.77a21.28,21.28,0,0,0-.33,2.32A9.08,9.08,0,0,0,210,158a6,6,0,0,0,2,2,2.87,2.87,0,0,0,2,0c.48-.28.83-1.47,1-2a7.92,7.92,0,0,0,.21-2.28A5.82,5.82,0,0,0,215,155a5.39,5.39,0,0,0,1,0A12.9,12.9,0,0,0,218,154Z"/><path id="e9a02c7f-8a98-4f4b-b63f-db6da5a691e3" data-name="Right_Eye_Darkest_Shade" class="fac59d11-1476-4633-aa0e-16e1761561c3" d="M217,153c.08.24.19.83,0,1-.37.33-2,0-2,0s-.23.81,0,1,0,0,1,0a2.58,2.58,0,0,0,2-1c.42-.67,0-1,0-2,0-.45-1.65-1.39-2.09-1.5A12.28,12.28,0,0,0,212,150c-3.43.06-4,1-4,1l1.7,1.77a21.4,21.4,0,0,1,2.78-.91A17.74,17.74,0,0,1,215,152a4.18,4.18,0,0,1,1,0A2.3,2.3,0,0,1,217,153Z"/><path id="a8b0098f-b8d2-4816-aa2f-37ae818a590d" data-name="Left_Eye_Ring_Top_Darkest_Hazel" class="fac59d11-1476-4633-aa0e-16e1761561c3" d="M137.21,169l1.79-2a5.06,5.06,0,0,1-1-1,3.47,3.47,0,0,1,0-1h1a3.25,3.25,0,0,0,0-1,4.83,4.83,0,0,0-1-1s-.4-.23-2,0a22.66,22.66,0,0,0-4,1,7.61,7.61,0,0,0-2,2,8.51,8.51,0,0,0-1,2,11.73,11.73,0,0,0,0,2,3.25,3.25,0,0,1,1,0,4.83,4.83,0,0,1,1,1h2a12,12,0,0,1-.68-2.5,3,3,0,0,1,.39-1.27A3.89,3.89,0,0,1,134,166a3.75,3.75,0,0,1,2,0,2.16,2.16,0,0,1,.79.71A10.83,10.83,0,0,1,137.21,169Z"/><g id="a4a29d00-f3fb-4b7a-baee-d527562ced99" data-name="Hair"><path class="b69c6bde-1751-472a-8b00-a9606133e3b2" d="M130,76a50.66,50.66,0,0,1,4-5c1-.9,2.67-.82,4-1,1-.13,3,.71,4,1,1.4.42,4.61.55,6,1s4.51.18,6,0c1.75-.21,5.34-.39,7-1,2.9-1.06,6.19-3.73,9-5,1.52-.69,6.34-2.82,8-3a89.83,89.83,0,0,0,9-2c1.67-.41,4.92-.83,6.5-1.5s6.68-.58,8.5-.5c1.58.07,2.93.35,4.5.5s4.9-1,6.5-1.5,4.86-1.21,6.5-1.5a52,52,0,0,1,7-1,32.38,32.38,0,0,1,7,1,52.65,52.65,0,0,1,7,3c1.93,1,5.95,3,7.5,4.5,1.16,1.15,2.62,4.13,3.5,5.5.67,1,2.48,2.87,3,4A24,24,0,0,1,256,81a65.49,65.49,0,0,1-1,8c-.25,1.5-.87,4.48-1,6s-.07,4.5,0,6c.09,1.88,0,5.69.5,7.5.44,1.62,2.34,4.46,3,6s1.7,5.87,2.5,7.5c.7,1.44,2.05,5.71,3,7,1.19,1.63,3.24,4.13,4,6,1,2.42,1.38,7.46,2,10,.55,2.24,2.55,7.74,3,10,.54,2.74,2,11,2,11l1.5-.5s3.87-.16,5.15,0a16.91,16.91,0,0,1,3.85,1,33.55,33.55,0,0,1,3,2,49.24,49.24,0,0,1,0-6.18c.25-1.52,1-4.69,2-5.82.76-.82,3-1.56,4-2s3-1.43,4-2c.78-.46,3-2,3-2s1-15,1-20c0-4.26-.42-12.78-1-17A141.68,141.68,0,0,0,298,99c-.84-3-5-22.25-7-26-2.36-4.44-4.4-14.69-7-19a80.74,80.74,0,0,0-7-10c-1.52-1.73-7.32-6.43-9-8-2.59-2.41-13.35-7.88-16.5-9.5A52,52,0,0,0,241,23c-4-.52-5-1.64-9-2-4.24-.39-8.5-2.5-23-2-5.75.2-14.25,1.68-20,2-3.28.18-12.28.82-15.5,1.5-4.27.9-10.24,1.56-14.5,2.5-3.73.83-13.88,3.27-17.5,4.5A16.83,16.83,0,0,0,136,33c-2.16,1.86-8.84,8.4-10,11a25.19,25.19,0,0,0-1.5,6.5c-.43,3.23-1.73,6.25-1.5,9.5.13,1.91,1.18,9.27,2,11a18,18,0,0,0,3,4A10.33,10.33,0,0,0,130,76Z"/></g><g id="ba35da25-7c15-4128-ab97-bb00a703a8ce" data-name="Left_Eyebrow"><path class="a80843c5-5cbf-48e1-babf-f1a0bc1093c9" d="M113,160a25.33,25.33,0,0,1-2-4,17.31,17.31,0,0,1,0-5.61,23.74,23.74,0,0,1,2-5.63c1-1.62,3.24-5,5-5.76,2.23-.95,7.27-.09,9.69,0,2.81.1,8.48-.45,11.26,0,1.57.25,5.73,1,7.05,1,1.49,0,4.4,1.61,5,2,.89.58,1.63,3,2,4,.62,1.64,0,7,0,7s-3.77-.67-5-1c-2.29-.61-6.66-2.6-9-3a53.41,53.41,0,0,0-8,0c-2.25.06-6.81-.51-9,0-1.63.38-4.86,1.77-6,3a13.77,13.77,0,0,0-2,4C113.69,157,113,160,113,160Z"/></g><g id="aa233927-c6ba-43d0-8b51-953b43ccc3d9" data-name="Right_Eyebrow"><path class="a80843c5-5cbf-48e1-babf-f1a0bc1093c9" d="M256,146s-8.23-2.26-11-4c-2.18-1.37-6.57-4.16-9-5a34.38,34.38,0,0,0-9-1c-1.77,0-5.24.84-7,1-3.49.33-10.53.46-14,1a47,47,0,0,0-10,3c-2.72,1.32-8.06,5.71-11,5-2.07-.5-4-5.05-4.87-7a4.5,4.5,0,0,1-.13-3c1.58-2.57,8.07-4.27,11-5,2-.5,5.51-1.95,7.5-2.5,1.76-.48,5.73-1.06,7.5-1.5,1.24-.31,3.74-.78,5-1a36.27,36.27,0,0,0,5-1c1.36-.52,15.82-2.14,18-1,2.58,1.35,7.48,4.53,10,6,1.73,1,5.27,3,6.65,4.45a24.6,24.6,0,0,1,3.33,6.16C254.76,142.61,256,146,256,146Z"/></g></svg>