<svg xmlns="http://www.w3.org/2000/svg" viewBox="0 0 57 57"><g id="b371b2ed-8804-4c2c-9737-1306f72f05d6" data-name="iPhone_Layer_-_57 px"><path id="b3c6e1e8-56c1-41b2-ae27-25305d1bac50" data-name="Head" d="M25,46c-1-1-1-2-2-2H22a5.48,5.48,0,0,1-3-1c-.53-.46-2-1-2-2,0-.56.05-1.44,0-2s-.83-1.47-1-2a2.35,2.35,0,0,1,0-1.46A3.12,3.12,0,0,1,17,35l-1-1c-.25-.25-.86-.67-1-1s.34-1.67,0-2.05-1.68.24-2.17,0A2.63,2.63,0,0,1,12,30a1.87,1.87,0,0,1,0-1,8.93,8.93,0,0,1,1-3c.21-.52,1-2,1-2a4.45,4.45,0,0,0,1-2c0-.86-.9-1.73-1-2a11.59,11.59,0,0,1,0-3,18.13,18.13,0,0,1,1-4c.38-.82,0-1,1-2a7.65,7.65,0,0,0,1-2c0-.25-.8.15-1,0-.39-.31-.17-1.53,0-2a7.5,7.5,0,0,1,1-2,20.13,20.13,0,0,1,2.5-1.61c.42-.3,1-1.39,1.5-1.39.35,0,.65,1,1,1,1,0,.48.21,1,0,.7-.28,3-.73,4-1a38.12,38.12,0,0,1,4,0,19.75,19.75,0,0,1,4,0,17.6,17.6,0,0,1,3,1,27.65,27.65,0,0,1,4,2c.29.21.67,1.13,1,1s-.23-.89,0-1c.52-.19.94,1.43,1,2,0,.21-.15.69,0,.84s.84,0,1,.16,0,.66,0,.87A11.14,11.14,0,0,0,46,11a18.31,18.31,0,0,1,1,4A22.66,22.66,0,0,1,47,19,33.71,33.71,0,0,1,46,23a31,31,0,0,1-1,3c-.22.46-.84,1.28-1,1.75A28.13,28.13,0,0,0,43,31a7.57,7.57,0,0,0,0,3c.08.34.52,2.8,0,3S30.54,47.65,27,48C26.65,48,25.14,46.14,25,46Z"/><path id="f562cb3f-662c-4a9b-873d-54c19e43d2e4" data-name="Collar" d="M35,40a57,57,0,0,1,5-3,4.15,4.15,0,0,1,3,0h1s1.2,1.85,1,2c-.45.34-.49,1.77-1,2s-1.5-.25-2,0a37,37,0,0,0-5,3c-.86.58-3,4-4,5-.75.75-2.52,1.42-3,2a9.88,9.88,0,0,1-3,2s-.79,1-1,1,0-6,0-6l1-1a6.06,6.06,0,0,1,1-2A50.61,50.61,0,0,1,35,40Z"/><path id="b89b9015-29e7-45b6-b387-48327c0fe069" data-name="Shoulder" d="M23,57s.78-1.49,1-2a16.22,16.22,0,0,1,1-2c.2-.29.91-3.09,1-3s0,4,0,4l1-1,1-1c1.25-1.25,3.77-3.73,5-5,.74-.76,2.18-2.33,3-3a26.07,26.07,0,0,1,3-2c1-.53,3-1.44,4-2,.68-.4,2.08-1.41,3-1,.18.08,1.6.73,2,1a4.49,4.49,0,0,1,1,1,7,7,0,0,0,1,1,11,11,0,0,1,1,2c.23.51.75,1.5,1,2,.51,1,2,4,2,4a26.13,26.13,0,0,1,1,3c.08.47,1,4,1,4H23Z"/></g></svg>