<svg xmlns="http://www.w3.org/2000/svg" xmlns:xlink="http://www.w3.org/1999/xlink" viewBox="0 0 144 144"><defs><style>.b0bc6543-b0c8-4a73-96d1-545d0e92d2e2,.b1ab8ec3-846e-4537-8631-c073e137cd54,.f7de448d-c08f-4e47-9127-daba32adaec0,.fa798bea-d299-4dfd-b1fc-62f60e8aaa36{fill:none;}.f7de448d-c08f-4e47-9127-daba32adaec0{stroke:#72469b;}.b0bc6543-b0c8-4a73-96d1-545d0e92d2e2,.b1ab8ec3-846e-4537-8631-c073e137cd54,.f7de448d-c08f-4e47-9127-daba32adaec0{stroke-linecap:square;stroke-width:0.3px;}.b0bc6543-b0c8-4a73-96d1-545d0e92d2e2{stroke:#231f20;}.b1ab8ec3-846e-4537-8631-c073e137cd54{stroke:#250f24;}.b3e368d4-4a1a-4495-a40c-5dafec61e712{fill:#372059;}.e91bc01c-e5c3-47de-bbb9-860ec667faba{stroke:#372059;fill:url(#b719f856-d225-43f2-b108-48f5c86b73d4);}.a150efd3-de2c-4270-bb6a-82a318b4495e,.a2b5d893-eaa0-43e6-9ce1-441b2acaa081,.abca42ed-e16a-48cb-9856-378b3f51e674,.b29166d8-4a31-4625-a4b7-c699492312fc,.bc6a5984-7439-4daa-a57f-479064e2f253,.be93260c-c3af-424c-b824-673a4a091a48,.e6636268-5be7-4fba-aafc-4c1815311bc6,.e91bc01c-e5c3-47de-bbb9-860ec667faba,.f08df515-3b6a-4ff6-9d55-861b13a84cfa,.f38d6728-dfaf-46b2-a181-22209a9c22c8{stroke-miterlimit:10;}.a150efd3-de2c-4270-bb6a-82a318b4495e,.a2b5d893-eaa0-43e6-9ce1-441b2acaa081,.abca42ed-e16a-48cb-9856-378b3f51e674,.b29166d8-4a31-4625-a4b7-c699492312fc,.bc6a5984-7439-4daa-a57f-479064e2f253,.e91bc01c-e5c3-47de-bbb9-860ec667faba,.f08df515-3b6a-4ff6-9d55-861b13a84cfa{stroke-width:0.1px;}.b69e4bde-a329-4131-8648-389f3915ba4c,.bc6a5984-7439-4daa-a57f-479064e2f253{fill:#f2f2f3;}.a150efd3-de2c-4270-bb6a-82a318b4495e,.a2b5d893-eaa0-43e6-9ce1-441b2acaa081,.abca42ed-e16a-48cb-9856-378b3f51e674,.b29166d8-4a31-4625-a4b7-c699492312fc,.bc6a5984-7439-4daa-a57f-479064e2f253,.be93260c-c3af-424c-b824-673a4a091a48,.e6636268-5be7-4fba-aafc-4c1815311bc6,.f08df515-3b6a-4ff6-9d55-861b13a84cfa,.f38d6728-dfaf-46b2-a181-22209a9c22c8{stroke:#252814;}.beae877f-7ae8-4bbf-bdb1-778f196527f6,.f08df515-3b6a-4ff6-9d55-861b13a84cfa{fill:#212426;}.a2b5d893-eaa0-43e6-9ce1-441b2acaa081,.be93260c-c3af-424c-b824-673a4a091a48{fill:#0a0a0f;}.f310c32c-85d5-4814-8679-fa39dc644072{fill:#312426;}.e147805f-4508-4e5e-af32-c2dd3fda0c67{fill:#252814;}.abca42ed-e16a-48cb-9856-378b3f51e674,.fba3bbdc-37e2-410c-83ce-eaeb07e60717{fill:#be8f7d;}.be93260c-c3af-424c-b824-673a4a091a48,.e6636268-5be7-4fba-aafc-4c1815311bc6,.f38d6728-dfaf-46b2-a181-22209a9c22c8{stroke-width:0.25px;}.a150efd3-de2c-4270-bb6a-82a318b4495e{fill:#1e1e26;}.a565732e-2869-4100-9899-a757fa61c3a1{fill:#dec5b6;}.a15af866-6e7b-4fe1-be53-40bcacf68c64{fill:#dfc6b6;}.a9f885a5-4c29-48d1-891b-00a71c413a92{fill:#b7897b;}.e6636268-5be7-4fba-aafc-4c1815311bc6{fill:#0c0c0e;}</style><pattern id="b719f856-d225-43f2-b108-48f5c86b73d4" data-name="Plaid 2 Color 2" width="72" height="72" patternUnits="userSpaceOnUse" viewBox="0 0 72 72"><rect class="fa798bea-d299-4dfd-b1fc-62f60e8aaa36" width="72" height="72"/><line class="f7de448d-c08f-4e47-9127-daba32adaec0" x1="20" y1="72" x2="20" y2="144"/><line class="f7de448d-c08f-4e47-9127-daba32adaec0" x1="56" y1="72" x2="56" y2="144"/><line class="b0bc6543-b0c8-4a73-96d1-545d0e92d2e2" x1="25" y1="72" x2="25" y2="144"/><line class="b0bc6543-b0c8-4a73-96d1-545d0e92d2e2" x1="61" y1="72" x2="61" y2="144"/><line class="f7de448d-c08f-4e47-9127-daba32adaec0" x1="30" y1="72" x2="30" y2="144"/><line class="f7de448d-c08f-4e47-9127-daba32adaec0" x1="66" y1="72" x2="66" y2="144"/><line class="f7de448d-c08f-4e47-9127-daba32adaec0" x1="18" y1="72" x2="18" y2="144"/><line class="f7de448d-c08f-4e47-9127-daba32adaec0" x1="54" y1="72" x2="54" y2="144"/><line class="b0bc6543-b0c8-4a73-96d1-545d0e92d2e2" x1="23" y1="72" x2="23" y2="144"/><line class="b0bc6543-b0c8-4a73-96d1-545d0e92d2e2" x1="59" y1="72" x2="59" y2="144"/><line class="f7de448d-c08f-4e47-9127-daba32adaec0" x1="28" y1="72" x2="28" y2="144"/><line class="f7de448d-c08f-4e47-9127-daba32adaec0" x1="64" y1="72" x2="64" y2="144"/><line class="b0bc6543-b0c8-4a73-96d1-545d0e92d2e2" x1="42" y1="72" x2="42" y2="144"/><line class="b0bc6543-b0c8-4a73-96d1-545d0e92d2e2" x1="6" y1="72" x2="6" y2="144"/><line class="b0bc6543-b0c8-4a73-96d1-545d0e92d2e2" x1="144" y1="6" x2="72" y2="6"/><line class="b0bc6543-b0c8-4a73-96d1-545d0e92d2e2" x1="144" y1="42" x2="72" y2="42"/><line class="b1ab8ec3-846e-4537-8631-c073e137cd54" x1="144" y1="20" x2="72" y2="20"/><line class="b1ab8ec3-846e-4537-8631-c073e137cd54" x1="144" y1="56" x2="72" y2="56"/><line class="b0bc6543-b0c8-4a73-96d1-545d0e92d2e2" x1="144" y1="25" x2="72" y2="25"/><line class="b0bc6543-b0c8-4a73-96d1-545d0e92d2e2" x1="144" y1="61" x2="72" y2="61"/><line class="b1ab8ec3-846e-4537-8631-c073e137cd54" x1="144" y1="30" x2="72" y2="30"/><line class="b1ab8ec3-846e-4537-8631-c073e137cd54" x1="144" y1="66" x2="72" y2="66"/><line class="b1ab8ec3-846e-4537-8631-c073e137cd54" x1="144" y1="18" x2="72" y2="18"/><line class="b1ab8ec3-846e-4537-8631-c073e137cd54" x1="144" y1="54" x2="72" y2="54"/><line class="b0bc6543-b0c8-4a73-96d1-545d0e92d2e2" x1="144" y1="23" x2="72" y2="23"/><line class="b0bc6543-b0c8-4a73-96d1-545d0e92d2e2" x1="144" y1="59" x2="72" y2="59"/><line class="b1ab8ec3-846e-4537-8631-c073e137cd54" x1="144" y1="28" x2="72" y2="28"/><line class="b1ab8ec3-846e-4537-8631-c073e137cd54" x1="144" y1="64" x2="72" y2="64"/><rect class="b3e368d4-4a1a-4495-a40c-5dafec61e712" width="72" height="72"/><line class="b0bc6543-b0c8-4a73-96d1-545d0e92d2e2" x1="72" y1="6" y2="6"/><line class="b0bc6543-b0c8-4a73-96d1-545d0e92d2e2" x1="72" y1="42" y2="42"/><line class="b1ab8ec3-846e-4537-8631-c073e137cd54" x1="72" y1="20" y2="20"/><line class="b1ab8ec3-846e-4537-8631-c073e137cd54" x1="72" y1="56" y2="56"/><line class="b0bc6543-b0c8-4a73-96d1-545d0e92d2e2" x1="72" y1="25" y2="25"/><line class="b0bc6543-b0c8-4a73-96d1-545d0e92d2e2" x1="72" y1="61" y2="61"/><line class="b1ab8ec3-846e-4537-8631-c073e137cd54" x1="72" y1="30" y2="30"/><line class="b1ab8ec3-846e-4537-8631-c073e137cd54" x1="72" y1="66" y2="66"/><line class="b1ab8ec3-846e-4537-8631-c073e137cd54" x1="72" y1="18" y2="18"/><line class="b1ab8ec3-846e-4537-8631-c073e137cd54" x1="72" y1="54" y2="54"/><line class="b0bc6543-b0c8-4a73-96d1-545d0e92d2e2" x1="72" y1="23" y2="23"/><line class="b0bc6543-b0c8-4a73-96d1-545d0e92d2e2" x1="72" y1="59" y2="59"/><line class="b1ab8ec3-846e-4537-8631-c073e137cd54" x1="72" y1="28" y2="28"/><line class="b1ab8ec3-846e-4537-8631-c073e137cd54" x1="72" y1="64" y2="64"/><line class="f7de448d-c08f-4e47-9127-daba32adaec0" x1="20" x2="20" y2="72"/><line class="f7de448d-c08f-4e47-9127-daba32adaec0" x1="56" x2="56" y2="72"/><line class="b0bc6543-b0c8-4a73-96d1-545d0e92d2e2" x1="25" x2="25" y2="72"/><line class="b0bc6543-b0c8-4a73-96d1-545d0e92d2e2" x1="61" x2="61" y2="72"/><line class="f7de448d-c08f-4e47-9127-daba32adaec0" x1="30" x2="30" y2="72"/><line class="f7de448d-c08f-4e47-9127-daba32adaec0" x1="66" x2="66" y2="72"/><line class="f7de448d-c08f-4e47-9127-daba32adaec0" x1="18" x2="18" y2="72"/><line class="f7de448d-c08f-4e47-9127-daba32adaec0" x1="54" x2="54" y2="72"/><line class="b0bc6543-b0c8-4a73-96d1-545d0e92d2e2" x1="23" x2="23" y2="72"/><line class="b0bc6543-b0c8-4a73-96d1-545d0e92d2e2" x1="59" x2="59" y2="72"/><line class="f7de448d-c08f-4e47-9127-daba32adaec0" x1="28" x2="28" y2="72"/><line class="f7de448d-c08f-4e47-9127-daba32adaec0" x1="64" x2="64" y2="72"/><line class="b0bc6543-b0c8-4a73-96d1-545d0e92d2e2" x1="42" x2="42" y2="72"/><line class="b0bc6543-b0c8-4a73-96d1-545d0e92d2e2" x1="6" x2="6" y2="72"/><line class="b0bc6543-b0c8-4a73-96d1-545d0e92d2e2" y1="6" x2="-72" y2="6"/><line class="b0bc6543-b0c8-4a73-96d1-545d0e92d2e2" y1="42" x2="-72" y2="42"/><line class="b1ab8ec3-846e-4537-8631-c073e137cd54" y1="20" x2="-72" y2="20"/><line class="b1ab8ec3-846e-4537-8631-c073e137cd54" y1="56" x2="-72" y2="56"/><line class="b0bc6543-b0c8-4a73-96d1-545d0e92d2e2" y1="25" x2="-72" y2="25"/><line class="b0bc6543-b0c8-4a73-96d1-545d0e92d2e2" y1="61" x2="-72" y2="61"/><line class="b1ab8ec3-846e-4537-8631-c073e137cd54" y1="30" x2="-72" y2="30"/><line class="b1ab8ec3-846e-4537-8631-c073e137cd54" y1="66" x2="-72" y2="66"/><line class="b1ab8ec3-846e-4537-8631-c073e137cd54" y1="18" x2="-72" y2="18"/><line class="b1ab8ec3-846e-4537-8631-c073e137cd54" y1="54" x2="-72" y2="54"/><line class="b0bc6543-b0c8-4a73-96d1-545d0e92d2e2" y1="23" x2="-72" y2="23"/><line class="b0bc6543-b0c8-4a73-96d1-545d0e92d2e2" y1="59" x2="-72" y2="59"/><line class="b1ab8ec3-846e-4537-8631-c073e137cd54" y1="28" x2="-72" y2="28"/><line class="b1ab8ec3-846e-4537-8631-c073e137cd54" y1="64" x2="-72" y2="64"/><line class="f7de448d-c08f-4e47-9127-daba32adaec0" x1="20" y1="-72" x2="20"/><line class="f7de448d-c08f-4e47-9127-daba32adaec0" x1="56" y1="-72" x2="56"/><line class="b0bc6543-b0c8-4a73-96d1-545d0e92d2e2" x1="25" y1="-72" x2="25"/><line class="b0bc6543-b0c8-4a73-96d1-545d0e92d2e2" x1="61" y1="-72" x2="61"/><line class="f7de448d-c08f-4e47-9127-daba32adaec0" x1="30" y1="-72" x2="30"/><line class="f7de448d-c08f-4e47-9127-daba32adaec0" x1="66" y1="-72" x2="66"/><line class="f7de448d-c08f-4e47-9127-daba32adaec0" x1="18" y1="-72" x2="18"/><line class="f7de448d-c08f-4e47-9127-daba32adaec0" x1="54" y1="-72" x2="54"/><line class="b0bc6543-b0c8-4a73-96d1-545d0e92d2e2" x1="23" y1="-72" x2="23"/><line class="b0bc6543-b0c8-4a73-96d1-545d0e92d2e2" x1="59" y1="-72" x2="59"/><line class="f7de448d-c08f-4e47-9127-daba32adaec0" x1="28" y1="-72" x2="28"/><line class="f7de448d-c08f-4e47-9127-daba32adaec0" x1="64" y1="-72" x2="64"/><line class="b0bc6543-b0c8-4a73-96d1-545d0e92d2e2" x1="42" y1="-72" x2="42"/><line class="b0bc6543-b0c8-4a73-96d1-545d0e92d2e2" x1="6" y1="-72" x2="6"/></pattern></defs><g id="b2726ddb-2410-4b16-add5-16007e93671d" data-name="iPad_Layer_-_144_px"><path id="bed51101-11ff-4fe5-8fc6-f9ce6a6eed35" data-name="Tie" class="e91bc01c-e5c3-47de-bbb9-860ec667faba" d="M51,49h3l2,1,1,1a13.35,13.35,0,0,0-2,0,10.56,10.56,0,0,1-1,2v1h0s1.63,2.4,2,3a20.72,20.72,0,0,1,1,2,9.3,9.3,0,0,1,1,4c.38,3-1,12-1,12s-3.69-5-5-7c-.69-1-3-5-3-5l1-4a20.72,20.72,0,0,1,1-2c.3-.73,1-2,1-2a3,3,0,0,0,0-1,15.12,15.12,0,0,0-2-2c-.29-.31-1-1-1-1l1-1Z"/><path id="e1f6182d-82b5-4477-acd8-96ce9052854a" data-name="Shirt_Collar" class="b69e4bde-a329-4131-8648-389f3915ba4c" d="M43,40a4.83,4.83,0,0,0-1,1c-.48,1.15-1,.84-1,4a8.83,8.83,0,0,0,0,2c.35,1.47,1.29,2.59,2,4l3,6s3-5,4-7a2.67,2.67,0,0,1,1-1,7.44,7.44,0,0,1,2,0,4.77,4.77,0,0,1,1,0,12.09,12.09,0,0,1,3,2c.55.45,2,2,2,2s0-4.5,0-6a38.12,38.12,0,0,0,0-4c-.13-1-1-4-1-4s0,.75,0,1a13.39,13.39,0,0,1-1,3,18.87,18.87,0,0,1-2,3c-.46.54-1.34,1.74-2,2a4.36,4.36,0,0,1-2,0,20.27,20.27,0,0,1-5-2,7.92,7.92,0,0,1-2-2A22.42,22.42,0,0,1,43,40Z"/><polygon id="b69fb8f1-676f-4e85-9fd0-a0a39b7dc427" data-name="Left_Shirt" class="bc6a5984-7439-4daa-a57f-479064e2f253" points="49 63 46 57 49.39 51.54 52 54 51.46 56.61 50 60 49 63"/><path id="a2596073-0dfb-4621-a77b-0a974f939cc1" data-name="Right_Shirt" class="bc6a5984-7439-4daa-a57f-479064e2f253" d="M58,63l1-6V53l-2.34-2.22a3.21,3.21,0,0,0-.45-.05,1.64,1.64,0,0,0-.73.05A4.38,4.38,0,0,0,54,53a2.59,2.59,0,0,0,0,1c.47,1.38,2.44,3.65,3,5A37,37,0,0,1,58,63Z"/><path id="b4a46876-048c-4f62-a315-64941e2cf029" data-name="Left_Lens" class="beae877f-7ae8-4bbf-bdb1-778f196527f6" d="M44,24c.21-.21.59-.87,1-1,.69-.22,1.5.15,2,.06,1.06-.2,4.22-.8,5-.06.46.43-.57,2-.68,2.58s.24,3-.32,3.42c-1.13.81-4.84.76-6,0a16.43,16.43,0,0,1-2-2c-.15-.36.57-1.09.54-1.47A2.63,2.63,0,0,1,44,24Z"/><polyline id="adbb2bef-073d-4089-977d-de1f26dbd8e4" data-name="Right_Middle_Flap" class="a2b5d893-eaa0-43e6-9ce1-441b2acaa081" points="70 53 68 52 65.65 50.78 62.72 49 60.58 48 62.91 57 63.58 61.83 64 64 65 70 67 82 68.35 88.5 71 99 71 94.58 71.32 91.64 71.32 80.32 71 71.28 70.39 63 70 55 70 53"/><path id="ea47c4bd-6326-40d9-bd3e-a459b2120dbe" data-name="Right_Lens" class="beae877f-7ae8-4bbf-bdb1-778f196527f6" d="M53.09,23.06c.37-.68,2.14-1,2.91-1.06s2.48-.54,3,0c.35.36,0,.5,0,1a8.24,8.24,0,0,0,0,1,5.38,5.38,0,0,1,0,1c0,1-1.31,2.9-2,3-.2,0-.69,0-1,0a2.22,2.22,0,0,1-1,0,3.51,3.51,0,0,1-1-1c-.22-.42-.33-2-.5-2.24C53,24,52.89,23.44,53.09,23.06Z"/><g id="bae0f4fc-0ef8-44f3-9791-9cd592048252" data-name="Left_Eyebrow"><path class="f310c32c-85d5-4814-8679-fa39dc644072" d="M43.32,23.06S44.4,21.28,45,21a7.22,7.22,0,0,1,3.72,0c.6.17,2.09.41,2.28,1,0,.16-.31.59-.31.59l-3.26-.13Z"/><path class="e147805f-4508-4e5e-af32-c2dd3fda0c67" d="M43.31,23s0,0,0,0v0Z"/><path class="e147805f-4508-4e5e-af32-c2dd3fda0c67" d="M43.48,23s.06-.05,0-.08,0,0,0,.06-.05,0-.05,0,0,0,0,0a.13.13,0,0,0,.12,0S43.48,23,43.48,23Z"/><path class="e147805f-4508-4e5e-af32-c2dd3fda0c67" d="M45.89,22.73h0Z"/><path class="e147805f-4508-4e5e-af32-c2dd3fda0c67" d="M47.38,22.54h0Z"/><path class="e147805f-4508-4e5e-af32-c2dd3fda0c67" d="M47.62,22.57h0Z"/><path class="e147805f-4508-4e5e-af32-c2dd3fda0c67" d="M45.89,22.73h0Z"/><polygon class="e147805f-4508-4e5e-af32-c2dd3fda0c67" points="43.8 22.9 43.78 22.91 43.8 22.91 43.8 22.9"/><path class="e147805f-4508-4e5e-af32-c2dd3fda0c67" d="M45.24,22.85h0Z"/><path class="e147805f-4508-4e5e-af32-c2dd3fda0c67" d="M44.74,22.93s0,0,0,0,0,0,0,0S44.73,22.92,44.74,22.93Z"/><path class="e147805f-4508-4e5e-af32-c2dd3fda0c67" d="M43.93,23h0Z"/><path class="e147805f-4508-4e5e-af32-c2dd3fda0c67" d="M45.6,22.81h0Z"/><path class="e147805f-4508-4e5e-af32-c2dd3fda0c67" d="M43.75,22.64h0Z"/><polygon class="e147805f-4508-4e5e-af32-c2dd3fda0c67" points="43.31 23.05 43.31 23.05 43.3 23.04 43.31 23.05"/><path class="e147805f-4508-4e5e-af32-c2dd3fda0c67" d="M48.09,22.63Z"/><path class="e147805f-4508-4e5e-af32-c2dd3fda0c67" d="M50.23,21.29s-.09,0,0,.06S50.28,21.33,50.23,21.29Z"/><path class="e147805f-4508-4e5e-af32-c2dd3fda0c67" d="M43.81,22.9h0Z"/><polygon class="e147805f-4508-4e5e-af32-c2dd3fda0c67" points="50.2 21.35 50.2 21.35 50.21 21.35 50.2 21.35"/><path class="e147805f-4508-4e5e-af32-c2dd3fda0c67" d="M49.17,22.65h0Z"/><path class="e147805f-4508-4e5e-af32-c2dd3fda0c67" d="M48.37,22.58h0Z"/><path class="e147805f-4508-4e5e-af32-c2dd3fda0c67" d="M49.59,22.63h0Z"/><polygon class="e147805f-4508-4e5e-af32-c2dd3fda0c67" points="50.03 22.64 50.02 22.64 50.01 22.64 50.03 22.64"/><path class="e147805f-4508-4e5e-af32-c2dd3fda0c67" d="M44.52,21.58h0S44.47,21.64,44.52,21.58Z"/><path class="e147805f-4508-4e5e-af32-c2dd3fda0c67" d="M43.8,22.92s0,0,0,0h0Z"/><path class="e147805f-4508-4e5e-af32-c2dd3fda0c67" d="M49.62,22.41h0Z"/><path class="e147805f-4508-4e5e-af32-c2dd3fda0c67" d="M47.32,20.89h0Z"/><path class="e147805f-4508-4e5e-af32-c2dd3fda0c67" d="M49.89,22.42l0,0h0Z"/><path class="e147805f-4508-4e5e-af32-c2dd3fda0c67" d="M44.49,21.58Z"/><path class="e147805f-4508-4e5e-af32-c2dd3fda0c67" d="M44.26,22s0,0,0-.07,0,0,.07,0,0-.1,0-.12h0c0-.06.09-.12.1-.19h0l-.05,0s0-.05.05-.05,0,0,0,0v0s0,0,0,0a.56.56,0,0,1,.1-.15s-.07.09,0,.06l-.06.05c.08,0,0,0,0,0s.06-.09.13-.15,0,0,0,0,.13,0,.17-.1,0-.07,0-.1v.05c.07-.05,0-.08.1-.1s0,0,0,0,0,0,.06-.06l0,0A1.58,1.58,0,0,1,45.3,21s0,0,0,0a1.11,1.11,0,0,1,.4-.06l0,0s0,0,0,0,0,0,0,0,0,0,0,0a.67.67,0,0,1,.34-.05h0c.07,0,.08-.07.15,0h0a1.67,1.67,0,0,1,.46,0s.15,0,.16,0a1.31,1.31,0,0,0,.19.07s.06,0,.1,0v0l.06,0,0,0h0s0,0,0,0,.14,0,.14.05h.15s0,0,0,0,0,0,.09,0,0,0,0,0a.4.4,0,0,0,.17,0v0l.34,0s0-.06,0-.05v0s0,0,0,0,0,0,0,0h.06s0,0,0,0,.09,0,.13,0h0l.27,0s0,0,.07,0,.15.07.23.09,0,0,.06,0,.08,0,0,.05l.26,0s0,0,0,0,0,0,0,0h0c.15,0,.31.15.44.14h.12s0,0,0,0,.19.07.3.08.28.1.35.2v0s0,0,0,0,0,0,0,0c.2.08.41.37.27.42s.07.09,0,.16v0a1.06,1.06,0,0,1-.13.22h-.18s0,0,0,0-.14,0-.15,0,0,0,0,0-.1,0-.12,0,0,0,0,0-.12,0-.1,0-.13,0-.19,0-.12,0-.13,0-.12,0-.17,0,0,0,0,0-.1,0-.09,0-.19,0-.24,0l-.43,0c0-.05.15,0,.15-.05a1.27,1.27,0,0,1-.33,0s0,0,0,0-.25,0-.37,0h0s0,0,0,0h0s-.09.06-.1.07-.11,0,0-.09,0,0,0,0,0,0,0,0,0,0-.13,0,0,0,0,0a.21.21,0,0,1-.14,0s0,0,0,0a1.37,1.37,0,0,1-.29,0s0,0-.05-.06h-.06l0,0h-.16l0,0-.11,0h.06c-.05,0,0,.05-.06.05s-.06,0-.09,0h0a.12.12,0,0,1-.09,0s0,0,0-.05-.12,0-.15.06,0,0,0,0l0,0s0,0,0,0,0,0-.06,0h0c-.09,0-.17,0-.26,0s.07,0,0-.05a2.37,2.37,0,0,1-.36.09h0c0,.06-.09,0-.15,0s0,0,0,0a.94.94,0,0,0-.28.07l0,0h-.18s0,0,0,0c-.17-.06-.29.08-.44,0,0,0,0,0,0,0l-.12,0s0,0,0,0a.19.19,0,0,1-.08,0s0,0,0,0,0,0,0,0,0,0-.09,0h0a.24.24,0,0,1-.09,0s0,0,0,0-.08.07-.13.05l.07,0a.15.15,0,0,0-.09,0h-.06c0,.08-.12,0-.19.09s0,0,0-.06-.06,0,0,0-.07,0-.11,0,0,0,0,0,0,0,0,0-.18,0-.28,0-.11.07-.19.1,0,0,0,0a.17.17,0,0,0-.12,0l0,0s0,0-.07,0l0-.05-.12.06s0,0,0,0-.12,0-.13.07h0s0,0,0,0a.05.05,0,0,1,.07,0h0c0,.06.12,0,.18,0l0,.05.06-.05s0,0,0,0,0,0,.08,0,0,0,0,0l0,0s0,0,0,0,.12-.05.15,0h0c.1,0,0,0,.08-.08l.07.06v0h0s0,0,0,0,.15,0,.17,0-.06,0,0,0,.06,0,.12,0-.07,0,0,0,.1,0,.14,0,.09,0,.16-.05.13,0,.2,0h0s.07,0,.12-.05,0,0,0,0h0s0,0,.05,0v0a1,1,0,0,1,.2,0s-.07-.06,0-.09,0,0,0,.05,0,0,0,0l0,0s0,0,0,0,0,0,0,0h0l.09,0s0,0,0,0,0,0,.06,0,0,0,0,0,0,0,0,0,.15,0,.11-.05h0c.1-.05.22,0,.32,0h0a.76.76,0,0,0,.18-.06s0,0,0,0a.15.15,0,0,1,.12,0c-.05,0,0,0-.05,0a.18.18,0,0,0,.14,0s.05,0,.08,0l0,0h.09v0c.13,0,.21-.1.32-.05s-.07,0-.05,0,.13,0,.15,0,.06-.05.15-.05,0,0,0-.06.08,0,0,.05h0s0,0,0,0h0s.08,0,.08,0,0,0,0,0,0,0,0,0h0a.9.9,0,0,0,.18,0s0,0,0,0,0,0,.12,0,0,0,.07,0,0,0,0,0,.14,0,.18,0h0l0,0s0,0,0,0,0,0,0-.06.08,0,.09,0,0,0-.06,0a0,0,0,0,1,.05,0h0c.09,0,0,0,.13,0s0,0,0,0,0,0,0,0,.07,0,.1,0h0l.09,0s0,0,0,0,.1,0,.17,0,0,0,0,0,.08,0,.15,0,0,0,0,0h-.12l.08,0h-.1s0,0,0,0,.1,0,.15,0v.06c.09,0,.16,0,.27,0h0s.07,0,.11,0,0,0,0,0,.08,0,.1,0l.05,0c.09,0,.1-.05.19,0s0,0,0,.05.06,0,.06,0,.08,0,.11,0,0,0,.05,0h0s0,0,0,0,.25,0,.33.06h.2s0,0,0,0,0-.06.14,0-.05,0,0,0,.11,0,.17,0h0c.05,0,.11,0,.23,0h0l.13-.24s0,0,0,0,0,0,0-.07.06,0,.08,0l0,.06c.05,0,.05-.07.07-.1h0c0-.09,0-.1.06-.21h0c0-.07,0-.05,0-.12l0,0a.76.76,0,0,0-.15-.17.33.33,0,0,1,.15.12S51,21.8,51,21.8s0,0,0,0a.42.42,0,0,1-.16-.11c.06-.05-.15-.14-.16-.22s-.24-.14-.38-.19c0,.08-.05,0-.06.05l0,0-.09-.07s0,0,0,0,0,0-.07-.07,0,0-.07,0l.05,0c-.11,0-.07-.08-.19-.08h0c-.06,0-.2-.06-.27,0s0,0,0,0-.3,0-.39-.08h0s-.05,0-.07,0,0,0,0,0a.19.19,0,0,1-.1,0h0c-.12-.05-.2,0-.31,0s-.08-.08-.13-.1h0a1.93,1.93,0,0,0-.41,0,1.91,1.91,0,0,0-.43-.11s0,0,0,0-.09,0-.08,0h0s-.09,0-.14,0l0,0c-.13-.09-.36,0-.43-.08s-.08,0-.11,0v0l-.25,0,0,0c-.06,0-.08.08-.14.09l0-.05a.92.92,0,0,0-.33,0s0,0,0,0-.21,0-.19,0-.11,0-.17,0v0a.2.2,0,0,1-.12.07s0,0,0,0,0,0-.11,0l0,0c-.06,0,0,0-.08,0s-.11,0-.12,0a.08.08,0,0,1-.07,0s0,0,0,0-.14.06-.21,0h0l.13,0s-.07,0,0-.06a.52.52,0,0,1-.18.1h-.1s-.07,0-.1,0,0,0,0,0h0l.08,0s0,.05-.08,0l0,.06c-.05,0-.14,0-.16,0a.51.51,0,0,0-.21.23s0,0,0,0,0,0,0,0-.12.12-.1.15,0-.05,0,0h0c-.18.09-.14.28-.32.39h0c-.17.16-.26.39-.44.55a.19.19,0,0,0,0,.11h0v.08c0,.09-.15.09-.18.22h0s-.07.12-.09.1,0,0,0,0h0l0,.1c-.06.07,0,0-.12.06s0,.13,0,.12,0,0,0,0l0,0s.06.08.14,0l0-.07h0l0,.05s0,0,0-.07h0v-.08s0,0,0,0,0,0,0-.05.05,0,.05,0,0,0,0,0,0-.08,0-.11.06-.1.09-.08a.37.37,0,0,1,0-.09c0,.07.07-.1.11-.06s.07-.14.1-.21a0,0,0,0,1,0,0s0,0,.07-.06,0-.08,0-.13,0,.06.06.06,0-.09,0-.09,0,0,.07,0,0,0,0-.08,0,0,.08,0S44.26,22,44.26,22Zm1-1Zm.12,0h-.05s0,0,0,0S45.4,20.93,45.42,20.94Zm-.32-.11h0l0,0h0Z"/><path class="e147805f-4508-4e5e-af32-c2dd3fda0c67" d="M45.08,20.88h0Z"/><polygon class="e147805f-4508-4e5e-af32-c2dd3fda0c67" points="45.87 22.73 45.87 22.73 45.87 22.73 45.87 22.73"/><polygon class="e147805f-4508-4e5e-af32-c2dd3fda0c67" points="47.18 20.9 47.18 20.89 47.17 20.9 47.18 20.9"/><path class="e147805f-4508-4e5e-af32-c2dd3fda0c67" d="M45.15,22.74h0Z"/><path class="e147805f-4508-4e5e-af32-c2dd3fda0c67" d="M44.85,22.78h0Z"/><path class="e147805f-4508-4e5e-af32-c2dd3fda0c67" d="M44.61,22.8h0Z"/><path class="e147805f-4508-4e5e-af32-c2dd3fda0c67" d="M48.36,22.39h0Z"/><path class="e147805f-4508-4e5e-af32-c2dd3fda0c67" d="M47.23,22.45l0,0S47.23,22.43,47.23,22.45Z"/><polygon class="e147805f-4508-4e5e-af32-c2dd3fda0c67" points="49.61 22.41 49.61 22.41 49.62 22.41 49.61 22.41"/><path class="e147805f-4508-4e5e-af32-c2dd3fda0c67" d="M47.32,22.42h0Z"/><polygon class="e147805f-4508-4e5e-af32-c2dd3fda0c67" points="43.59 22.93 43.58 22.93 43.58 22.93 43.59 22.93"/><path class="e147805f-4508-4e5e-af32-c2dd3fda0c67" d="M43.58,22.93h0Z"/><path class="e147805f-4508-4e5e-af32-c2dd3fda0c67" d="M43.54,23h0Z"/><path class="e147805f-4508-4e5e-af32-c2dd3fda0c67" d="M43.9,22.9h0Z"/><path class="e147805f-4508-4e5e-af32-c2dd3fda0c67" d="M44,22.88h-.09S44,22.9,44,22.88Z"/><path class="e147805f-4508-4e5e-af32-c2dd3fda0c67" d="M44.41,23h-.08s0,0,0,0S44.31,23,44.41,23Z"/><path class="e147805f-4508-4e5e-af32-c2dd3fda0c67" d="M44.66,22.93s0,0,0,0S44.69,22.93,44.66,22.93Z"/><path class="e147805f-4508-4e5e-af32-c2dd3fda0c67" d="M46.43,22.67v0S46.43,22.69,46.43,22.67Z"/><polygon class="e147805f-4508-4e5e-af32-c2dd3fda0c67" points="46.75 22.49 46.71 22.48 46.7 22.51 46.75 22.49"/><polygon class="e147805f-4508-4e5e-af32-c2dd3fda0c67" points="46.97 22.65 46.96 22.65 47.01 22.63 46.97 22.65"/><path class="e147805f-4508-4e5e-af32-c2dd3fda0c67" d="M50,22.67v0S49.91,22.67,50,22.67Z"/><path class="e147805f-4508-4e5e-af32-c2dd3fda0c67" d="M51.06,22.14a.08.08,0,0,0,0-.09A.92.92,0,0,0,51.06,22.14Z"/><polygon class="e147805f-4508-4e5e-af32-c2dd3fda0c67" points="47.54 20.67 47.57 20.67 47.52 20.67 47.54 20.67"/></g><g id="b969d84c-a203-4261-93fb-0e51cef4d03e" data-name="Right_Eyebrow"><path class="f310c32c-85d5-4814-8679-fa39dc644072" d="M53.67,22.25A4.73,4.73,0,0,1,54.09,21,4.39,4.39,0,0,1,56,20a2.25,2.25,0,0,1,1,0,5.4,5.4,0,0,1,1,1l-3,1Z"/><path class="e147805f-4508-4e5e-af32-c2dd3fda0c67" d="M53.66,22.19s0,0,0,0v0Z"/><path class="e147805f-4508-4e5e-af32-c2dd3fda0c67" d="M53.77,22.23s0-.05,0-.08,0,0,0,.06a0,0,0,0,1,0,0s0,0,0,0a0,0,0,0,0,.07,0S53.77,22.22,53.77,22.23Z"/><path class="e147805f-4508-4e5e-af32-c2dd3fda0c67" d="M55.23,22h0Z"/><path class="e147805f-4508-4e5e-af32-c2dd3fda0c67" d="M56.11,21.7a0,0,0,0,0,0,0Z"/><path class="e147805f-4508-4e5e-af32-c2dd3fda0c67" d="M56.27,21.68h0Z"/><path class="e147805f-4508-4e5e-af32-c2dd3fda0c67" d="M55.23,22h0Z"/><path class="e147805f-4508-4e5e-af32-c2dd3fda0c67" d="M54,22.11h0Z"/><path class="e147805f-4508-4e5e-af32-c2dd3fda0c67" d="M54.84,22.1h0Z"/><path class="e147805f-4508-4e5e-af32-c2dd3fda0c67" d="M54.54,22.17v0s0,0,0,0Z"/><path class="e147805f-4508-4e5e-af32-c2dd3fda0c67" d="M54,22.21h0Z"/><path class="e147805f-4508-4e5e-af32-c2dd3fda0c67" d="M55.07,22.06h0Z"/><path class="e147805f-4508-4e5e-af32-c2dd3fda0c67" d="M53.88,21.94h0Z"/><polygon class="e147805f-4508-4e5e-af32-c2dd3fda0c67" points="53.66 22.25 53.66 22.25 53.65 22.24 53.66 22.25"/><path class="e147805f-4508-4e5e-af32-c2dd3fda0c67" d="M56.55,21.63Z"/><path class="e147805f-4508-4e5e-af32-c2dd3fda0c67" d="M57.36,20.12s-.06,0,0,.05S57.38,20.16,57.36,20.12Z"/><path class="e147805f-4508-4e5e-af32-c2dd3fda0c67" d="M54,22.11h0Z"/><polygon class="e147805f-4508-4e5e-af32-c2dd3fda0c67" points="57.32 20.17 57.32 20.17 57.32 20.17 57.32 20.17"/><path class="e147805f-4508-4e5e-af32-c2dd3fda0c67" d="M57.18,21.4h0Z"/><path class="e147805f-4508-4e5e-af32-c2dd3fda0c67" d="M56.7,21.52h0Z"/><path class="e147805f-4508-4e5e-af32-c2dd3fda0c67" d="M57.41,21.28h0Z"/><polygon class="e147805f-4508-4e5e-af32-c2dd3fda0c67" points="57.66 21.2 57.65 21.19 57.65 21.2 57.66 21.2"/><path class="e147805f-4508-4e5e-af32-c2dd3fda0c67" d="M54.12,21.19h0S54.1,21.23,54.12,21.19Z"/><path class="e147805f-4508-4e5e-af32-c2dd3fda0c67" d="M54,22.13v0h0Z"/><path class="e147805f-4508-4e5e-af32-c2dd3fda0c67" d="M57.35,21.07h0Z"/><path class="e147805f-4508-4e5e-af32-c2dd3fda0c67" d="M55.63,20.23h0Z"/><path class="e147805f-4508-4e5e-af32-c2dd3fda0c67" d="M57.51,21h0Z"/><path class="e147805f-4508-4e5e-af32-c2dd3fda0c67" d="M54.09,21.19Z"/><path class="e147805f-4508-4e5e-af32-c2dd3fda0c67" d="M54.05,21.46s0,0,0-.05,0,0,.06,0,0-.07,0-.09a0,0,0,0,1,0,0s0-.08,0-.13h0l-.05,0s0,0,0,0,0,0,0,0v0s0,0,0,0,0-.09,0-.1,0,.05,0,0l0,0c.06,0,0,0,0,0s0-.06,0-.08,0,0,0,0,.1,0,.11-.05,0-.07,0-.08v0s0-.06.05-.08a.07.07,0,0,1,0,0c.05,0,0,0,0-.05l0,0,.12-.14s0,0,0,0a.49.49,0,0,1,.23-.11v0s0,0,0,0,0,0,0,0,0,0,0,0A.28.28,0,0,1,55,20.5h0c.05,0,0-.07.07-.07h0c.09,0,.18-.1.26-.09s.1,0,.08-.08a.27.27,0,0,0,.13,0s0,0,0-.06v0l0,0,0,0,0,0h0s.1,0,.1,0l.08,0,0,0s0,0,0,0,0,0,0,0,.08,0,.11,0v0l.19-.05a0,0,0,0,1,0-.05v0s0,0,0,0,0,0,0,.05l0,0v0s.06,0,.07,0h0l.16,0s0,0,0-.05a.32.32,0,0,0,.14,0s0,0,0,0,0,0,0,0l.15,0s0,0,0,0a0,0,0,0,1,0,0h0c.11,0,.16.1.22.09h.07s0,0,0,0,.09.08.16.1.13.13.15.21v0s0,0,0,0,0,0,0,0a1.53,1.53,0,0,1,.29.37s.1,0,.09,0h0s0,0,0,.05v0s0,0,0,0v0s0,0-.05,0h0s-.07,0,0,0-.08,0-.12,0-.07,0-.06,0-.09,0-.1,0,0,0,0,0-.05,0,0,.05-.09.08-.15,0l-.23.13s.09,0,.07-.08-.1.1-.18.11,0,0,0,0-.14,0-.2.09v0s0,0,0,0h0s0,.07,0,.09-.07,0,0-.08,0,0,0,0,0,0,0,0,0,0-.06.06,0,0,0,0,0,.05-.07.05,0,0,0,0-.09.08-.16.09,0,0,0,0l0,0h0s0,0-.08,0l0,0-.06,0h0s0,0,0,.05,0,0,0,0h0a.07.07,0,0,1,0,0s0-.05,0-.05-.07,0-.08.07,0,0,0,0v0s0,0,0,0,0,0,0,0h0c-.06,0-.1.05-.15.05s0,0,0,0-.13.09-.2.1h0c0,.06-.06,0-.08,0v0a.68.68,0,0,0-.16.09v0l-.11,0s0,0,0,0A.12.12,0,0,0,55,22s-.08,0-.12,0,0,0,0,0l-.07,0s0,0,0,0,0,0,0,0,0,0,0,0v0c-.05,0,0,0-.05,0h0l-.06,0s0,0,0,0,0,.06-.08,0l0,0a.07.07,0,0,0-.06,0h0c0,.07-.07,0-.11.08s0,0,0-.06,0,0,0,0,0,0-.06,0,0,0,0,0,0,0,0,0-.11,0-.17,0-.06.06-.11.08,0,0,0,0a.11.11,0,0,0-.08,0s0,0,0,0,0,0,0,0a.09.09,0,0,1,0-.05l-.07.05s0,0,0,0-.08,0-.08.06h0s0,0,0,0,0,0,0,0h0s.08,0,.12,0v.05l0-.05s0,0,0,.05,0,0,0,0h0l0,0s0,0,0,0,.07,0,.1,0h0c.07,0,0,0,.05-.07l0,.07v0s0,0,0,0,0,0,0,0,.09,0,.11,0,0,0,0,0,0,0,.08,0,0,0,0,0,.06,0,.08,0,0,0,.09,0,.09,0,.13,0h0s0,0,.07-.05,0,0,0,0h0l0,0v0s.07-.05.12,0,0-.06,0-.09,0,0,0,0h0l0,0s0,0,0,0h0l0,0h0a.06.06,0,0,1,.06,0,0,0,0,0,1,0,0s0,0,0,0,0,0,0,0l0,0s.08,0,0-.06h0c.05,0,.13,0,.19-.06h0s.08,0,.1-.06,0,0,0,0,0,0,.07,0,0,0,0,0,.06,0,.09,0,0,0,0,0h0v0c.09,0,.11-.11.19-.06s0,0,0,0a.41.41,0,0,1,.1,0s0-.06.08-.07a0,0,0,0,1,0-.06s.05,0,0,.05h0s0,0,0,0h0s.07,0,.06,0,0,0,0,0a.53.53,0,0,0,.12,0h0c.07,0,0,0,.06-.05s0,0,0,0,0,0,0,0,.08,0,.1,0h0l0,0s0,0,0,0,0,0,0-.06,0,0,.06,0,0,0,0,.05h0c.06,0,0-.05.07-.06s0,0,0,0,0,0,0,0,0,0,.06,0h0s0,0,0,0,0,0,0,0,.07,0,.1,0,0,0,0,0,.06,0,.09,0,0,0,0,0l-.07,0,0,0-.06,0s0,0,0,0,0,0,.09,0l0,.05c.06,0,.08-.06.15-.06h0s0,0,.05,0,0,0,0,0,0,0,0-.05h0s0-.07.09-.08,0,0,0,.06,0,0,0,0,0,0,.06,0,0,0,0,0h0s0,0,0,0,.14-.05.2,0l.11-.05s0,0,0,0,0-.06.08-.06,0,0,0,0,.08,0,.17,0h0a.14.14,0,0,0,.11-.08h0a1.81,1.81,0,0,1-.19-.15s0,0,.06,0,0,0-.09,0,0-.05,0-.07l0,0s-.05-.06-.06-.07h0s-.07,0-.11-.07h0s0,0,0,0l0,0-.11-.06.11,0a.18.18,0,0,0-.08-.05l0,0a.16.16,0,0,1-.11,0c.06-.05-.06-.1,0-.17s-.11-.12-.18-.18,0,0-.06,0l0,0,0-.07s0,0,0,0,0,0,0-.07,0,0-.05,0l0,0c-.08,0,0-.08-.1-.1h0s-.12-.09-.18-.06,0,0,0,0-.21,0-.28,0h0s0,0-.05,0,0,0,0,0,0,0-.06,0v0c-.08,0-.12,0-.19.05s-.07-.05-.1-.06h0a.68.68,0,0,0-.24.08c-.06,0-.19,0-.28,0s0,0,0,0-.05.05-.05,0h0s-.06,0-.09,0V20c-.11,0-.21.09-.27.05s0,0-.05.05v0a.32.32,0,0,0-.15.06v0s0,.1,0,.11l0,0c-.06,0-.14,0-.19.09s0,0,0,0-.13,0-.09.07-.07,0-.09.07v0a.12.12,0,0,1,0,.08s0,0,0,0,0,0-.06,0v0s0,0,0,0-.07,0-.08,0a.05.05,0,0,1,0,.05v0c-.06,0-.06.07-.11.07h0l.07,0s-.05,0,0-.05,0,.1-.08.11h0a0,0,0,0,0,0,0h0s-.05,0-.06,0,0,0,0,0h0l0,0a0,0,0,0,1,0,0v0s-.1,0-.12,0-.1.1-.09.16,0,0,0,0,0,0,0,0-.06.08,0,.11,0,0-.05,0v0c-.13.08,0,.22-.13.3h0c-.09.12-.07.29-.16.41s0,0,0,.07h0l0,.05c0,.06-.1.08-.07.17h0s0,.09,0,.08,0,0,0,0h0l0,.07c0,.05-.06,0-.08.05s0,.09,0,.08,0,0,0,0v0c.05,0,.09,0,.13,0l0,0h0v0s0,0,0,0h0l0-.05s0,0,0,0,0,0,0,0,0,0,0,0,0,0,0,0,0-.06,0-.08,0-.07,0-.06a.2.2,0,0,1,0-.06c0,.05,0-.07.08-.05s0-.09,0-.14h0a.08.08,0,0,1,0,0s0-.06,0-.08,0,0,.07,0,0-.06,0-.06,0,0,0,0,0,0,0-.05.05,0,0,0S54.05,21.46,54.05,21.46Zm.46-.71Zm.06-.05,0,0s0,0,0,0S54.56,20.7,54.57,20.7Zm-.25-.06h0v0h0Z"/><rect class="e147805f-4508-4e5e-af32-c2dd3fda0c67" x="54.33" y="20.68" width="0.01" height="0.01" transform="translate(7.29 54.84) rotate(-56.82)"/><polygon class="e147805f-4508-4e5e-af32-c2dd3fda0c67" points="55.22 21.97 55.22 21.97 55.22 21.97 55.22 21.97"/><polygon class="e147805f-4508-4e5e-af32-c2dd3fda0c67" points="55.55 20.27 55.55 20.26 55.55 20.27 55.55 20.27"/><path class="e147805f-4508-4e5e-af32-c2dd3fda0c67" d="M54.78,22h0Z"/><path class="e147805f-4508-4e5e-af32-c2dd3fda0c67" d="M54.59,22h0Z"/><path class="e147805f-4508-4e5e-af32-c2dd3fda0c67" d="M54.45,22h0Z"/><path class="e147805f-4508-4e5e-af32-c2dd3fda0c67" d="M56.63,21.34h0S56.64,21.34,56.63,21.34Z"/><path class="e147805f-4508-4e5e-af32-c2dd3fda0c67" d="M56,21.62v0S56,21.61,56,21.62Z"/><polygon class="e147805f-4508-4e5e-af32-c2dd3fda0c67" points="57.34 21.07 57.34 21.07 57.35 21.07 57.34 21.07"/><path class="e147805f-4508-4e5e-af32-c2dd3fda0c67" d="M56.05,21.59h0Z"/><polygon class="e147805f-4508-4e5e-af32-c2dd3fda0c67" points="53.83 22.13 53.82 22.13 53.82 22.14 53.83 22.13"/><path class="e147805f-4508-4e5e-af32-c2dd3fda0c67" d="M53.82,22.14h0Z"/><path class="e147805f-4508-4e5e-af32-c2dd3fda0c67" d="M53.8,22.15h0Z"/><path class="e147805f-4508-4e5e-af32-c2dd3fda0c67" d="M54,22.11h0Z"/><path class="e147805f-4508-4e5e-af32-c2dd3fda0c67" d="M54.07,22.1s0,0,0,0h0S54.06,22.12,54.07,22.1Z"/><path class="e147805f-4508-4e5e-af32-c2dd3fda0c67" d="M54.34,22.18h-.05s0,0,0,0S54.27,22.18,54.34,22.18Z"/><path class="e147805f-4508-4e5e-af32-c2dd3fda0c67" d="M54.49,22.16s0,0,0,0S54.51,22.17,54.49,22.16Z"/><path class="e147805f-4508-4e5e-af32-c2dd3fda0c67" d="M55.55,21.88v0S55.55,21.9,55.55,21.88Z"/><polygon class="e147805f-4508-4e5e-af32-c2dd3fda0c67" points="55.71 21.69 55.68 21.68 55.68 21.71 55.71 21.69"/><polygon class="e147805f-4508-4e5e-af32-c2dd3fda0c67" points="55.88 21.83 55.88 21.83 55.9 21.81 55.88 21.83"/><path class="e147805f-4508-4e5e-af32-c2dd3fda0c67" d="M57.62,21.24v0S57.6,21.25,57.62,21.24Z"/><path class="e147805f-4508-4e5e-af32-c2dd3fda0c67" d="M57.83,20.68s0,0,0,0Z"/><polygon class="e147805f-4508-4e5e-af32-c2dd3fda0c67" points="55.67 19.96 55.68 19.95 55.65 19.96 55.67 19.96"/></g><polygon id="bb3a2546-bb25-4acc-8ea5-822caed23f60" data-name="Left_Wrist" class="abca42ed-e16a-48cb-9856-378b3f51e674" points="18 121 19 124 20 120 18.76 120 18 120.46 18 121"/><g id="e0359fce-7517-4e11-a818-deee0c772a29" data-name="Hair"><path class="f310c32c-85d5-4814-8679-fa39dc644072" d="M38,26a26.52,26.52,0,0,1-.5-2.94c0-.66-.5-3-.5-4.06a14.92,14.92,0,0,1,.49-3.39,13.24,13.24,0,0,1,1.24-2.74A10.16,10.16,0,0,1,40,11.46,21.81,21.81,0,0,1,42,10a12.45,12.45,0,0,1,2-1,17,17,0,0,1,3.16-.61,10.88,10.88,0,0,1,2.42,0c.38.09,1,.68,1.42.67S52.71,8,52.71,8A6.92,6.92,0,0,0,53,9a3.44,3.44,0,0,0,.67.8c.07.06,1.43,0,1.33.2a9.35,9.35,0,0,1-1,1,5.58,5.58,0,0,1,.9,1A14.32,14.32,0,0,1,55,13.5a10.48,10.48,0,0,0,1.1,2S54.55,13.59,54,13c-.24-.26-.65-.95-1-1-.55-.09-1,0-2,1a6.16,6.16,0,0,1-2,1c-.76.23-1.63-1-3-1a14.29,14.29,0,0,0-2,0,4.8,4.8,0,0,0-2,1,7.64,7.64,0,0,1-1,1s-.9,1.64-1,2,0,0,1,2c.63,1.26,1,1,1,2,0,.39-.54,1-.68,1.39S40.9,24,40.9,24Z"/></g><path id="b43b562a-a4fb-46c3-b093-c25843013a7a" data-name="Forehead" class="abca42ed-e16a-48cb-9856-378b3f51e674" d="M40.9,24s.28-1.18.42-1.56S42,21.39,42,21c0-.56-.71-1.52-1-2s-1-1-1-2a4.45,4.45,0,0,1,1-2,7.27,7.27,0,0,1,1-1,7.65,7.65,0,0,1,2-1,13.35,13.35,0,0,1,2,0c1,0,2.21,1,3,1,.56,0,1.5-.75,2-1s0-1,2-1c.35,0,.79.72,1,1,.48.65,2.1,2.46,2.1,2.46A17.05,17.05,0,0,1,57,17a37,37,0,0,1,1,4,5.4,5.4,0,0,0-1-1,2.25,2.25,0,0,0-1,0,4.39,4.39,0,0,0-1.91,1,4.73,4.73,0,0,0-.42,1.25l-2.35.36-.63,0s.36-.43.31-.59c-.18-.59-1.67-.87-2.28-1-.91-.19-2.89-.43-3.72,0a8.6,8.6,0,0,0-1.68,2.06Z"/><path id="a63650c6-c18d-410c-9d7d-9f7e2127f88c" data-name="Nose" class="fba3bbdc-37e2-410c-83ce-eaeb07e60717" d="M50.38,29.21c-.11.15-.38.44-.38.62,0,1.17.21.75.38.93a1.05,1.05,0,0,0,.62.31c.16,0,.39-.28.55-.3a4.1,4.1,0,0,1,1.16.3L53,32h1c1,0,.63-1.13.9-1.46.06-.07,1,.56,1.1.46s-.58-1-.57-1.13c0-.36-.19-.46-.43-.87a22,22,0,0,1-.72-2.12C54.16,26.55,54,26,54,26l-.5-1.24L53,24l-1-1v1s-.58,1.38-.68,1.58A19,19,0,0,0,51,28,6.28,6.28,0,0,1,50.38,29.21Z"/><path id="ec1f073f-674b-4af6-a18f-7d9995d20c7e" data-name="Ear_Canal_Shadow" class="fba3bbdc-37e2-410c-83ce-eaeb07e60717" d="M39.76,28.59,40,29c.27.49,1,2,1,2a7.52,7.52,0,0,1-1.25.07,3.46,3.46,0,0,1-.75-.3A3.3,3.3,0,0,1,38,30a1.47,1.47,0,0,1,0-1.28C38.3,28.4,39.76,28.59,39.76,28.59Z"/><path id="a63c6f66-8454-41f6-a876-aafa4c791171" data-name="Ear" class="fba3bbdc-37e2-410c-83ce-eaeb07e60717" d="M38,26a1.38,1.38,0,0,0-1,0,1.07,1.07,0,0,0-.39.5,4.72,4.72,0,0,0,0,1.3c0,.35.14,1.06.23,1.41a7.24,7.24,0,0,0,.55,1.56A12.84,12.84,0,0,0,38.5,32a11.44,11.44,0,0,0,.75.94,3.88,3.88,0,0,0,1.25.67,1.35,1.35,0,0,0,.82,0,1.36,1.36,0,0,0,.38-.89,3.88,3.88,0,0,0-.38-1.18c-.18-.37-1.07-2.21-1.32-2.54s1,2,1,2a7.52,7.52,0,0,1-1.25.07,3.46,3.46,0,0,1-.75-.3A3.3,3.3,0,0,1,38,30a1.47,1.47,0,0,1,0-1.28c.3-.32,1.76-.13,1.76-.13A9.18,9.18,0,0,0,39,27,6.25,6.25,0,0,0,38,26Z"/><path id="b2a62b30-9225-4eb5-af73-127022ec31eb" data-name="Neck" class="fba3bbdc-37e2-410c-83ce-eaeb07e60717" d="M43,40a33.12,33.12,0,0,0-.76-4.36l-.92-2,.38-.89.91,2.92.93,2L44.84,39,47,40.76l2,1,2,.44h1.45L55,42l1.1-.79L57,40l1-1a8,8,0,0,1,0,1,13.22,13.22,0,0,1-1,3,22.36,22.36,0,0,1-2,3c-.46.54-1.34,1.74-2,2a4.36,4.36,0,0,1-2,0,20.27,20.27,0,0,1-5-2,7.92,7.92,0,0,1-2-2A7.68,7.68,0,0,1,43,40Z"/><path id="b72f5dfd-cfa9-4859-8e2b-f52fda9f60b9" data-name="Right_Upper_Flap" class="a2b5d893-eaa0-43e6-9ce1-441b2acaa081" d="M60.43,41c-.32-.3-1.09-.73-1.43-1s-1-1-1-1l1,4,1.58,5s1.62.72,2.14,1c.76.4,2.19,1.35,2.93,1.78C66.22,51.11,68,52,68,52l.5-.46L65,47A63.6,63.6,0,0,0,60.43,41Z"/><path id="add12288-83a8-48e2-87ae-211fd41f86eb" data-name="Face" class="fba3bbdc-37e2-410c-83ce-eaeb07e60717" d="M38,25.64c.09-.17.76,0,.76,0L40,26.76s.4,1.06.7,1.24a.9.9,0,0,0,.37,0L41,25l1,.53,1.54.38A6.39,6.39,0,0,0,44.43,28c1.07.89,4.57,1,5.57,0a12.57,12.57,0,0,0,1.32-2.42S51.13,27.4,51,28c-.07.33-.32,1.05-.62,1.21A1.54,1.54,0,0,0,50,30a1.61,1.61,0,0,0,.38.76,1.05,1.05,0,0,0,.62.31c.16,0,.39-.27.55-.3a1.63,1.63,0,0,1,1.16.3c.16.18.29.93,1.29.93.43,0,.47-1.41.9-1.46.24,0,.37-.13.41-.27S55.19,29.49,55,29a1,1,0,0,0-.24-.41A7,7,0,0,1,54,27a4.65,4.65,0,0,1,0-1,5.4,5.4,0,0,0,1,1,6.36,6.36,0,0,0,2,0c.34-.08,2-1,2-2,0-.37,0,1.77,0,2,0,.71.07,2.29,0,3s0,2.28,0,3,0,1,0,2a16.71,16.71,0,0,1-1,4c-.16.39.12-.27,0,0s-.77.73-1,1-.64.93-.9,1.21A4.1,4.1,0,0,1,55,42a11.37,11.37,0,0,1-2.55.24,10,10,0,0,1-1.45,0,11.1,11.1,0,0,1-2-.44,13.15,13.15,0,0,1-2-1A26.14,26.14,0,0,1,44.84,39a8.94,8.94,0,0,1-1.3-1.31,11.82,11.82,0,0,1-.93-2c-.25-.72-.91-2.92-.91-2.92s-.25-.9-.38-1.18-.62-1.08-.82-1.45-.74-1.5-.74-1.5A9.18,9.18,0,0,0,39,27C38.75,26.66,37.78,26,38,25.64Z"/><polygon id="fe8d6d78-675e-4813-89e6-6bc7e8cea4db" data-name="Sleave_Shadow" class="f08df515-3b6a-4ff6-9d55-861b13a84cfa" points="18 120.46 17 121 16.26 122 16.26 122.76 17 124 19 124.48 19 124 18 121 18 120.46"/><path id="acc5cf3e-9fe0-49dd-a502-b1bd4997905d" data-name="Left_Sleave" class="be93260c-c3af-424c-b824-673a4a091a48" d="M16.26,122s-.23-3-.26-4c0-.5,0-1.5,0-2v-2.11c0-.53-1-1.89-1-2.89s1.07-6.51,1-7c-.19-1.26-.36-6.57,0-7a36.59,36.59,0,0,0,2-6c.15-.78.91-2.21,1-3a8.34,8.34,0,0,1,0-1c.15-.54.89-1.45,1-2s-.09-1.45,0-2a34.76,34.76,0,0,0,0-5,33.36,33.36,0,0,1,0-4V59a8.94,8.94,0,0,1,1-4s2.15,6,3,8c1.11,2.56,3.71,7.52,5,10,.52,1,1.59,3,2,4,1.32,3.39,4,14,4,14l-1,7s-.63-5.27-1-7c-.22-1-.87-3-1-4-.06-.5,0-2,0-2s-.16,7.11,0,8a28.16,28.16,0,0,1-1,4,28.51,28.51,0,0,1-1,3c-.23.51-.83,1.47-1,2-.38,1.22-.54,3.81-1,5s-2,11-2,11a20.72,20.72,0,0,0-3,0,6.06,6.06,0,0,0-2,1c-.27.23-.67.88-1,1s-.94-.08-1.24,0a3.5,3.5,0,0,0-.76.46C17.53,120.81,16.26,122,16.26,122Z"/><path id="bc942ef4-3912-415d-a1cf-8d56c01c90c3" data-name="Left_Side_Jacket" class="be93260c-c3af-424c-b824-673a4a091a48" d="M46,105s-.69-3-1-4c-.64-2-2.27-6-3-8-.81-2.23-2.38-6.71-3-9s-1.43-6.77-2-9c-.7-2.76-2.35-8.23-3-11-.29-1.24-1-5-1-5l3.24-2.11L33,56s.8-1.7,1-2a42.24,42.24,0,0,0,2.5-5.33L38,46l1-1L29,50l-6,3a11.82,11.82,0,0,0-2,2s2.15,6,3,8c1.56,3.59,7,14,7,14l4,14-1,7v5s.12,3.76,0,5-1,5-1,5H30l-2,6H26.35L26,118a17.09,17.09,0,0,0-3,0,7.21,7.21,0,0,0-2,1,4.74,4.74,0,0,0-1,1,21.56,21.56,0,0,0-1,4v.48s-.43,6.56,0,8.69a7.43,7.43,0,0,0,1,2.37A10.27,10.27,0,0,0,23,138a4.88,4.88,0,0,0,2,.28A14.88,14.88,0,0,0,28,137c.5-.25,1.53-.7,2-1a46.85,46.85,0,0,0,5-4c.26-.24.75-.75,1-1,.5-.5,1.52-1.48,2-2,.79-.85,2.31-2.61,3-3.54A37,37,0,0,0,44,121a25.73,25.73,0,0,0,1-3,35.75,35.75,0,0,0,1-3.5A88.09,88.09,0,0,0,46,105Z"/><path id="e2352153-a7ac-4806-939b-6271f254af4b" data-name="Outside_Button_2" class="a150efd3-de2c-4270-bb6a-82a318b4495e" d="M44,103c.17,0,.5.22.59.37A7.89,7.89,0,0,1,45,105c-.06.11-.38.17-.5.13-.31-.1-.63-.76-.74-1.06a1.57,1.57,0,0,1,0-.61C43.79,103.34,43.87,103,44,103Z"/><ellipse id="bbc8a851-0d2a-4a5b-ae6a-44564cd90bc6" data-name="Outside_Button_1" class="a150efd3-de2c-4270-bb6a-82a318b4495e" cx="41.5" cy="121.5" rx="0.5" ry="1.5"/><path id="afddc06e-7540-408f-9474-5be228764194" data-name="Lower_Teeth" class="a565732e-2869-4100-9899-a757fa61c3a1" d="M51.32,35.53C51,35.42,49.93,35.35,50,35s2,0,2,0h1l1-1h2s-1.11,1-1.15,1.13a2.5,2.5,0,0,1-1,.87A2.16,2.16,0,0,1,53,36,11,11,0,0,1,51.32,35.53Z"/><path id="ecd88a54-9170-4ad8-be4a-382129c9b757" data-name="Upper_Teeth" class="a15af866-6e7b-4fe1-be53-40bcacf68c64" d="M50,35a12.9,12.9,0,0,1,2-1,5.76,5.76,0,0,1,3,0,3.67,3.67,0,0,0,1,0l-2,1h0l-.93.17L52,35l-.68.17H50"/><path id="a3f34f10-957a-40f3-bdfa-8c98eecded73" data-name="Upper_Left_Trim" class="f08df515-3b6a-4ff6-9d55-861b13a84cfa" d="M40,44l-1,1a13,13,0,0,0-1,1,21.77,21.77,0,0,0-1.5,2.67c-.64,1.32-1.86,4-2.5,5.33-.24.5-1,2-1,2l2,.55s1.22-3,1.61-4,1.3-3.41,1.74-4.54S40,44,40,44Z"/><path id="bfc84e9a-4023-40fb-a2f9-43c97da4d401" data-name="Bottom_Lip" class="a9f885a5-4c29-48d1-891b-00a71c413a92" d="M50,35.07c.43-.59,2.24.62,3,.76a2.63,2.63,0,0,0,.84,0A5.11,5.11,0,0,0,55,34.91c.26-.22.7-1.09,1-.91s.07.68,0,.91a5.11,5.11,0,0,1-1,1.83,2.65,2.65,0,0,1-1.33.26,6.37,6.37,0,0,1-2.35-.68C50.91,36.09,49.73,35.43,50,35.07Z"/><path id="b87b17ba-ea85-4e61-b818-15242635f49b" data-name="Top_Lip" class="a9f885a5-4c29-48d1-891b-00a71c413a92" d="M50,35c-.19-.17.33-.71.5-.91A4,4,0,0,1,52,33a6,6,0,0,1,1.09.21,6.73,6.73,0,0,0,1-.21A2.13,2.13,0,0,1,55,33c.32.18,1.07.92.83,1.21S54,34,54,34c-.36,0-2.65.92-3,1C50.46,35.13,50.42,35.37,50,35Z"/><path id="b820fda8-bd85-44a4-933c-92a8a6547d0b" data-name="Middle_Vest" class="e6636268-5be7-4fba-aafc-4c1815311bc6" d="M45.65,115.74s2.53.9,3.35,1.26c.51.22,1.5.75,2,1a17.76,17.76,0,0,1,2,1,11.38,11.38,0,0,1,1,1s.73-.78,1-1c.7-.57,2.29-1.44,3-2,.55-.44,1.5-1.5,2-2,.71-.71,2.93-2.72,2.93-2.72s.8.55,1.07.72c1.23.78,3.76,2.23,5,3,.76.48,2.31,1.43,3,2s2,2,2,2a11.38,11.38,0,0,1,1-1,15.55,15.55,0,0,1,2-1c.51-.24,2-1,2-1s-2.33-3.71-3-5c-.86-1.66-2.38-5.1-3-6.86-.28-.77-.73-2.35-1-3.14s-.78-2.24-1-3c-.77-2.6-2.06-7.86-2.65-10.5C68,86.88,67.3,83.63,67,82c-.55-3-1.51-9-2-12-.25-1.5-.73-4.5-1-6-.1-.54-.42-2.17-.42-2.17s-.87,3.89-1.26,5.15c-.33,1.08-1.12,3.19-1.57,4.23S59.47,74.08,59,75c-.34.64-1.1,1.88-1.48,2.5-.12.2-.38.61-.5.82L56,80l.5-2.24S53.88,75.68,53,75s-2.69-1.88-3.5-2.61A36.81,36.81,0,0,1,47,69.61c-.76-.9-2.2-2.74-3-3.61-.24-.26-1-1-1-1l1.06,7L46,86l.69,9,.31,6a11.73,11.73,0,0,1,0,2,12.9,12.9,0,0,1-1,2v9.5Z"/><path id="b2bbef11-fb26-4c65-bfb1-4007cee2f90c" data-name="Frames" class="beae877f-7ae8-4bbf-bdb1-778f196527f6" d="M39,25a13.9,13.9,0,0,1,4.54-1.94,28.57,28.57,0,0,1,3.89-.6c1,0,2.91.19,3.89.15a13.28,13.28,0,0,0,2.18-.29A29.56,29.56,0,0,1,58,21h0c.14.06.78-.12,1,0,.87.5,1,2,0,4a12.06,12.06,0,0,1,0-2,3.32,3.32,0,0,0,0-1c-.32-.39-1.5,0-2,0-1,0-3.39.19-3.91,1.06-.22.37,2.29,1.73,1.91,1.94-.2.11-1.81-.87-2-1s-.84-.19-1,0h0c-.16.19-1,1-1,1s.81-1.93.32-1.94-1,0-1.32-.06a18.1,18.1,0,0,0-2,0,21.9,21.9,0,0,0-2.68.26A2.33,2.33,0,0,0,44,24c-.3.42-.08,1.55-.46,1.91s-1.2-.18-1.54-.38A3.45,3.45,0,0,0,41,25a4.34,4.34,0,0,0-2,.53c-.24.14-.86.7-1,.47s-1.14.13-1,0S38.86,25.14,39,25Z"/><path id="a8c49867-f91a-4fe9-8bb2-5e64f11e1bc5" data-name="Middle_Left_Trim" class="f08df515-3b6a-4ff6-9d55-861b13a84cfa" d="M33,59l1.38-.9S35.6,63.27,36,65c1,4.25,3,12.76,4,17,.69,2.77,2.17,8.27,3,11,.23.76.73,2.26,1,3a43.85,43.85,0,0,1,2,6.06A23.22,23.22,0,0,1,46,105s-.31-1.22-.41-1.63c-.14-.6-.41-1.79-.59-2.37-.64-2-2.26-6-3-8-.83-2.22-2.34-6.72-3-9-1.44-5-3.9-15-5-20C33.73,62.75,33,59,33,59Z"/><path id="f717f409-ff8b-497c-baea-e9f766ae124b" data-name="Upper_Right_Trim" class="f08df515-3b6a-4ff6-9d55-861b13a84cfa" d="M61,41h.35L65,45l3,3,2,2-1.5,1.54L65,47l-3-4-1.57-2Z"/><polygon id="b8d231b3-c905-4fb1-a436-d64d3fae777d" data-name="Middle_Right_Trim" class="f08df515-3b6a-4ff6-9d55-861b13a84cfa" points="71 99 71 94.58 71.32 91.64 71.32 85.61 71.32 80.32 71 71.28 70.39 63 70 55 70 53 71.32 53.54 71.54 63 72 69 72 74.02 72.65 88.5 72.65 90.98 72 99 72 102 71 99"/><polygon id="a07477f7-458b-4924-a17a-bda75778d5fe" data-name="Breast_Pocket" class="b29166d8-4a31-4625-a4b7-c699492312fc" points="78 69 79 68 79 66 77.58 67.5 75 69 72.65 70.06 72 70.24 72 72.39 75 71 78 69"/><circle id="bb91c33a-66ba-441a-b72c-c9c5596c37bc" data-name="Vest_Button_1" class="a150efd3-de2c-4270-bb6a-82a318b4495e" cx="58" cy="81" r="1"/><ellipse id="eaaed263-2920-4793-a4c6-17918105a457" data-name="Vest_Button_2" class="a150efd3-de2c-4270-bb6a-82a318b4495e" cx="59.34" cy="88.93" rx="1" ry="0.67" transform="matrix(0.39, -0.92, 0.92, 0.39, -45.63, 109.23)"/><circle id="be3dc0ab-fef5-4131-886a-61b705ba2ecc" data-name="Vest_Button_3" class="a150efd3-de2c-4270-bb6a-82a318b4495e" cx="61" cy="96" r="1"/><circle id="aa7970f1-a8b1-4e90-9e63-b19b1e6358b6" data-name="Vest_Button_4" class="a150efd3-de2c-4270-bb6a-82a318b4495e" cx="62" cy="103" r="1"/><ellipse id="e895896c-4225-455c-bf9a-a185ea274fb4" data-name="Vest_Button_5" class="a150efd3-de2c-4270-bb6a-82a318b4495e" cx="62.5" cy="110" rx="1" ry="0.5" transform="translate(-60.42 139.94) rotate(-74.08)"/><polygon id="b0a6e7b1-f9c0-4dbd-9556-64cadd741234" data-name="Button_Hole_1" class="b29166d8-4a31-4625-a4b7-c699492312fc" points="59 80.79 60.78 80 61.29 80 59.04 81 59 80.79"/><polygon id="bf8ea3f4-2df1-464b-a490-a1b2234c9660" data-name="Button_Hole_2" class="b29166d8-4a31-4625-a4b7-c699492312fc" points="60.05 88.44 61 88 61.46 88.22 60.06 88.78 60.05 88.44"/><polygon id="aa701a26-6869-4fdf-a14c-a3203222f6d8" data-name="Button_Hole_3" class="b29166d8-4a31-4625-a4b7-c699492312fc" points="61.64 95.42 62.74 95.12 62.82 95.41 61.94 95.65 61.64 95.42"/><polygon id="a518dd2d-b74c-4919-a398-84bbe977e66b" data-name="Button_Hole_4" class="b29166d8-4a31-4625-a4b7-c699492312fc" points="62.93 102.62 63.96 102.62 63.96 103 63 103 62.93 102.62"/><polygon id="b78e6bcb-1468-4ce1-81b8-2ae67a46e270" data-name="Left_Jacket_Shadow" class="be93260c-c3af-424c-b824-673a4a091a48" points="31.26 110 34 103 34 108 33 113 30 113 31.26 110"/><path id="b7274a37-465b-41ad-a708-311929e06232" data-name="Pants" class="f38d6728-dfaf-46b2-a181-22209a9c22c8" d="M37.43,144,37,142l-.83-3.72L36,136l-1-4,3-3,3-3.54L44,121l1-3,.65-2.26L49,117l2,1,2,1,1,1,1-1,3-2,2-2,2.93-2.72L64,113l5,3,3,2,2,2,1-1,4-2,2,4,3,4,2,3s1,2.56,1,3c0,.25,0,1.75,0,2,.17,1.51,1,6.48,1,8,0,1.27,0,3,0,3Z"/><path id="bb111e83-70f2-4973-9777-ebe6e808699d" data-name="Left_Middle_Flap" class="a2b5d893-eaa0-43e6-9ce1-441b2acaa081" d="M36.24,56.89,42,51v5.89L43,65l3,21s.54,6.75.69,9c.09,1.5.27,4.5.31,6,0,.5,0,2,0,2l-1,2v-2.94L43,93,40,82,36,65l-1.62-6.9Z"/><path id="aad00091-5347-485b-b602-0238c029310e" data-name="Left_Upper_Flap" class="a2b5d893-eaa0-43e6-9ce1-441b2acaa081" d="M35,56.55l1.24.34L42,51a15.74,15.74,0,0,0,0-1.85c-.08-.53-.78-1.38-1-2.15a7.38,7.38,0,0,1,0-2,20.63,20.63,0,0,1,.26-2.58L40,44l-1.65,4-1.74,4.54Z"/><path id="ba801319-dc8b-4f87-a19d-f21bebbc177a" data-name="Right_Inner_Flap" class="a150efd3-de2c-4270-bb6a-82a318b4495e" d="M56,80s.39-1.68.5-2.24.42-2.06.5-2.76c.36-3,.59-9,1-12,.21-1.51.87-4.48,1-6,.08-1,0-4,0-4V43l1.58,5,2.33,9,.67,4.83s-.87,3.89-1.26,5.15c-.33,1.08-1.12,3.19-1.57,4.23S59.47,74.08,59,75C58.29,76.28,56,80,56,80Z"/><path id="e560b277-76b6-4820-9ed7-e4e9188a60dc" data-name="Left_Inner_Flap" class="a150efd3-de2c-4270-bb6a-82a318b4495e" d="M42,49.15V51s-.09,4.42,0,5.89c.13,2,1,8.11,1,8.11s4.7,5.71,6.5,7.39c1.61,1.51,7,5.37,7,5.37L57,75s-6.19-8.88-8-12c-.84-1.45-2.26-4.5-3-6C45,55,42,49.15,42,49.15Z"/><path id="ad434424-4f6b-4155-bb85-d67d13e59ef5" data-name="Right_Side_Jacket" class="be93260c-c3af-424c-b824-673a4a091a48" d="M81.39,45s-.15,3-.3,4c-.21,1.51-1,4.49-1.18,6-.24,1.7-.45,5.12-.52,6.83,0,1.46,0,4.37,0,5.82,0,2.59,0,7.76,0,10.35,0,3.23-.08,9.71.3,12.92a115.78,115.78,0,0,0,3,13.08A11.55,11.55,0,0,0,84,107c1.46,1.9,5.69,4.39,7.47,6A25.8,25.8,0,0,1,95,117a35,35,0,0,1,2.17,5.47A19.57,19.57,0,0,1,98,126c.12,1.39.52,4.59,0,6a5.06,5.06,0,0,1-2,2,3.64,3.64,0,0,1-2,0,31.48,31.48,0,0,1-5-3,24.29,24.29,0,0,1-3-3,27,27,0,0,1-2-3s-2.35-2.93-3-4-1.45-3-2-4c-.71-1.27-2.32-3.71-3-5-.88-1.66-2.36-5.1-3-6.86-.29-.77-1-3.14-1-3.14s0-2.25,0-3c.09-2,.56-6,.65-8,0-.62,0-1.86,0-2.48C72.56,84.88,72.08,77.64,72,74c0-.41,0-1.63,0-1.63s2.27-1,3-1.39a26.07,26.07,0,0,0,3-2c.27-.22,1-1,1-1V66a19.5,19.5,0,0,1-1.42,1.5A19.48,19.48,0,0,1,75,69c-.57.29-2.35,1.06-2.35,1.06l-.65.18s-.38-5.43-.46-7.24c-.1-2.36-.22-9.46-.22-9.46L70,53l-2-1,.5-.46L70,50l-2-2-3-3-6-5s5.79,1.6,7,1.72c1,.12,3,.2,4,.28.66,0,2,.17,2.65.24A30.21,30.21,0,0,1,77,43C78.15,43.36,81.39,45,81.39,45Z"/><path id="a2246e6f-9d67-4f9f-a461-4ddf7d066322" data-name="Right_Sleave" class="be93260c-c3af-424c-b824-673a4a091a48" d="M91.47,113s-6-4.11-7.47-6a13.55,13.55,0,0,1-1.28-3,87.36,87.36,0,0,1-3-13.08c-.41-3.21-.32-9.69-.3-12.92,0-2.59,0-7.76,0-10.35,0-1.45,0-4.36,0-5.82,0-1.71.27-5.13.52-6.83.22-1.51,1-4.48,1.18-6,.14-1,.3-4,.3-4a4.1,4.1,0,0,1,.89.5A10.63,10.63,0,0,1,83.39,48c.4,1,1.12,3,1.48,4s1.22,3.39,1.56,4.55c.46,1.59,1.18,4.83,1.55,6.45.53,2.25,1.51,6.75,2,9,.39,1.74,1.18,5.23,1.47,7,.35,2.24.75,6.76,1.11,9,.14.91.53,2.72.66,3.64a31.52,31.52,0,0,1,.3,3.36,31.64,31.64,0,0,1-.37,4C93,100.27,92,104,92,104s.39.85.5,1.14A10.87,10.87,0,0,1,93,107a7.87,7.87,0,0,1,0,2A34.83,34.83,0,0,1,91.47,113Z"/><path id="e4e588de-25a6-4e1e-ab07-b4b4810a17a6" data-name="Sideburn" class="f310c32c-85d5-4814-8679-fa39dc644072" d="M40.72,28a5.46,5.46,0,0,1-1-.56c-.19-.11-.59-.31-.76-.44s-1-1-1-1a12.9,12.9,0,0,1,2-1,5.39,5.39,0,0,1,1,0h0l.09,3A2.21,2.21,0,0,1,40.72,28Z"/></g></svg>