<svg xmlns="http://www.w3.org/2000/svg" xmlns:xlink="http://www.w3.org/1999/xlink" viewBox="0 0 400 400"><defs><style>.b47d9789-8cfd-4c39-bc1d-61d1a922089e{isolation:isolate;}.a2bb9482-d26e-4747-aa65-2ba7c501d2ca,.a748e384-3703-44b4-9efb-45e32252d0b1,.a9c73eb5-c2e5-4480-8778-908d10a619f8,.aa06fbe3-3c88-4c44-9e0d-2168ac366638,.abec882a-459f-4820-9432-cd903683134f,.b01570cc-48ba-4c30-9bac-156dc1ff35e0,.b0482522-08b7-4be4-af36-ed7e5d5f7978,.b139f50e-5730-4a48-a94f-bc7b44ba93e7,.b3d1b7cc-f97b-42b5-9cd8-07f97cf9e7a7,.bdc90a2f-6257-4a71-9297-d4ad5f980db4,.e4a77391-4daa-43c2-88c3-7dc68f44a22e,.ed4fe14a-c96f-473e-8b03-dc86a3128d0b,.f00b5eb0-d0f0-422d-8c9e-0e02ae582242,.f6b15568-d811-41b2-b6d9-3082cc981169,.ff0ca0bf-02f7-4010-a5fd-3ceeb8959f47{stroke:#000;stroke-miterlimit:10;stroke-width:0.25px;}.abec882a-459f-4820-9432-cd903683134f{fill:url(#f6db00e8-879d-466d-9c42-87463786f995);}.ed4fe14a-c96f-473e-8b03-dc86a3128d0b{fill:url(#ba6b5d13-66ce-4528-82dc-7d497f6a1688);}.a2bb9482-d26e-4747-aa65-2ba7c501d2ca{fill:url(#b3cb2856-6b0d-4223-a4c4-7e9491af78e2);}.e4a77391-4daa-43c2-88c3-7dc68f44a22e{fill:url(#fcf76f86-df39-4021-9eed-0940592dfdcc);}.b139f50e-5730-4a48-a94f-bc7b44ba93e7{fill:url(#b4a91ba0-3e2b-4254-8222-9e0523c5340e);}.b3d1b7cc-f97b-42b5-9cd8-07f97cf9e7a7{fill:url(#b6c86b49-082d-44e5-81ba-c9809ee6ae2f);}.a9c73eb5-c2e5-4480-8778-908d10a619f8{fill:url(#a666ec2d-a394-4889-8615-3d2cb3f1ca8d);}.b01570cc-48ba-4c30-9bac-156dc1ff35e0{fill:url(#fa146af7-c380-4e4e-8255-7192359f84dd);}.f00b5eb0-d0f0-422d-8c9e-0e02ae582242{fill:url(#bea63a70-b2fc-4401-b154-83cbeda014df);}.ff0ca0bf-02f7-4010-a5fd-3ceeb8959f47{fill:url(#a1537631-485c-484c-b020-16a039daae95);}.af4916c6-ace1-496d-9089-0183e193513b{fill:url(#e840d384-bdf9-4483-9222-ec66b4eed067);}.b147fa80-39e0-4bff-9883-6f4a8058f195,.ee0fa886-13a7-4702-b743-a9c829babbbf,.fa05bfc3-eeed-49f9-8329-1fe83f0b99b3{mix-blend-mode:screen;}.b147fa80-39e0-4bff-9883-6f4a8058f195{opacity:0.51;}.aba363d0-f339-4319-95bd-ac73fb4dd951{fill:url(#a6542fd9-cf92-4b44-9384-cdbbdff9346c);}.ee0fa886-13a7-4702-b743-a9c829babbbf{opacity:0.7;}.e1dbfff7-88ce-4cff-97d2-1c47c79982e2{fill:url(#ae15fcf5-c8a0-4e85-b91d-c30a36de77f0);}.fa05bfc3-eeed-49f9-8329-1fe83f0b99b3{opacity:0.49;}.adee0fd7-d5f7-4251-a9c3-a0ab3fd7130d{fill:#fff;}.b7c060a9-5fdc-467c-a31c-0430a7af0233{fill:none;stroke:#717171;stroke-miterlimit:1;stroke-width:0.59px;}.bc9cbf7f-b586-48b6-b581-4d8341724239{opacity:0.58;}.a748e384-3703-44b4-9efb-45e32252d0b1{fill:url(#f7bbe03b-0ad3-4b71-860d-c9ca0dfb89da);}.f6b15568-d811-41b2-b6d9-3082cc981169{fill:url(#a5253669-9b52-40fd-bda1-43f8e23337a6);}.aa06fbe3-3c88-4c44-9e0d-2168ac366638{fill:url(#a8fe37da-cad0-4601-a5bd-86bcbd60c817);}.bdc90a2f-6257-4a71-9297-d4ad5f980db4{fill:url(#ad052570-960e-4ec5-828d-5339244a92c8);}.b0482522-08b7-4be4-af36-ed7e5d5f7978{fill:url(#b0cfe591-3d34-4001-b7c7-6e3a705f056a);}.a4d2e4dc-3310-4e6b-9a4a-374a568951c0{fill:url(#be1c8348-5e25-4aa3-be8b-5d45839ae2b6);}.a1d61752-643d-43e8-84f2-69b446b1851c{fill:url(#ace0e1e4-40bf-4747-88ec-fbd397d07986);}.afac13d5-8e59-497f-b06a-5170a7926dde{fill:url(#ad0a3d98-3b34-452b-99bc-9f8ccef25480);}.ba3721fc-4ef8-4fba-9b21-082ae1a7e786{fill:url(#aa7621e0-d9c3-42a2-91ec-4cdded2ec530);}.a1cfdeca-b53d-4adb-a29a-7bf67a42d568{fill:url(#a36afc56-c76f-45e0-a37c-1f35a90b2538);}.a2b84498-1e5c-41ce-acd9-d9f6e8eef65c{fill:url(#e9795283-5cc2-412e-985d-e4f27a70b744);}</style><linearGradient id="f6db00e8-879d-466d-9c42-87463786f995" x1="67.79" y1="330.18" x2="67.79" y2="354.3" gradientUnits="userSpaceOnUse"><stop offset="0" stop-color="#b3b3b3"/><stop offset="0.09" stop-color="#ababab"/><stop offset="0.24" stop-color="#959595"/><stop offset="0.41" stop-color="#707070"/><stop offset="0.46" stop-color="#666"/></linearGradient><linearGradient id="ba6b5d13-66ce-4528-82dc-7d497f6a1688" x1="99.65" y1="330.18" x2="99.65" y2="354.3" xlink:href="#f6db00e8-879d-466d-9c42-87463786f995"/><linearGradient id="b3cb2856-6b0d-4223-a4c4-7e9491af78e2" x1="131.51" y1="330.18" x2="131.51" y2="354.3" xlink:href="#f6db00e8-879d-466d-9c42-87463786f995"/><linearGradient id="fcf76f86-df39-4021-9eed-0940592dfdcc" x1="163.37" y1="330.18" x2="163.37" y2="354.3" xlink:href="#f6db00e8-879d-466d-9c42-87463786f995"/><linearGradient id="b4a91ba0-3e2b-4254-8222-9e0523c5340e" x1="195.23" y1="330.18" x2="195.23" y2="354.3" xlink:href="#f6db00e8-879d-466d-9c42-87463786f995"/><linearGradient id="b6c86b49-082d-44e5-81ba-c9809ee6ae2f" x1="227.09" y1="330.18" x2="227.09" y2="354.3" xlink:href="#f6db00e8-879d-466d-9c42-87463786f995"/><linearGradient id="a666ec2d-a394-4889-8615-3d2cb3f1ca8d" x1="258.93" y1="330.18" x2="258.93" y2="354.3" xlink:href="#f6db00e8-879d-466d-9c42-87463786f995"/><linearGradient id="fa146af7-c380-4e4e-8255-7192359f84dd" x1="279.63" y1="330.18" x2="279.63" y2="354.3" xlink:href="#f6db00e8-879d-466d-9c42-87463786f995"/><linearGradient id="bea63a70-b2fc-4401-b154-83cbeda014df" x1="300.35" y1="330.18" x2="300.35" y2="354.3" xlink:href="#f6db00e8-879d-466d-9c42-87463786f995"/><linearGradient id="a1537631-485c-484c-b020-16a039daae95" x1="332.21" y1="330.18" x2="332.21" y2="354.3" xlink:href="#f6db00e8-879d-466d-9c42-87463786f995"/><linearGradient id="e840d384-bdf9-4483-9222-ec66b4eed067" x1="200" y1="301.89" x2="200" y2="241.07" gradientUnits="userSpaceOnUse"><stop offset="0" stop-color="#656565"/><stop offset="0.62" stop-color="#1b1b1b"/><stop offset="0.63" stop-color="#545454"/><stop offset="0.98" stop-color="#3e3e3e"/></linearGradient><linearGradient id="a6542fd9-cf92-4b44-9384-cdbbdff9346c" x1="200" y1="301.89" x2="200" y2="241.07" gradientUnits="userSpaceOnUse"><stop offset="0" stop-color="#0e0e0e"/><stop offset="0.5"/><stop offset="0.52" stop-color="#010101"/><stop offset="0.73" stop-color="#0b0b0b"/><stop offset="1" stop-color="#0e0e0e"/></linearGradient><linearGradient id="ae15fcf5-c8a0-4e85-b91d-c30a36de77f0" x1="200" y1="241.07" x2="200" y2="301.89" gradientUnits="userSpaceOnUse"><stop offset="0" stop-color="#fff" stop-opacity="0.77"/><stop offset="0.2" stop-color="#fff" stop-opacity="0.65"/><stop offset="0.34" stop-color="#fff" stop-opacity="0.65"/><stop offset="0.35" stop-color="#fff" stop-opacity="0.65"/><stop offset="0.37" stop-color="#fff" stop-opacity="0.62"/><stop offset="0.4" stop-color="#fff" stop-opacity="0.53"/><stop offset="0.43" stop-color="#fff" stop-opacity="0.39"/><stop offset="0.47" stop-color="#fff" stop-opacity="0.2"/><stop offset="0.51" stop-color="#fff" stop-opacity="0"/><stop offset="0.59" stop-color="#7e7e7e" stop-opacity="0.09"/><stop offset="1" stop-color="#1b1b1b" stop-opacity="0.16"/></linearGradient><linearGradient id="f7bbe03b-0ad3-4b71-860d-c9ca0dfb89da" x1="90.9" y1="241.07" x2="90.9" y2="301.89" xlink:href="#f6db00e8-879d-466d-9c42-87463786f995"/><linearGradient id="a5253669-9b52-40fd-bda1-43f8e23337a6" x1="143.88" y1="241.07" x2="143.88" y2="301.89" xlink:href="#f6db00e8-879d-466d-9c42-87463786f995"/><linearGradient id="a8fe37da-cad0-4601-a5bd-86bcbd60c817" x1="186.95" y1="241.07" x2="186.95" y2="301.89" xlink:href="#f6db00e8-879d-466d-9c42-87463786f995"/><linearGradient id="ad052570-960e-4ec5-828d-5339244a92c8" x1="248.72" y1="241.07" x2="248.72" y2="301.89" xlink:href="#f6db00e8-879d-466d-9c42-87463786f995"/><linearGradient id="b0cfe591-3d34-4001-b7c7-6e3a705f056a" x1="312.88" y1="241.07" x2="312.88" y2="301.89" xlink:href="#f6db00e8-879d-466d-9c42-87463786f995"/><linearGradient id="be1c8348-5e25-4aa3-be8b-5d45839ae2b6" x1="249.2" y1="212.61" x2="249.2" y2="103.23" xlink:href="#e840d384-bdf9-4483-9222-ec66b4eed067"/><linearGradient id="ace0e1e4-40bf-4747-88ec-fbd397d07986" x1="249.2" y1="212.61" x2="249.2" y2="103.23" xlink:href="#a6542fd9-cf92-4b44-9384-cdbbdff9346c"/><linearGradient id="ad0a3d98-3b34-452b-99bc-9f8ccef25480" x1="249.2" y1="103.23" x2="249.2" y2="212.61" xlink:href="#ae15fcf5-c8a0-4e85-b91d-c30a36de77f0"/><linearGradient id="aa7621e0-d9c3-42a2-91ec-4cdded2ec530" x1="153.73" y1="212.61" x2="153.73" y2="103.23" xlink:href="#e840d384-bdf9-4483-9222-ec66b4eed067"/><linearGradient id="a36afc56-c76f-45e0-a37c-1f35a90b2538" x1="153.73" y1="212.61" x2="153.73" y2="103.23" xlink:href="#a6542fd9-cf92-4b44-9384-cdbbdff9346c"/><linearGradient id="e9795283-5cc2-412e-985d-e4f27a70b744" x1="153.73" y1="103.23" x2="153.73" y2="212.61" xlink:href="#ae15fcf5-c8a0-4e85-b91d-c30a36de77f0"/></defs><g class="b47d9789-8cfd-4c39-bc1d-61d1a922089e"><g id="b822a9e9-ce35-4052-ab77-7e8721a97db9" data-name="Miles Excavating Logo v4"><rect id="a58e040b-bb9f-41c6-a840-ebb97a19ea90" data-name="Background" x="0.46" y="-0.08" width="400" height="400"/><path class="abec882a-459f-4820-9432-cd903683134f" d="M81.92,342.21l-3,3h-18v-6h15v-3.1H59.64v12.17H81.92v6H56.69l-3-3v-18.1l3-3H78.9l3,3Z"/><path class="ed4fe14a-c96f-473e-8b03-dc86a3128d0b" d="M91.5,330.18v8.57l3,3H99v6H94.49l-3,3v3.6h-6v-6l3.89-3.6-3.89-3.6V330.18Zm13.32,11.56,3-3v-8.57h6v10.95l-3.89,3.6,3.89,3.6v6h-6v-3.6l-3-3h-4.58v-6Z"/><path class="a2bb9482-d26e-4747-aa65-2ba7c501d2ca" d="M117.38,333.17l3-3h10.47v6h-7.52v12.17h7.52v6H120.41l-3-3Zm25.24-3,3,3v6.63h-6v-3.64H132.1v-6Zm-3,18.15v-3.64h6v6.59l-3,3H132.1v-6Z"/><path class="e4a77391-4daa-43c2-88c3-7dc68f44a22e" d="M171.52,354.3V336.16H149.24v-6h25.24l3,3v18.11l-3,3Zm-22.28-12,3-3h18v6H155.22v3.1H170.3v6h-18l-3-3Z"/><path class="b139f50e-5730-4a48-a94f-bc7b44ba93e7" d="M190.14,354.3l-9-11.62v-12.5h6v10.3l6,7.85h1.48v6Zm7.23-6,6-7.85v-10.3h6v12.5l-9,11.62h-4.54v-6Z"/><path class="b3d1b7cc-f97b-42b5-9cd8-07f97cf9e7a7" d="M235.24,354.3V336.16H213v-6h25.23l3,3v18.11l-3,3Zm-22.28-12,3-3h18v6H218.94v3.1H234v6H216l-3-3Z"/><path class="a9c73eb5-c2e5-4480-8778-908d10a619f8" d="M244.82,330.18H273v6H244.82Zm11.12,24.12V337.38h6V354.3Z"/><path class="b01570cc-48ba-4c30-9bac-156dc1ff35e0" d="M282.62,330.18V354.3h-6V330.18Z"/><path class="f00b5eb0-d0f0-422d-8c9e-0e02ae582242" d="M292.2,354.3h-6V330.18h6Zm22.28-21.09V354.3h-6V336.16H293.42v-6h18Z"/><path class="ff0ca0bf-02f7-4010-a5fd-3ceeb8959f47" d="M318.08,333.17l3-3h10.48v6h-7.52v12.17h7.52v6H321.1l-3-3Zm22.28,15.16v-3.06H327.12v-6h19.22v12l-3,3H332.8v-6Zm6-18.15v6H332.8v-6Z"/><path class="af4916c6-ace1-496d-9089-0183e193513b" d="M127.05,241.07l-10.7,60.82h-15l6-34.63L94.51,279H84.25L75.9,266.74l-6.18,35.15h-15L64,249.25l-7.31-8.18H77.55l14.7,20.8,22.45-20.8Z"/><path class="af4916c6-ace1-496d-9089-0183e193513b" d="M156.54,241.07l-10.35,60.82h-15l9-52.9-7.31-7.92Z"/><path class="af4916c6-ace1-496d-9089-0183e193513b" d="M213.18,286.92l-2.61,15H160.72l9.22-52.64-7.31-8.18h23.75l-8.09,45.85Z"/><path class="af4916c6-ace1-496d-9089-0183e193513b" d="M241.63,256l-1.39,8H259.9l-2.61,14.88H237.54l-1.39,8H271l-2.61,15H218.57l9.31-52.81-7.39-8h58.38l-2.61,15Z"/><path class="af4916c6-ace1-496d-9089-0183e193513b" d="M303.31,257.52l-1,5.65.79,1,28.71-.09,9,9.92-3.4,19.23-11.74,8.7H280.52l2.61-15h39.32l1.31-.95,1-5.92-1-1-29.14.17-8.36-10.35,3.4-19.58-7.31-8.18H338.2l7.05,8L344,256H305.14Z"/><g class="b147fa80-39e0-4bff-9883-6f4a8058f195"><path class="aba363d0-f339-4319-95bd-ac73fb4dd951" d="M127.05,241.07l-10.7,60.82h-15l6-34.63L94.51,279H84.25L75.9,266.74l-6.18,35.15h-15L64,249.25l-7.31-8.18H77.55l14.7,20.8,22.45-20.8Z"/><path class="aba363d0-f339-4319-95bd-ac73fb4dd951" d="M156.54,241.07l-10.35,60.82h-15l9-52.9-7.31-7.92Z"/><path class="aba363d0-f339-4319-95bd-ac73fb4dd951" d="M213.18,286.92l-2.61,15H160.72l9.22-52.64-7.31-8.18h23.75l-8.09,45.85Z"/><path class="aba363d0-f339-4319-95bd-ac73fb4dd951" d="M241.63,256l-1.39,8H259.9l-2.61,14.88H237.54l-1.39,8H271l-2.61,15H218.57l9.31-52.81-7.39-8h58.38l-2.61,15Z"/><path class="aba363d0-f339-4319-95bd-ac73fb4dd951" d="M303.31,257.52l-1,5.65.79,1,28.71-.09,9,9.92-3.4,19.23-11.74,8.7H280.52l2.61-15h39.32l1.31-.95,1-5.92-1-1-29.14.17-8.36-10.35,3.4-19.58-7.31-8.18H338.2l7.05,8L344,256H305.14Z"/></g><g class="ee0fa886-13a7-4702-b743-a9c829babbbf"><path class="e1dbfff7-88ce-4cff-97d2-1c47c79982e2" d="M127.05,241.07l-10.7,60.82h-15l6-34.63L94.51,279H84.25L75.9,266.74l-6.18,35.15h-15L64,249.25l-7.31-8.18H77.55l14.7,20.8,22.45-20.8Z"/><path class="e1dbfff7-88ce-4cff-97d2-1c47c79982e2" d="M156.54,241.07l-10.35,60.82h-15l9-52.9-7.31-7.92Z"/><path class="e1dbfff7-88ce-4cff-97d2-1c47c79982e2" d="M213.18,286.92l-2.61,15H160.72l9.22-52.64-7.31-8.18h23.75l-8.09,45.85Z"/><path class="e1dbfff7-88ce-4cff-97d2-1c47c79982e2" d="M241.63,256l-1.39,8H259.9l-2.61,14.88H237.54l-1.39,8H271l-2.61,15H218.57l9.31-52.81-7.39-8h58.38l-2.61,15Z"/><path class="e1dbfff7-88ce-4cff-97d2-1c47c79982e2" d="M303.31,257.52l-1,5.65.79,1,28.71-.09,9,9.92-3.4,19.23-11.74,8.7H280.52l2.61-15h39.32l1.31-.95,1-5.92-1-1-29.14.17-8.36-10.35,3.4-19.58-7.31-8.18H338.2l7.05,8L344,256H305.14Z"/></g><g class="fa05bfc3-eeed-49f9-8329-1fe83f0b99b3"><path class="adee0fd7-d5f7-4251-a9c3-a0ab3fd7130d" d="M101.81,301.9,107.17,271l.74-4.31c0-.13-.08-.65,0-.73l-6.86,6.26-4.63,4.22c-.55.5-1.35,1.6-2,1.87a5.37,5.37,0,0,1-1.55,0H86.48a6.71,6.71,0,0,1-2,0c-.57-.22-1.17-1.57-1.51-2.08L79.44,271l-3.18-4.68a6.53,6.53,0,0,0-.56-.82,3.06,3.06,0,0,0-.07.37,22,22,0,0,0-.51,2.94l-.89,5.05-4.29,24.4a11.39,11.39,0,0,1-.47,2.69c-.06.13,0,.2-.1.26s-1.13,0-1.4,0H55.17v.73l4.33-24.72,3.12-17.77c.56-3.22,1.28-6.45,1.69-9.69a1.93,1.93,0,0,0,0-.89c-.21-.6-1.08-1.26-1.5-1.73l-5.39-6v.73H76.4c.56,0,.79-.11,1.14.25a19.74,19.74,0,0,1,1.8,2.54l6.87,9.71,5.57,7.88c.34.48.23.59.63.4a11.65,11.65,0,0,0,2.06-1.92L111.37,245l2.74-2.54c.34-.32.54-.59,1-.67a9.43,9.43,0,0,1,1.84,0h9.71v-.73l-5,28.46-3.58,20.3-1.3,7.39-.42,2.38a5,5,0,0,1-.23,1.36c-.19.32-.16.22-.68.22H101.81s0,.73,0,.73h12.47c.28,0,1.56.19,1.78,0s.11-.65.14-.79l.33-1.91,1.16-6.55,7-40.09,1.89-10.76c0-.07,0-.73,0-.73h-9.71a5.48,5.48,0,0,0-2.18.09,10,10,0,0,0-1.79,1.66l-16.8,15.56-3,2.75c-.14.13-.82.93-1,.9s-1.13-1.61-1.3-1.85L88,256.08l-7.17-10.14-2.6-3.68c-.21-.3-.55-1-.88-1.2a2.9,2.9,0,0,0-.93,0H57.46a5.91,5.91,0,0,0,0,.73l6.89,7.72v-.73l-3.11,17.74-4.93,28.14-1.14,6.51c0,.07,0,.73,0,.73H68.05c.24,0,1.12.15,1.32,0s.23-1,.28-1.3l4-22.94,1.75-10a8,8,0,0,1,.27-1.5A19.81,19.81,0,0,1,77.62,269c2.18,3.2,4.31,6.44,6.54,9.6.51.73,1.46.41,2.32.41h6.44c1,0,1.31.14,2-.48l3.72-3.39,8.69-7.93.6-.55v-.73l-5.36,30.92-.74,4.31C101.77,301.41,101.85,301.67,101.81,301.9Z"/><path class="adee0fd7-d5f7-4251-a9c3-a0ab3fd7130d" d="M131.64,301.9l4.19-24.73,3-17.83c.56-3.27,1.23-6.54,1.67-9.83a2.52,2.52,0,0,0,0-.82c-.16-.62-.94-1.19-1.38-1.66l-5.51-6v.73h22.45v-.73l-4.87,28.58L147.8,290l-1.24,7.28-.4,2.38a5.29,5.29,0,0,1-.23,1.32c-.19.33-.2.22-.73.22H131.64v.73H144c.28,0,1.64.19,1.86,0s.11-.64.13-.76l.33-1.9,1.13-6.63,6.8-40,1.85-10.81c0-.07,0-.73,0-.73H133.68s0,.68,0,.73l6.88,7.45v-.73l-3,17.74-4.81,28.42-1.11,6.5C131.6,301.41,131.68,301.66,131.64,301.9Z"/><path class="adee0fd7-d5f7-4251-a9c3-a0ab3fd7130d" d="M161.14,301.9l4.33-24.72,3.11-17.77c.57-3.22,1.28-6.45,1.7-9.69a2.24,2.24,0,0,0,0-.89c-.22-.6-1.08-1.26-1.51-1.73l-5.39-6v.73H186v-.73l-2.72,15.44-4.37,24.75-1,5.66c0,.07,0,.73,0,.73h34.89v-.73l-2.36,13.52c-.16.93-.2.74-1.12.74H161.14s0,.73,0,.73h47.33c.35,0,1.57.18,1.81,0s.13-.72.16-.88l.3-1.73.84-4.84,1.18-6.76c0-.07,0-.73,0-.73H177.87v.73l2.73-15.44L185,247.45l1-5.66c0-.07,0-.73,0-.73H163.42s0,.68,0,.73l6.9,7.72v-.73l-3.11,17.74-4.93,28.14-1.14,6.51C161.1,301.41,161.18,301.67,161.14,301.9Z"/><path class="adee0fd7-d5f7-4251-a9c3-a0ab3fd7130d" d="M219,301.9l4.35-24.69,3.14-17.8c.58-3.27,1.3-6.54,1.74-9.83a2.33,2.33,0,0,0,0-.87c-.17-.58-1-1.2-1.42-1.65l-5.55-6v.73h57.16v-.73l-2.19,12.52c-.05.31-.06,1.5-.3,1.72-.08.07-.4,0-.51,0H242.51c-.2,0-1-.13-1.15,0s-.28,1.43-.33,1.74l-1.21,7c0,.07,0,.73,0,.73h19.66V264l-1.54,8.78-.84,4.77c-.13.76-.14.62-.92.62h-18c-.18,0-.78-.1-.93,0s-.17.72-.21.94l-.51,2.94-.84,4.83c0,.07,0,.73,0,.73h34.89v-.73l-2.36,13.52c-.16.93-.21.74-1.13.74H219v.73h47.33c.35,0,1.58.18,1.82,0s.12-.72.15-.88l.3-1.73.85-4.84,1.18-6.76c0-.07,0-.73,0-.73H235.73v.73l.69-4,.5-2.88c.07-.36.05-1.45.3-1.73s1.37-.11,1.8-.11h16.34c.41,0,1.42.17,1.65-.11s.18-1,.23-1.3l.42-2.37,1.82-10.39c0-.07,0-.73,0-.73H239.82v.73l1-6,.29-1.69c0-.17,0-.8.17-.94s.25-.06.46-.07c1.39-.11,2.84,0,4.23,0h28.67c.79,0,1.23.28,1.37-.53l2.4-13.73c0-.07,0-.73,0-.73H221.29s0,.68,0,.73l7,7.54v-.73l-3.12,17.71-5,28.37L219,301.17C219,301.41,219,301.67,219,301.9Z"/><path class="adee0fd7-d5f7-4251-a9c3-a0ab3fd7130d" d="M280.94,301.9l2-11.7c.09-.54.12-2.32.57-2.56a3.11,3.11,0,0,1,1,0h35.33a11.3,11.3,0,0,0,2.6,0,4.12,4.12,0,0,0,1.48-1,5.37,5.37,0,0,0,.45-2l.62-3.52a3.82,3.82,0,0,0,.14-1.3,2.94,2.94,0,0,0-1.18-1.51,2.28,2.28,0,0,0-.69,0l-4.59,0-15,.09-6.19,0h-1.87a2.48,2.48,0,0,1-.77,0c-.28-.12-.6-.74-.79-1L292,275l-4.47-5.54-.84-1v.72l2.36-13.62c.34-1.93.79-3.87,1-5.82.14-1.24-.82-1.82-1.62-2.71l-5.25-5.88v.73h54a2.42,2.42,0,0,1,.76,0c.57.24,1.24,1.4,1.64,1.85l5.2,5.91v-.73l-.94,5.39c-.18,1,0,1.11-.89,1.11H307.9a13.53,13.53,0,0,0-2.7,0,1.37,1.37,0,0,0-.66.38c-.51.42-1.34.85-1.59,1.46a15,15,0,0,0-.47,2.77c-.15.93-.36,1.86-.47,2.78a2.44,2.44,0,0,0,0,.89,3.46,3.46,0,0,0,1,1.24,8.52,8.52,0,0,0,2.62,0l5.76,0,14,0,4.89,0a3,3,0,0,1,1.59.16,8.74,8.74,0,0,1,1.33,1.45l2.19,2.4,4.38,4.8.78.86v-.72l-3,16.82a6.9,6.9,0,0,1-.37,2.09c-.33.53-1.35,1-1.84,1.37l-8.29,6.14a6.07,6.07,0,0,1-1.44,1,4.61,4.61,0,0,1-1.23,0H280.94s0,.73,0,.73h40.57a36.66,36.66,0,0,0,3.78,0c.84-.09,1.51-.86,2.19-1.36l6.88-5.1,2.4-1.78c.32-.23.35-.24.47-.57a13,13,0,0,0,.38-2.16l.67-3.8,1.51-8.57c.24-1.36.61-2.76.73-4.14s-1.45-2.3-2.24-3.17l-5.54-6.07c-.25-.28-.69-1-1.05-1.15a3.42,3.42,0,0,0-1,0l-14.72.05-8.36,0h-2.88a6.87,6.87,0,0,1-1.57,0c-.5-.14-.83-.79-1.17-1.21v.72l.48-2.85.33-1.93a1.68,1.68,0,0,1,1.11-1.91,5.49,5.49,0,0,1,1.11-.89,2.35,2.35,0,0,1,.7,0H343c.12,0,.63.08.73,0s.09-.51.11-.61l.33-1.92c.22-1.23.49-2.46.65-3.7a2.43,2.43,0,0,0,.05-1c-.2-.52-1-1.13-1.35-1.54l-5.1-5.79c-.48-.54-.66-.43-1.39-.43H287c-1.1,0-2.27-.11-3.36,0a3.38,3.38,0,0,1-.45,0s0,.68,0,.73l6.9,7.72v-.73l-2.42,14c-.32,1.83-.78,3.71-1,5.56-.12,1.22,1,2,1.7,2.91l5.44,6.75c.24.29.66,1.08,1,1.23a4,4,0,0,0,1.25,0l16.16-.09,9-.06a15.89,15.89,0,0,1,2.39,0c.69.1,1,.75,1.51,1.28v-.72l-.51,2.86-.37,2.1a2.15,2.15,0,0,1-1.78,2.37,3.72,3.72,0,0,1-1,0H285.29c-.49,0-1.61-.19-1.89.14-.15.17-.15.84-.19,1.06l-.3,1.76-.84,4.79-1.13,6.51C280.89,301.41,281,301.67,280.94,301.9Z"/></g><path class="b7c060a9-5fdc-467c-a31c-0430a7af0233" d="M127.05,241.07l-10.7,60.82h-15l6-34.63L94.51,279H84.25L75.9,266.74l-6.18,35.15h-15L64,249.25l-7.31-8.18H77.55l14.7,20.8,22.45-20.8Z"/><path class="b7c060a9-5fdc-467c-a31c-0430a7af0233" d="M156.54,241.07l-10.35,60.82h-15l9-52.9-7.31-7.92Z"/><path class="b7c060a9-5fdc-467c-a31c-0430a7af0233" d="M213.18,286.92l-2.61,15H160.72l9.22-52.64-7.31-8.18h23.75l-8.09,45.85Z"/><path class="b7c060a9-5fdc-467c-a31c-0430a7af0233" d="M241.63,256l-1.39,8H259.9l-2.61,14.88H237.54l-1.39,8H271l-2.61,15H218.57l9.31-52.81-7.39-8h58.38l-2.61,15Z"/><path class="b7c060a9-5fdc-467c-a31c-0430a7af0233" d="M303.31,257.52l-1,5.65.79,1,28.71-.09,9,9.92-3.4,19.23-11.74,8.7H280.52l2.61-15h39.32l1.31-.95,1-5.92-1-1-29.14.17-8.36-10.35,3.4-19.58-7.31-8.18H338.2l7.05,8L344,256H305.14Z"/><g class="bc9cbf7f-b586-48b6-b581-4d8341724239"><path d="M127.05,241,124,258.4l-5.41,30.76-1.82,10.36a7,7,0,0,1-.38,2.15c-.29.41-1.73.16-2.27.16h-11a5.32,5.32,0,0,1-1.69,0c-.14-.08.07.21,0,0s.06-.34.07-.42l.27-1.52,1-5.61,4.58-26.43.1-.57a.48.48,0,0,1,0-.12l-10,9.14-2.27,2.07a1.68,1.68,0,0,1-.78.54,15,15,0,0,1-3,0H85.25a3,3,0,0,1-1,0c-.29-.14-.57-.76-.75-1L79,271.29l-2.19-3.2a9.11,9.11,0,0,0-.95-1.41,15.44,15.44,0,0,0-.45,2.56l-5.33,30.29c-.07.42-.12,2.06-.45,2.3s-1.72,0-2.11,0H55.73c-.21,0-1,0-1,.07-.07-.11.12-.66.14-.79l4.87-27.81,2.84-16.18.94-5.4a8.88,8.88,0,0,0,.42-2.37c-.1-.66-1.1-1.39-1.53-1.88l-5.32-5.95c0-.06-.46-.42-.45-.5,0,.18.17.11.3.11.75,0,1.5,0,2.25,0H75.33a8.11,8.11,0,0,1,2,0c.27.09.17.06.41.31A44.3,44.3,0,0,1,81,246l5,7.06,4.61,6.53c.23.33,1.32,2.31,1.69,2.32.19,0,.77-.71.9-.83l1.92-1.78,5.66-5.24,12-11.1c.53-.49,1.33-1.58,2-1.82a8.44,8.44,0,0,1,2.3,0h10V241h-9.68a8.41,8.41,0,0,0-2.7,0c-.54.23-1.14,1.06-1.57,1.45L96.18,258.17l-3,2.74c-.17.16-.8.9-1,.86-.37-.07-1.2-1.69-1.41-2l-3-4.29-7.22-10.22-2.42-3.42c-.29-.42-.4-.72-.83-.84A5.74,5.74,0,0,0,76,241H56.67a.48.48,0,0,0,0,.12l4.48,5,2.45,2.76c.06,0,.44.54.38.29,0,.05,0,.12,0,.17a14.19,14.19,0,0,1-.53,3l-1.08,6.13-6,34.21-1.6,9.12V302H68.68c.22,0,.9.1,1-.05s.15-.87.18-1.07l1-5.76L74,277.55l1.3-7.4.4-2.32a4.34,4.34,0,0,1,.18-1,44.25,44.25,0,0,1,2.68,3.9l4.81,7.06c.21.3.55,1.1.88,1.28a7.43,7.43,0,0,0,2.4,0h4.43a15.85,15.85,0,0,0,3.23,0c.36-.08.53-.31.82-.57l2.39-2.18,6.6-6a43.8,43.8,0,0,0,3.25-3.05c.09.09-.17,1-.19,1.1l-.42,2.43-5.25,30.31-.13.75V302h12.72c.39,0,1.93.26,2.24,0,.09-.07.1-.57.12-.67l.32-1.8,1.15-6.53,7.17-40.75,1.94-11.07A.48.48,0,0,0,127.05,241Z"/><path d="M156.54,241l-5.61,33-3.56,20.89-1,5.88c0,.18,0,.89-.17,1s-1.56,0-1.9,0H133.38a18.23,18.23,0,0,0-2.15.1c-.09-.15.16-.95.19-1.11L134.27,284l3.9-23,1.44-8.5L140,250a2.91,2.91,0,0,0,.16-.91c-.06-.29-.35-.5-.56-.72l-3.69-4a26.1,26.1,0,0,1-2.94-3.19c-.12-.18-.18,0,.1,0h23.44V241H132.88a.48.48,0,0,0,0,.12l4.57,5c.8.86,1.56,1.83,2.43,2.63.36.33.26.12.27.41a16.6,16.6,0,0,1-.52,3.1l-1,6.2-5.81,34.29-1.54,9.11a.48.48,0,0,0,0,.12H144c.39,0,1.93.26,2.24,0,.09-.07.1-.57.12-.67l.3-1.8,1.11-6.53,6.94-40.75,1.88-11.07A.48.48,0,0,0,156.54,241Z"/><path d="M213.18,286.86l-1.84,10.57-.51,2.9c-.05.28-.05,1.25-.25,1.45s-.83.05-1.07.05H162.86a8.7,8.7,0,0,1-2,0c-.21-.06,0,.2-.09,0s.1-.54.12-.67l1.37-7.78L167,266.11l2-11.67.64-3.66a5.75,5.75,0,0,0,.26-1.46c-.07-.45-.66-.87-1-1.21l-4.53-5.06c-.52-.59-1-1.22-1.59-1.78-.29-.29-.29-.14,0-.14,1.32,0,2.65,0,4,0h18.69c.16,0,.68-.09.82,0-.07,0,0,0-.06.26-1.39,6.91-2.45,13.89-3.68,20.83l-4.1,23.27-.25,1.37V287h34.89v-.12H179.1a2.66,2.66,0,0,1-.69,0c-.19-.05,0,.17-.11.06s.21-1.18.25-1.4l1.24-7,4-22.39,2.64-15a.48.48,0,0,0,0-.12H162.63s0,.11,0,.12l4.48,5,2.46,2.76c.05,0,.44.54.37.29,0,.05,0,.12,0,.17a13.58,13.58,0,0,1-.53,3l-1.07,6.13-6,34.21-1.6,9.12V302H209c.5,0,1.37.19,1.61-.18a3.33,3.33,0,0,0,.19-1.09l.32-1.84.89-5.1,1.18-6.76A.48.48,0,0,0,213.18,286.86Z"/><path d="M241.63,256l-1.39,8a.48.48,0,0,0,0,.12h13.38c2,0,4-.14,6,0,.09,0,.35,0,.26-.1a2.34,2.34,0,0,1-.12.63l-.54,3.14-1.48,8.43a8,8,0,0,1-.44,2.47c-.17.26-.17.19-.59.19H238.19c-.62,0-.63-.12-.74.51l-1.3,7.49V287h33.07a9.09,9.09,0,0,1,1.65,0c.1,0,.24,0,.16-.1.07.08-.12.71-.14.8l-.62,3.58-1.56,8.92c0,.27-.06,1.46-.29,1.65s-.59,0-.69,0H220.66c-.53,0-1.1-.05-1.63,0-.11,0-.56-.06-.45.1-.07-.11.12-.7.14-.82l.33-1.85,6-34.27,2.46-14a6.34,6.34,0,0,0,.33-1.91c-.06-.3-.43-.56-.64-.79l-2.89-3.12-3-3.26c-.19-.21-.69-.57-.78-.84s-.15.09,0,0a3.43,3.43,0,0,1,1,0h56.7c.13,0,.54-.07.65,0s-.1-.22,0,0,0,.28-.05.32c-.09.44-.16.89-.24,1.33L277,251.8l-.6,3.48c-.07.36,0,.57-.27.7a5.16,5.16,0,0,1-1.57,0H241.63v.12H274c.39,0,1.94.25,2.26,0,.1-.08.11-.51.13-.65l.39-2.26,2.11-12.06V241H220.49a.48.48,0,0,0,0,.12L225,246l2.49,2.69c.05.05.44.55.37.29,0,0,0,.12,0,.18a14.57,14.57,0,0,1-.54,3.05l-1.07,6.06-6.06,34.42-1.61,9.1V302h48.28c.49,0,1.36.19,1.61-.18a4,4,0,0,0,.19-1.09l.32-1.84.89-5.1L271,287v-.12H237.73c-.36,0-1.22.18-1.55,0-.08,0,0,.16,0,.09a1.77,1.77,0,0,1,.1-.54l.38-2.22c.28-1.57.44-3.22.83-4.77.17-.64.36-.44,1-.44h18.22c.76,0,.59-.17.73-1l.86-4.91,1.58-9V264h-18a5.67,5.67,0,0,1-1.54,0c-.22-.07,0,.23-.08,0a3.92,3.92,0,0,1,.2-1.15l1.17-6.7S241.62,256,241.63,256Z"/><path d="M303.31,257.46l-.87,5.14a1.73,1.73,0,0,0-.09.59,2.81,2.81,0,0,0,.8,1,7.27,7.27,0,0,0,2.28,0h5.34l13.56-.05h5.3a7.19,7.19,0,0,1,2.22,0c.21.1.47.52.62.69l1.72,1.88,4.58,5,1.63,1.79a3,3,0,0,1,.42.45c.11.19,0-.11.07,0a3.82,3.82,0,0,1-.21,1.15l-.4,2.27L338,290.22l-.37,2.06a2.36,2.36,0,0,1-.15.84c-.12.22-.55.42-.74.56l-2,1.47-5.49,4.06L327,300.89a6.43,6.43,0,0,1-1.2.89,3.42,3.42,0,0,1-1.11.05H281.28a2.28,2.28,0,0,1-.69,0c-.1,0-.08.17,0-.24.62-3.84,1.33-7.66,2-11.5l.41-2.35c0-.13,0-.67.14-.76s1.46,0,1.74,0H320a11.34,11.34,0,0,0,2.33,0,3,3,0,0,0,1.07-.68c.51-.41.45-.77.57-1.43l.58-3.3a5.35,5.35,0,0,0,.26-1.47,1.78,1.78,0,0,0-1.18-1.15,15.76,15.76,0,0,0-3.22,0l-5.87,0-13.54.08-4.8,0c-.43,0-1.19.15-1.55-.07s-.79-1-1.08-1.33l-1.88-2.33-4.15-5.14a11,11,0,0,1-1.09-1.36c-.1-.17-.09,0-.09,0a1.34,1.34,0,0,1,.07-.39c.27-1.43.5-2.88.75-4.33l2.2-12.7a7.29,7.29,0,0,0,.37-2.14c-.14-.63-1.19-1.43-1.61-1.9l-4.43-5c-.23-.25-1.17-1-1.21-1.35,0,0-.12.08.13,0a54.36,54.36,0,0,1,5.85,0H336a9,9,0,0,1,2,0c.56.15,1,.88,1.35,1.32l4.39,5a13.42,13.42,0,0,1,1.37,1.56c.16.24.09,0,.11.11a3.45,3.45,0,0,1-.17.95l-.55,3.16-.27,1.53c0,.25,0,.86-.18,1.06s-.72.17-1.17.17H308.16a22.11,22.11,0,0,0-2.7,0c-.84.1-1.49,1-2.15,1.48,0,0,0,.1,0,.12.52-.42,1.21-1.27,1.84-1.48a2.69,2.69,0,0,1,.75,0h36.8a3.76,3.76,0,0,0,1.16,0c.29-.14.22-.28.29-.71l.66-3.73c.13-.78.68-2.06.31-2.78a11.61,11.61,0,0,0-1.8-2l-2.73-3.11c-.7-.79-1.36-1.61-2.09-2.36-.19-.21-.22-.28-.43-.35a9.51,9.51,0,0,0-2.5,0H285.91c-1,0-2.07-.1-3.06,0a2.94,2.94,0,0,1-.42,0,.48.48,0,0,0,0,.12l5,5.55a20.58,20.58,0,0,1,2.25,2.52c.15.24.05-.14.07.13a3.78,3.78,0,0,1-.16.93L286.64,267c-.12.71-.47,1.46-.11,2.08a20.35,20.35,0,0,0,2,2.52l3.2,4,2.43,3c.26.33.36.54.71.63a8.31,8.31,0,0,0,1.93,0l3.44,0,19-.12h3.11a4.7,4.7,0,0,1,1.45,0c.26.09.58.54.75.77s.21.13.23.26a3,3,0,0,1-.13.77l-.77,4.33c-.23,1.34-1.29,1.66-2.48,1.66H284.87a5.44,5.44,0,0,0-1.56,0c-.29.12-.21.17-.29.59l-.58,3.37L280.83,300l-.31,1.82a.48.48,0,0,0,0,.12h42.34a11.11,11.11,0,0,0,2.88,0,4.48,4.48,0,0,0,1-.76l3.07-2.27,6.75-5c.29-.21.75-.44.92-.75a7.68,7.68,0,0,0,.35-2l2.81-16c.14-.78.39-1.1-.09-1.67-1.7-2-3.54-3.87-5.3-5.8l-2.63-2.88c-.23-.27-.55-.77-.87-.9a4.33,4.33,0,0,0-1.39,0h-3l-17.73.06-5.93,0c-.61,0-.59,0-1-.48s-.39-.28-.32-.8c.09-.68.23-1.35.34-2l.54-3.19S303.3,257.49,303.31,257.46Z"/></g><path class="a748e384-3703-44b4-9efb-45e32252d0b1" d="M127.05,241.07l-10.7,60.82h-15l6-34.63L94.51,279H84.25L75.9,266.74l-6.18,35.15h-15L64,249.25l-7.31-8.18H77.55l14.7,20.8,22.45-20.8Z"/><path class="f6b15568-d811-41b2-b6d9-3082cc981169" d="M156.54,241.07l-10.35,60.82h-15l9-52.9-7.31-7.92Z"/><path class="aa06fbe3-3c88-4c44-9e0d-2168ac366638" d="M213.18,286.92l-2.61,15H160.72l9.22-52.64-7.31-8.18h23.75l-8.09,45.85Z"/><path class="bdc90a2f-6257-4a71-9297-d4ad5f980db4" d="M241.63,256l-1.39,8H259.9l-2.61,14.88H237.54l-1.39,8H271l-2.61,15H218.57l9.31-52.81-7.39-8h58.38l-2.61,15Z"/><path class="b0482522-08b7-4be4-af36-ed7e5d5f7978" d="M303.31,257.52l-1,5.65.79,1,28.71-.09,9,9.92-3.4,19.23-11.74,8.7H280.52l2.61-15h39.32l1.31-.95,1-5.92-1-1-29.14.17-8.36-10.35,3.4-19.58-7.31-8.18H338.2l7.05,8L344,256H305.14Z"/><path class="a4d2e4dc-3310-4e6b-9a4a-374a568951c0" d="M166.68,176.49l31.69-19.62-9.14-5.65-.93-.58-15.1,12.53L171,161.52l15-12.3-.65-.4h0l-1.42-.88-.81-.5-14.08,12.67-3.27-2.4-1.55,1.76-4.8,12-.72.28c-14.2,18.65-10.14,35.8,5.94,40.89L199.82,203l-8.36-2L190,198.89l-10.28-2.33-13-20.07Zm53.5-33.12,14.55-9,73.72,77.81,24.17-.18-85.48-88.65,1.6-1.42,1.34-1.52,86.09,92,12.21-.21-94.57-96.08,2.68-3,7.33-8.34-19.11-1.55-5,3.54-19.15,7-16.65,15,3,2.74.38.34,15.15-12.4,1.25,1.86L209.1,133.38l10.37,9.35.71.64Zm-44.37,54.29L161,180.31l2.27-2.41Z"/><g class="b147fa80-39e0-4bff-9883-6f4a8058f195"><path class="a1d61752-643d-43e8-84f2-69b446b1851c" d="M166.68,176.49l31.69-19.62-9.14-5.65-.93-.58-15.1,12.53L171,161.52l15-12.3-.65-.4h0l-1.42-.88-.81-.5-14.08,12.67-3.27-2.4-1.55,1.76-4.8,12-.72.28c-14.2,18.65-10.14,35.8,5.94,40.89L199.82,203l-8.36-2L190,198.89l-10.28-2.33-13-20.07Zm53.5-33.12,14.55-9,73.72,77.81,24.17-.18-85.48-88.65,1.6-1.42,1.34-1.52,86.09,92,12.21-.21-94.57-96.08,2.68-3,7.33-8.34-19.11-1.55-5,3.54-19.15,7-16.65,15,3,2.74.38.34,15.15-12.4,1.25,1.86L209.1,133.38l10.37,9.35.71.64Zm-44.37,54.29L161,180.31l2.27-2.41Z"/></g><g class="ee0fa886-13a7-4702-b743-a9c829babbbf"><path class="afac13d5-8e59-497f-b06a-5170a7926dde" d="M166.68,176.49l31.69-19.62-9.14-5.65-.93-.58-15.1,12.53L171,161.52l15-12.3-.65-.4h0l-1.42-.88-.81-.5-14.08,12.67-3.27-2.4-1.55,1.76-4.8,12-.72.28c-14.2,18.65-10.14,35.8,5.94,40.89L199.82,203l-8.36-2L190,198.89l-10.28-2.33-13-20.07Zm53.5-33.12,14.55-9,73.72,77.81,24.17-.18-85.48-88.65,1.6-1.42,1.34-1.52,86.09,92,12.21-.21-94.57-96.08,2.68-3,7.33-8.34-19.11-1.55-5,3.54-19.15,7-16.65,15,3,2.74.38.34,15.15-12.4,1.25,1.86L209.1,133.38l10.37,9.35.71.64Zm-44.37,54.29L161,180.31l2.27-2.41Z"/></g><g class="fa05bfc3-eeed-49f9-8329-1fe83f0b99b3"><path class="adee0fd7-d5f7-4251-a9c3-a0ab3fd7130d" d="M164.66,211.88A21.52,21.52,0,0,1,154,204.61a18.86,18.86,0,0,1-3.5-13.09,34.24,34.24,0,0,1,4.77-13.65c.7-1.21,1.46-2.38,2.25-3.53a11,11,0,0,1,1.28-1.77c.25-.23.66-.26.88-.48a5.35,5.35,0,0,0,.7-1.64l3.09-7.71a24.81,24.81,0,0,1,1-2.51c.21-.4,1-1.65,1.37-1.69.19,0,.8.6,1,.71l1.74,1.28c.58.43.48.46,1,0l5-4.46,7-6.28c.36-.32,1.17-1.39,1.66-1.49s1.78,1,2.31,1.31v-.72l-15,12.28a2.89,2.89,0,0,0,0,.72l1.31,1c.28.21,1.15,1.11,1.49,1.1s.86-.68,1.07-.86l6.61-5.48,6.46-5.36c.19-.15.76-.81,1-.82s.52.32.66.41l1.69,1.05,7,4.33v-.72L170.09,173.6l-3.9,2.42a2.48,2.48,0,0,0,0,.72l10.75,16.6,2.16,3.34c.42.64.53.59,1.32.77l5.74,1.3,2.65.61a3.08,3.08,0,0,1,1,.24c.67.45.82,1.66,1.48,2.12a6.41,6.41,0,0,0,1.85.44l5.29,1.26v-.73l-29.58,8.06-4.15,1.13c-.06,0,.06.71,0,.73l29.59-8.06,4.14-1.13a5.93,5.93,0,0,0,0-.73l-4.51-1.07a14.85,14.85,0,0,1-2.39-.57c-.47-.21-.68-.68-1-1.13s-.5-.91-1-1.12a9.77,9.77,0,0,0-1.87-.43l-6-1.36c-.67-.16-1.78-.19-2.28-.65a14.43,14.43,0,0,1-1.7-2.63L171,183.47,166.19,176v.72l27.61-17.09,3.9-2.42a3.47,3.47,0,0,0,0-.72l-6-3.74a17.4,17.4,0,0,0-3.09-1.91c-.43-.14-.38,0-.8.3L174.83,161.9c-.29.24-1.21,1.31-1.61,1.34s-.91-.66-1.12-.81l-1.71-1.25v.72l15-12.28a2.48,2.48,0,0,0,0-.72L184,148c-.17-.1-.65-.51-.84-.47-.38.07-1.07,1-1.34,1.21l-6.33,5.69-5.68,5.13c-.14.12-.42.48-.6.53s0,.06-.34-.06a6.83,6.83,0,0,1-1.49-1.1c-.3-.22-1.1-1.06-1.47-1.08s-1.2,1.2-1.41,1.58a23.9,23.9,0,0,0-1,2.58l-3.22,8a6.65,6.65,0,0,1-.42,1c-.21.34-.18.23-.61.46-.93.5-1.64,2-2.23,2.86-.85,1.27-1.65,2.58-2.38,3.92a32.33,32.33,0,0,0-4.21,13.92,20.84,20.84,0,0,0,2.4,11.26c2.58,4.53,7,7.5,11.88,9.11C164.6,212.58,164.74,211.9,164.66,211.88Z"/><path class="adee0fd7-d5f7-4251-a9c3-a0ab3fd7130d" d="M160.48,180.66l13.6,15.89,1.19,1.38c.36.43.33.27.83-.1a2,2,0,0,0,0-.73l-12.55-19.72c-.31-.48-.23-.46-.66,0l-2.41,2.57c-.12.13.12.6,0,.72l2.08-2.2c.07-.08.6-.78.72-.77s.09.16.12.19a5.79,5.79,0,0,1,.88,1.38l1.54,2.42L174,194.52l2.1,3.31v-.73c-.46.35-.39.47-.74.21a7.22,7.22,0,0,1-.92-1.07L171,192.16l-8.48-9.9-2-2.32C160.6,180.07,160.36,180.52,160.48,180.66Z"/><path class="adee0fd7-d5f7-4251-a9c3-a0ab3fd7130d" d="M250.08,119.51a37.45,37.45,0,0,1-3.45,3.45,3,3,0,0,0,0,.73l8.49,8.79,20.37,21.13L300,179.06l21.29,22.08,7,7.24,2.19,2.28a6.54,6.54,0,0,0,1.16,1.19,1.17,1.17,0,0,1,.15.16v-.73l-17.55.13-4.24,0a4.23,4.23,0,0,1-1.42,0c-.44-.2-.93-1-1.26-1.33l-21.85-23.06-31.66-33.43-12.4-13.09c-2.09-2.2-4.07-4.65-6.33-6.68-.06-.06-.22-.31-.3-.32-.38-.06-1.52,1-1.85,1.15l-9.37,5.8a19.27,19.27,0,0,1-3.07,1.9c-.53.19-.66-.17-1.13-.6l-7.87-7.08L209.64,133v.73l14.56-12.08a2.55,2.55,0,0,0,0-.73l-.62-.92c-.18-.27-.62-1.26-.93-1.39s-.3,0-.6.29l-4.35,3.56-10,8.14c-.46.38-.38.35-.86-.08l-2.44-2.2v.73L215,119.59l5.26-4.74a7.17,7.17,0,0,1,2.59-1.21l15.77-5.72a17.74,17.74,0,0,0,4.14-2.49,8.19,8.19,0,0,1,2.12-1.48,7.45,7.45,0,0,1,2,.17l16.25,1.31v-.72l-9.76,11.1a2.48,2.48,0,0,0,0,.72l9.39,9.54L285.26,149l27.16,27.6,23.5,23.87,7.79,7.92,2.4,2.44a7.22,7.22,0,0,0,1.29,1.3c.05,0,.1.11.15.16v-.72l-7.33.12a22.4,22.4,0,0,1-3.57.06c-.22,0-.25,0-.41-.07a6.51,6.51,0,0,1-1.13-1.21l-2.41-2.57-19.1-20.43-26.7-28.55-24.42-26.12-8.26-8.83-2.61-2.79a7.82,7.82,0,0,0-1.36-1.45,1,1,0,0,1-.17-.19c.11.13-.13.59,0,.72L260.15,131l23.56,25.19,27,28.82,20.48,21.9,4.72,5c.37.41.35.46.89.49,2.79.16,5.66-.1,8.46-.15l2.34,0s0-.68,0-.72L338.16,202l-22.53-22.9-27.17-27.6L265,127.63l-7.8-7.92-2.4-2.44a7.57,7.57,0,0,0-1.28-1.31c-.06,0-.11-.11-.16-.15v.72l9.76-11.1a5.76,5.76,0,0,0,0-.72l-14.6-1.19-3-.24a1.22,1.22,0,0,0-1.16.28c-1.53,1.07-3.09,2.56-4.81,3.29-2,.86-4.18,1.51-6.25,2.26l-8.73,3.17a19.72,19.72,0,0,0-3.87,1.44,11.28,11.28,0,0,0-1.37,1.23l-2.8,2.52-12.08,10.88a2.55,2.55,0,0,0,0,.73l2.06,1.86c.37.33.59.74,1,.62s1-.82,1.36-1.11l2.29-1.88L221.65,120c.12-.1.76-.77.91-.74s.71,1.06.82,1.22l.82,1.22V121L209.64,133a2.24,2.24,0,0,0,0,.73l6.21,5.59,3.62,3.26c.49.45.52.7,1.06.48a22.9,22.9,0,0,0,3.22-2l4.92-3,4.41-2.73c.28-.18,1.37-1.11,1.71-1.06s1,1.06,1.22,1.28l3.21,3.39,11.2,11.82,31.3,33.05L306,209.4l2.27,2.41c.55.58,1.07.36,1.89.36l20-.15h1.67s0-.68,0-.73l-8.48-8.79L303,181.36,278.4,155.91l-21.29-22.08-7-7.24-2.19-2.28a6.54,6.54,0,0,0-1.16-1.19,1.17,1.17,0,0,1-.15-.16v.73a37.55,37.55,0,0,0,3.45-3.46C250.2,120.1,250,119.64,250.08,119.51Z"/></g><path class="b7c060a9-5fdc-467c-a31c-0430a7af0233" d="M166.68,176.49l31.69-19.62-9.14-5.65-.93-.58-15.1,12.53L171,161.52l15-12.3-.65-.4h0l-1.42-.88-.81-.5-14.08,12.67-3.27-2.4-1.55,1.76-4.8,12-.72.28c-14.2,18.65-10.14,35.8,5.94,40.89L199.82,203l-8.36-2L190,198.89l-10.28-2.33-13-20.07Zm53.5-33.12,14.55-9,73.72,77.81,24.17-.18-85.48-88.65,1.6-1.42,1.34-1.52,86.09,92,12.21-.21-94.57-96.08,2.68-3,7.33-8.34-19.11-1.55-5,3.54-19.15,7-16.65,15,3,2.74.38.34,15.15-12.4,1.25,1.86L209.1,133.38l10.37,9.35.71.64Zm-44.37,54.29L161,180.31l2.27-2.41Z"/><g class="bc9cbf7f-b586-48b6-b581-4d8341724239"><path d="M166.68,176.55l27.8-17.21,3.89-2.41v-.12l-9.11-5.64c-.42-.26-.71-.6-1.11-.47s-1,.79-1.29,1.07l-5.15,4.28L176,160.78l-1.95,1.62c-.15.13-.64.69-.85.7a7.76,7.76,0,0,1-2.15-1.57c-.06-.16-.09.2,0-.06s.37-.3.5-.41l4.51-3.69,9.9-8.09s0-.12,0-.12c-.17-.1-.5-.41-.65-.28a.24.24,0,0,0,0-.12c-.5-.31-1.5-1.23-2.1-1.3-.3,0-.44.19-.72.44l-4.26,3.84-5.58,5-2.16,1.94c-.36.33-.86,1-1.31,1.19s-.53-.1-1-.43l-1.42-1.05c-.18-.12-.8-.75-1-.75s-1.36,1.38-1.57,1.72a7.16,7.16,0,0,0-.45,1.11l-2.52,6.26L160,169.92a4.88,4.88,0,0,1-.58,1.43c-.21.22-.62.27-.87.49a16.32,16.32,0,0,0-2.12,3,45.23,45.23,0,0,0-3.23,5.71,32.27,32.27,0,0,0-3.09,10.72,19.09,19.09,0,0,0,10.71,19.85c1.35.68,3,1.76,4.53,1.35l9.93-2.71,24-6.54.5-.14V203l-4.42-1.05-2.89-.69a2.83,2.83,0,0,1-1.11-.34c-.62-.47-.78-1.62-1.42-2a3.76,3.76,0,0,0-1.11-.27l-5.82-1.31-2.56-.59a2.53,2.53,0,0,1-.82-.2,9.32,9.32,0,0,1-1.4-2.16l-6.56-10.14-5-7.75s0,.09,0,.12l8.51,13.13,4.17,6.45c.29.44.28.46.77.59,1.39.38,2.81.64,4.22,1l4.59,1a4.16,4.16,0,0,1,1,.23c.37.22.66.92.91,1.28a2.72,2.72,0,0,0,.75.91,7.3,7.3,0,0,0,1.55.37l4.89,1.16c.52.12,1,.27,1.57.37.23,0,.26-.1.11,0-.51.19-1.07.29-1.58.43l-7.22,2-19.79,5.4-5.87,1.6a3.16,3.16,0,0,1-2.19-.4,22.62,22.62,0,0,1-6-3.37,18.58,18.58,0,0,1-6.53-10.27c-1.29-5.51-.11-11.29,2.09-16.4a46.13,46.13,0,0,1,4.43-7.91c.43-.64.86-1.29,1.35-1.89.35-.43.65-.32,1-.65.13-.12.2-.5.26-.65l3.46-8.61a19,19,0,0,1,1.07-2.68,9.07,9.07,0,0,1,.86-1c.13-.14.46-.69.65-.74s.21.1.39.2a18.49,18.49,0,0,1,1.78,1.31c.18.13.93.86,1.15.84s1.23-1.1,1.49-1.33l7.2-6.49,3.53-3.18,1.1-1c.14-.13.51-.6.71-.64.53-.1,1.91,1.54,2.28,1.22v.12c.57.35.8.17.28.59s-1,.83-1.53,1.24L178.87,155l-7.9,6.46a.24.24,0,0,0,0,.12c.44.33,1.81,1.69,2.28,1.6s1.32-1.09,1.69-1.4l7.33-6.08,3.6-3a13.35,13.35,0,0,1,2.18-1.81c.15-.08.17-.18.3-.18s.77.48,1,.64l3.06,1.9,4.2,2.6c.44.27.87.6,1.34.83.25.12.29.24.35.13-.11.23-.86.53-1.07.66L194.91,159l-16.17,10-12.06,7.47S166.7,176.54,166.68,176.55Z"/><path d="M220.18,143.43,233.84,135c.77-.48.74-.71,1.3-.13l2.15,2.28,21.49,22.68,29.12,30.74,19.28,20.36c.33.34.81,1.1,1.25,1.31a2.25,2.25,0,0,0,.82,0l3.16,0,18.86-.14h1.35a.48.48,0,0,0,0-.12l-9.82-10.18-23-23.88-26.42-27.4L252.8,129.15l-5-5.19a3.94,3.94,0,0,1-.49-.51c-.19-.28-.12,0-.06-.14.18-.44,1-.89,1.39-1.23s.67-.74,1-1.12.27-.48.54-.39.9,1,1.16,1.23l2.29,2.45,7.59,8.11,23,24.61,26.11,27.92,20.07,21.46,5,5.34c.19.2.5.7.76.81a5,5,0,0,0,1.64,0l4.23-.07,6.35-.11s0-.12,0-.12L336.9,200.51l-26.65-27.07-30-30.46-22-22.37-2.86-2.91a9.1,9.1,0,0,1-1.45-1.46c-.15-.28-.23,0,.14-.34a35,35,0,0,0,2.41-2.74l5.47-6.22,1.85-2.1v-.12L249,103.51l-3.35-.27a1.82,1.82,0,0,0-1.14.1c-1.79.89-3.15,2.64-5,3.46-2,.89-4.18,1.51-6.24,2.26l-8.91,3.23a20.32,20.32,0,0,0-3.84,1.43,11.65,11.65,0,0,0-1.43,1.29l-2.82,2.54-12.33,11.1v.12l1.71,1.54a7.58,7.58,0,0,0,1.52,1.37c.34.15.21.13.56-.13s.88-.72,1.32-1.08l9.42-7.71,3.53-2.89c.09-.07.41-.42.52-.4s.52.77.62.91.23.39.37.56.2.43.24.25c0,.14-.48.4-.59.49l-1.51,1.26L217,126.78l-7.88,6.54a.24.24,0,0,0,0,.12l11.08,10s0-.11,0-.13l-10.68-9.61c-.42-.38-.53-.21-.06-.53.75-.51,1.43-1.19,2.12-1.76l7.2-6,5-4.12v-.12c-.21-.31-1-1.84-1.26-1.85s-.84.69-1,.81l-4.95,4-6,4.9-2.16,1.77c-.18.14-.79.83-1,.83s-1.1-.94-1.31-1.12l-1.4-1.26c-.14-.13-.7-.73-.73-.55,0-.17.64-.58.76-.69l1.8-1.62,11-9.92a26.69,26.69,0,0,1,3-2.71,12.61,12.61,0,0,1,2.49-.93l13.68-5a25,25,0,0,0,3-1.1A20.25,20.25,0,0,0,242,105.2a13.39,13.39,0,0,1,2.58-1.82c.83-.32,2.27.08,3.16.15l7.39.6,6.85.56a7.42,7.42,0,0,1,1.7.14c.18.06.09-.13.09-.07s-.45.51-.54.61L255.7,114l-1.89,2.14v.13l10,10.13,23.56,23.93,28.19,28.64,23.33,23.7,7.11,7.23,1.83,1.86a3.39,3.39,0,0,1,.46.47c.15.22.17,0,0,0a28.74,28.74,0,0,1-3.08,0l-4.93.09c-1.19,0-2.46.16-3.65.06-.2,0-.3,0-.46-.06-.41-.22-.82-.88-1.14-1.22l-2.41-2.58-19.26-20.59-27-28.84L261.88,133l-8.07-8.63-2.47-2.64c-.23-.25-.83-1.17-1.17-1.26s-.44.32-.68.59a25.19,25.19,0,0,1-2.35,2.27v.12L257.37,134l23.81,24.69,27,28,20,20.76c1.4,1.46,2.76,3,4.21,4.37,0,0,.22.19.22.23,0-.23-.88-.11-1.06-.11l-7.35.05-9.64.07-3.8,0a9.93,9.93,0,0,1-2.11,0c-.36-.08-.46-.26-.74-.56l-2-2.11L286.8,189.26l-26.71-28.2-21-22.18-2.82-3c-.35-.37-.92-1.28-1.4-1.48s-1.7.86-2.2,1.16l-7.79,4.83-4.68,2.89S220.2,143.42,220.18,143.43Z"/><path d="M175.81,197.6l-13.89-16.23a7.44,7.44,0,0,1-.86-1c-.1-.18-.07-.06-.08,0,.09-.3.65-.69.85-.91S163,178,163.24,178s.46.73.52.82l6.39,10,5.66,8.89s0-.09,0-.12l-12.18-19.14c-.16-.25-.27-.6-.49-.54s-.91,1-1.18,1.26l-1,1.07a.24.24,0,0,0,0,.12l13,15.18,1.86,2.17S175.83,197.62,175.81,197.6Z"/></g><path class="ba3721fc-4ef8-4fba-9b21-082ae1a7e786" d="M236.25,176.49,168.2,134.36,94.49,212.18,70.31,212l85.48-88.66-1.59-1.42-1.35-1.52L67.26,212l-12.71.29,94.57-96.08-2.67-3-7.33-8.34,19.1-1.55,5,3.54,19.16,7,51.51,46.39,3.27-2.4,1.54,1.76,4.8,12,.72.28c14.2,18.65,10.15,35.8-5.94,40.89L203.11,203l8.36-2,1.5-2.15,10.28-2.33,13-20.07Zm-9.12,21.17L242,180.31l-2.27-2.41-12.58,19.76ZM232,161.52l-51.52-42.13-1.24,1.86,50.53,41.92Z"/><g class="b147fa80-39e0-4bff-9883-6f4a8058f195"><path class="a1cfdeca-b53d-4adb-a29a-7bf67a42d568" d="M236.25,176.49,168.2,134.36,94.49,212.18,70.31,212l85.48-88.66-1.59-1.42-1.35-1.52L67.26,212l-12.71.29,94.57-96.08-2.67-3-7.33-8.34,19.1-1.55,5,3.54,19.16,7,51.51,46.39,3.27-2.4,1.54,1.76,4.8,12,.72.28c14.2,18.65,10.15,35.8-5.94,40.89L203.11,203l8.36-2,1.5-2.15,10.28-2.33,13-20.07Zm-9.12,21.17L242,180.31l-2.27-2.41-12.58,19.76ZM232,161.52l-51.52-42.13-1.24,1.86,50.53,41.92Z"/></g><g class="ee0fa886-13a7-4702-b743-a9c829babbbf"><path class="a2b84498-1e5c-41ce-acd9-d9f6e8eef65c" d="M236.25,176.49,168.2,134.36,94.49,212.18,70.31,212l85.48-88.66-1.59-1.42-1.35-1.52L67.26,212l-12.71.29,94.57-96.08-2.67-3-7.33-8.34,19.1-1.55,5,3.54,19.16,7,51.51,46.39,3.27-2.4,1.54,1.76,4.8,12,.72.28c14.2,18.65,10.15,35.8-5.94,40.89L203.11,203l8.36-2,1.5-2.15,10.28-2.33,13-20.07Zm-9.12,21.17L242,180.31l-2.27-2.41-12.58,19.76ZM232,161.52l-51.52-42.13-1.24,1.86,50.53,41.92Z"/></g><g class="fa05bfc3-eeed-49f9-8329-1fe83f0b99b3"><path class="adee0fd7-d5f7-4251-a9c3-a0ab3fd7130d" d="M204.54,203.42l4.52-1.08a13.73,13.73,0,0,0,2.38-.56c.48-.21.68-.69,1-1.13s.51-.92,1-1.13a9.82,9.82,0,0,1,1.86-.42l6-1.37c.67-.15,1.78-.18,2.28-.65a14.1,14.1,0,0,0,1.7-2.63l6.65-10.25,4.83-7.46a2.89,2.89,0,0,0,0-.72l-11.16-6.91-24.31-15.05-23.7-14.68-7.28-4.5c-.41-.26-1.76-1.4-2.21-1.28-.25.07-.65.69-.82.87l-1.72,1.81-5.72,6L142,161.13l-21,22.13-18,19-5.87,6.2-1.81,1.91a5.42,5.42,0,0,1-.93,1,1.92,1.92,0,0,1-1,.1l-5.37,0-14.15-.1-2.74,0V212l8.49-8.8L100,182.09l24.54-25.45,21.3-22.09,7-7.23L155,125a8.69,8.69,0,0,0,1.15-1.2,1.06,1.06,0,0,1,.15-.15,2.24,2.24,0,0,0,0-.73,24.15,24.15,0,0,1-2.28-2.13c-.21-.24-.94-1.33-1.21-1.26s-.93,1-1.16,1.24l-6.15,6.58-23,24.65-28,30L72.62,205.35l-5,5.38c-.4.43-.4.51-1,.52l-8.81.2-2.37.06v.72l9.39-9.53,22.53-22.89,27.16-27.6L138,128.35l7.79-7.92,2.4-2.43a9.38,9.38,0,0,0,1.29-1.31,1.14,1.14,0,0,1,.15-.16,2.17,2.17,0,0,0,0-.72l-9.75-11.1v.72l9.26-.75,6.2-.5a10.41,10.41,0,0,1,2.82-.23,7.61,7.61,0,0,1,1.66,1.18l2.57,1.83a7.5,7.5,0,0,0,1.89.91L175.71,112l5.13,1.86a7.08,7.08,0,0,1,1.41.54,27.39,27.39,0,0,1,3.16,2.85L201.78,132l20,18c3.91,3.52,7.7,7.28,11.78,10.61.53.43.48.21,1.13-.26l1.22-.91c.28-.2.72-.69,1.06-.78s.06-.14.44.18a5.32,5.32,0,0,1,1,1.1,20.59,20.59,0,0,1,1.35,3.3l2.49,6.2.83,2.08c.27.66.32.4.91.81a9.46,9.46,0,0,1,1.79,2.39c.61.9,1.19,1.82,1.75,2.75a44,44,0,0,1,2.74,5.44c2.77,6.67,3.52,14.42-.57,20.72a19.41,19.41,0,0,1-7,6.38,24.36,24.36,0,0,1-2.36,1.13,6.72,6.72,0,0,1-2,.73,3.34,3.34,0,0,1-.52-.14l-8.44-2.3-23.24-6.33-1.53-.42c.06,0-.06.71,0,.73l18.91,5.15,11.62,3.16a28.69,28.69,0,0,0,2.89.79,2,2,0,0,0,1.24-.23,23.59,23.59,0,0,0,4.68-2.29,18.85,18.85,0,0,0,8.7-15.69c.14-6.58-2.17-12.79-5.6-18.34-.53-.87-1.1-1.72-1.68-2.55-.33-.47-.65-.94-1-1.38s-.4-.35-.8-.59-.39-.41-.58-.87l-2.24-5.6-2.08-5.19a3.09,3.09,0,0,0-.69-1c-.14-.17-.59-.88-.79-.91s-.53.37-.63.45l-1.3.95c-.3.22-.74.71-1.1.81s-.1.14-.31.09-.9-.8-1.15-1l-5.56-5L208.12,137,189.18,120l-5.66-5.1a6.26,6.26,0,0,0-2.33-1.56l-11.35-4.12-5.33-1.94a7.79,7.79,0,0,1-1.95-.87l-2.48-1.76a9.16,9.16,0,0,0-1.93-1.37,8.84,8.84,0,0,0-2.65.2l-12.84,1-2.81.23a5.76,5.76,0,0,0,0,.72l9.75,11.1v-.72l-9.38,9.53-22.53,22.89-27.16,27.6L67.05,199.69l-7.8,7.92L56.85,210a9.89,9.89,0,0,0-1.28,1.31,1.21,1.21,0,0,1-.16.16c0,.05,0,.72,0,.72l7.44-.16c1.26,0,2.59,0,3.85-.09a1.17,1.17,0,0,0,.48-.09,7.29,7.29,0,0,0,1.23-1.31l2.51-2.69,20.21-21.62L119,156.49l24.34-26,7.3-7.8,1.83-2c.07-.08.26-.38.37-.4s1.08,1.12,1.28,1.35a25.29,25.29,0,0,0,2.21,2V123l-8.48,8.8-20.37,21.12L102.9,178.34,81.61,200.42l-7,7.24-2.19,2.28a8.15,8.15,0,0,0-1.16,1.19.75.75,0,0,1-.15.16c0,.05,0,.73,0,.73l22.37.16a1.63,1.63,0,0,0,1-.12,5.74,5.74,0,0,0,1-1l4.46-4.7,16.3-17.21,20.81-22,19.18-20.25,11.15-11.77c.16-.17.55-.77.78-.83s.24.08.43.18c1.71.91,3.32,2.06,5,3.07L195,150.87l25.42,15.74,15.6,9.66.76.47V176L226,192.62,223.83,196c-.41.64-.52.6-1.31.78l-5.74,1.3-2.65.6a3.07,3.07,0,0,0-1,.24c-.66.46-.81,1.66-1.47,2.12a6.41,6.41,0,0,1-1.85.44l-5.3,1.26C204.48,202.7,204.59,203.4,204.54,203.42Z"/><path class="adee0fd7-d5f7-4251-a9c3-a0ab3fd7130d" d="M226.83,197.83c.47.35.4.47.75.21a6.82,6.82,0,0,0,.92-1.08l3.49-4.07,8.48-9.9,2-2.33a2.17,2.17,0,0,0,0-.72l-2.07-2.21c-.07-.07-.61-.78-.72-.77s-.09.17-.12.19a5.83,5.83,0,0,0-.89,1.38L237.11,181l-8.17,12.84-2.11,3.31c-.11.18.11.56,0,.73l12.56-19.72c.31-.49.23-.46.65,0l2.41,2.56v-.72l-13.6,15.88-1.18,1.38c-.36.43-.33.28-.84-.1C227,197.19,226.71,197.74,226.83,197.83Z"/><path class="adee0fd7-d5f7-4251-a9c3-a0ab3fd7130d" d="M178.74,121.68l18.84,15.62,27.86,23.12,3.71,3.08c.09.07.44.47.57.47.28,0,.88-.64,1.12-.81l1.7-1.26a2.18,2.18,0,0,0,0-.72L213.62,145.7l-28.54-23.34-3.94-3.22c-.11-.1-.58-.61-.73-.61-.39,0-1.4,2-1.67,2.42-.11.17.11.56,0,.73l.95-1.43c.08-.11.55-1,.7-1s.42.35.49.41l3.1,2.53L196,132l29.55,24.16,7,5.72v-.72l-1.3,1c-.3.22-1.15,1.11-1.51,1.11-.09,0-.31-.26-.38-.31-1-.77-1.9-1.58-2.85-2.37l-11.79-9.78-29.06-24.1L178.74,121C178.86,121.05,178.62,121.58,178.74,121.68Z"/></g><path class="b7c060a9-5fdc-467c-a31c-0430a7af0233" d="M236.25,176.49,168.2,134.36,94.49,212.18,70.31,212l85.48-88.66-1.59-1.42-1.35-1.52L67.26,212l-12.71.29,94.57-96.08-2.67-3-7.33-8.34,19.1-1.55,5,3.54,19.16,7,51.51,46.39,3.27-2.4,1.54,1.76,4.8,12,.72.28c14.2,18.65,10.15,35.8-5.94,40.89L203.11,203l8.36-2,1.5-2.15,10.28-2.33,13-20.07Zm-9.12,21.17L242,180.31l-2.27-2.41-12.58,19.76ZM232,161.52l-51.52-42.13-1.24,1.86,50.53,41.92Z"/><g class="bc9cbf7f-b586-48b6-b581-4d8341724239"><path d="M236.25,176.43,211.36,161,174.2,138l-4.73-2.93c-.29-.18-1-.81-1.32-.73-.16,0-.43.46-.54.57l-1.15,1.22-3.78,4L134.43,170l-30.54,32.23L95.56,211c-.28.3-.72,1-1.1,1.14a8.06,8.06,0,0,1-2.3,0l-4.69,0L75.78,212l-4.24,0c-.25,0-1.22-.12-1.22.1,0-.28,1.11-1.16,1.29-1.34l3.22-3.34L101,180.26,134,146l20.77-21.54,1-1.08a.24.24,0,0,0,0-.12,27.32,27.32,0,0,1-2.49-2.44c-.3-.34-.27-.49-.55-.4s-.95,1-1.23,1.32l-6.15,6.59L123,152.25,95.79,181.37,73.86,204.84l-5.63,6c-.25.26-.61.84-.94,1a3.55,3.55,0,0,1-1.13,0L62,212l-4.74.11-1.76,0a2.65,2.65,0,0,1-.93,0s-.07.21.12,0a4.43,4.43,0,0,1,.48-.49l5-5.07,20.91-21.25,27.82-28.27,25.47-25.87,14.09-14.32.65-.66a.29.29,0,0,0,0-.13q-4.44-5.06-8.89-10.1a11.49,11.49,0,0,0-.85-1c-.27-.25-.16-.23-.22-.18.31-.22,1.42-.11,1.79-.14l8.22-.67,7.8-.63a4.5,4.5,0,0,1,1.26-.1,3.89,3.89,0,0,1,.89.63l1.91,1.36a14,14,0,0,0,3.55,2L172,110l8,2.89a12,12,0,0,1,2.53,1,16.81,16.81,0,0,1,1.78,1.6L188,118.8l25.26,22.75,19.91,17.94c.74.66.61.8,1.47.16l1.69-1.24c.16-.12.71-.65.9-.62s.94,1.07,1.12,1.29a2.9,2.9,0,0,1,.46.6,24,24,0,0,1,1,2.56l1.64,4.08,1.49,3.72c.22.56.34,1.25.84,1.56a2.65,2.65,0,0,1,1,.93c.37.5.72,1,1.07,1.51q1.24,1.8,2.34,3.72a40.36,40.36,0,0,1,3.12,6.86,25,25,0,0,1,1,14,18.48,18.48,0,0,1-5.56,9.23,21.57,21.57,0,0,1-4.8,3.22,25.68,25.68,0,0,1-2.7,1.14,2.61,2.61,0,0,1-1.06.3,18.29,18.29,0,0,1-3.6-1l-7.41-2L210,204.84l-5.59-1.52a9.51,9.51,0,0,1-1.19-.33c-.12-.05-.1.11.07.07.44-.13.9-.22,1.35-.32l4.33-1a9.64,9.64,0,0,0,2.53-.6c.69-.45.84-1.72,1.53-2.16a9.17,9.17,0,0,1,2.56-.58l4.44-1a14.27,14.27,0,0,0,3.07-.7c.77-.38,1.36-1.86,1.82-2.57l9.28-14.33,2.08-3.21s0-.09,0-.12l-10.92,16.86a23.05,23.05,0,0,1-1.92,3c-.47.53-1.34.52-2,.68l-6.12,1.39a10.67,10.67,0,0,0-2,.46c-.43.18-.57.51-.86.93s-.61,1.13-1.25,1.36a25.38,25.38,0,0,1-2.74.65L203.11,203v.12l19.27,5.25,12.21,3.33c1.07.29,2.14.64,3.22.87a2.52,2.52,0,0,0,.47.13,7.22,7.22,0,0,0,2.05-.74,21.78,21.78,0,0,0,2.19-1,19.06,19.06,0,0,0,10-13c1.05-5.15.05-10.53-1.91-15.35a43.67,43.67,0,0,0-2.6-5.27c-.52-.89-1.06-1.75-1.62-2.61a16.14,16.14,0,0,0-2-2.82c-.48-.44-.77-.33-1-.9s-.58-1.45-.87-2.17l-2.59-6.46a12.23,12.23,0,0,0-1.44-3.21,8.33,8.33,0,0,0-1-1.14c-.34-.3-.11-.27-.45-.18s-.81.59-1.07.78l-1.4,1c-.64.47-.53.55-1,.09l-4.62-4.17L210.17,138.7l-19.88-17.91L184,115.14a7.16,7.16,0,0,0-2.29-1.71l-11.36-4.12-5.53-2a8.68,8.68,0,0,1-2.09-.92l-2.63-1.87a8.45,8.45,0,0,0-1.89-1.34,11,11,0,0,0-2.95.23l-13.22,1.08-2.94.24a.48.48,0,0,0,0,.12l5.33,6.06c.67.76,1.33,1.52,2,2.27a25.7,25.7,0,0,1,2.49,2.84c.21.33.22-.07,0,.24a3.64,3.64,0,0,1-.55.56l-2.21,2.24-20.27,20.6L96.32,169.74,68.64,197.86l-9.4,9.56-2.93,3A13.58,13.58,0,0,0,54.76,212a1,1,0,0,1-.21.21s0,.12,0,.12l6.48-.14,4.38-.1a5.72,5.72,0,0,0,1.85-.05c.25-.11.52-.55.7-.74l1.94-2.07L87,190.94l25.48-27.26L137,137.45l14.75-15.79c.21-.21.76-1.06,1.06-1.13s.59.52.82.78,2.19,2,2.19,2c0,.18-.61.63-.72.75l-2,2.07-17.71,18.38L109.5,171.3,84.75,197,71,211.26l-.65.68a.48.48,0,0,0,0,.12l22.69.17a4.35,4.35,0,0,0,1.53,0c.27-.13.57-.6.77-.82L99.45,207l15.9-16.79,20.88-22,19.34-20.42,11.58-12.22c.23-.25.63-.87.94-1s0-.06.35,0a7.82,7.82,0,0,1,1.62,1l3,1.85,21.18,13.11L219.7,166.3l15.79,9.78.76.47S236.27,176.44,236.25,176.43Z"/><path d="M227.13,197.72l13-15.18,1.86-2.17a.24.24,0,0,0,0-.12l-2-2.09c-.35-.37-.28-.37-.53,0l-2.55,4-7.8,12.26-2,3.15s0,.09,0,.12l11.57-18.17a11.63,11.63,0,0,1,.83-1.31c.26-.31.13-.33.49,0l1.09,1.16c.17.19.77.63.83.89,0,0,.05-.17-.05,0a4.47,4.47,0,0,1-.35.41l-7.5,8.75-6.91,8.08S227.15,197.7,227.13,197.72Z"/><path d="M232,161.46l-18.51-15.13-28-22.92-4.06-3.31c-.16-.13-.65-.69-.86-.71-.36,0-1.06,1.41-1.32,1.8a.24.24,0,0,0,0,.12l18.32,15.2,27.65,22.93,3.83,3.18c.13.11.52.56.69.58s.36-.21.5-.32l1.77-1.3s0-.1,0-.12l-1.41,1c-.16.12-.64.61-.83.6s-.42-.35-.51-.42l-3.05-2.53-11.75-9.75-28.64-23.76L181.36,123,180,121.83c-.17-.14-.6-.37-.7-.58s0,.21,0,0a5.81,5.81,0,0,1,1.1-1.65c.21-.08.14,0,.39.16a28.94,28.94,0,0,1,2.72,2.22L210,143.59c7.2,5.89,14.33,11.9,21.63,17.69l.37.3S232,161.48,232,161.46Z"/></g></g></g></svg>